fira-sans_extrabold-italic.sfdir
StartChar: exclam
Encoding: 33 33 2126
Width: 229
Flags: MW
HStem: -18 21G<56 111> -18 193<73 111> 675 20G<82 267 267 267>
VStem: -4 192<60 97> -4 271
LayerCount: 2
Back
Fore
SplineSet
44 262 m 1xa8
 82 695 l 1
 267 695 l 1
 183 262 l 1
 44 262 l 1xa8
103 175 m 0x70
 152 175 188 140 188 89 c 0
 188 31 141 -18 81 -18 c 0
 31 -18 -4 18 -4 69 c 0
 -4 125 43 175 103 175 c 0x70
EndSplineSet
EndChar

StartChar: quotedbl
Encoding: 34 34 993
Width: 441
Flags: MW
HStem: 410 285<100 194 80 253 100 288 308 402>
VStem: 80 381<410 695>
LayerCount: 2
Fore
SplineSet
100 695 m 1
 253 695 l 1
 194 410 l 1
 80 410 l 1
 100 695 l 1
308 695 m 1
 461 695 l 1
 402 410 l 1
 288 410 l 1
 308 695 l 1
EndSplineSet
EndChar

StartChar: dollar
Encoding: 36 36 1064
Width: 545
Flags: MW
HStem: -7 21G<173 173> 561 271<313.5 361.5>
VStem: 67 183<481 518.5 481 522> 331 183<175.5 218>
LayerCount: 2
Fore
SplineSet
350 417 m 1
 455 379 514 318 514 222 c 0
 514 129 455 21 296 -4 c 1
 273 -163 l 1
 151 -163 l 1
 173 -7 l 1
 83 3 16 44 -24 91 c 1
 76 185 l 1
 119 142 173 119 227 119 c 0
 291 119 331 151 331 199 c 0
 331 237 307 257 239 283 c 1
 114 328 67 394 67 473 c 0
 67 571 137 660 270 682 c 1
 290 832 l 1
 413 832 l 1
 391 684 l 1
 461 674 517 642 561 598 c 1
 473 508 l 1
 423 547 381 561 342 561 c 0
 285 561 250 538 250 499 c 0
 250 463 273 447 350 417 c 1
EndSplineSet
Substitution2: "'onum' Oldstyle Figures lookup 22 subtable" dollar.osf
Substitution2: "'tnum' Tabular Numbers lookup 21 subtable" dollar.tf
AlternateSubs2: "'aalt' Access All Alternates lookup 1 subtable" dollar.tf dollar.osf
EndChar

StartChar: ampersand
Encoding: 38 38 1221
Width: 788
Flags: MW
HStem: -18 124<283 306.5> 601 112<338.5 372.5>
VStem: 44 187<156.5 196 156.5 208.5> 129 165<520 555 520 567.5> 409 163<539 568.5>
LayerCount: 2
Fore
SplineSet
366 713 m 0xe8
 497 713 572 645 572 554 c 0
 572 486 531 431 418 359 c 1
 521 244 l 1
 544 281 563 320 582 368 c 1
 720 323 l 1
 685 256 646 201 605 152 c 1
 703 50 l 1
 554 -18 l 1
 492 51 l 1
 421 0 346 -18 267 -18 c 0
 128 -18 44 58 44 164 c 0xe8
 44 253 89 311 201 376 c 1
 150 435 129 474 129 530 c 0xd8
 129 605 184 713 366 713 c 0xe8
358 601 m 0xd8
 319 601 294 576 294 534 c 0
 294 506 305 485 332 453 c 1
 390 491 409 524 409 554 c 0
 409 583 387 601 358 601 c 0xd8
288 277 m 1xe8
 244 243 231 214 231 178 c 0
 231 135 256 106 310 106 c 0
 348 106 382 117 413 136 c 1
 288 277 l 1xe8
EndSplineSet
EndChar
StartChar: quotesingle
Encoding: 39 39 2133
Width: 233
Flags: MW
HStem: 410 285<80 253 100 194>
VStem: 80 173
LayerCount: 2
Back
Fore
SplineSet
80 410 m 1
 100 695 l 1
 253 695 l 1
 194 410 l 1
 80 410 l 1
EndSplineSet
EndChar
StartChar: parenleft
Encoding: 40 40 2150
Width: 314
Flags: MW
HStem: -162 1026<142 281>
VStem: 12.59 172.92
LayerCount: 2
Back
Fore
SplineSet
281 864 m 1
 387 785 l 1
 277 653 220 525 196 347 c 0
 171 173 189 40 263 -92 c 1
 142 -162 l 1
 61 -23 -13 112 21 353 c 0
 54 591 162 726 281 864 c 1
EndSplineSet
Substitution2: "'case' Case-Sensitive Forms lookup 29 subtable" parenleft.case
Substitution2: "'dnom' Denominators lookup 17 subtable" parenleft.dnom
Substitution2: "'numr' Numerators lookup 16 subtable" parenleft.numr
Substitution2: "'sups' Superscript lookup 15 subtable" uni207D
Substitution2: "'subs' Subscript lookup 14 subtable" uni208D
AlternateSubs2: "'aalt' Access All Alternates lookup 1 subtable" uni208D uni207D parenleft.numr parenleft.dnom parenleft.case
EndChar
StartChar: parenright
Encoding: 41 41 2151
Width: 314
Flags: MW
HStem: -164 1026<55 195>
VStem: 151.34 172.59
LayerCount: 2
Back
Fore
SplineSet
195 862 m 1
 275 723 349 588 316 347 c 0
 282 109 175 -26 55 -164 c 1
 -50 -85 l 1
 60 47 116 176 141 353 c 0
 166 527 147 660 74 792 c 1
 195 862 l 1
EndSplineSet
Substitution2: "'case' Case-Sensitive Forms lookup 29 subtable" parenright.case
Substitution2: "'dnom' Denominators lookup 17 subtable" parenright.dnom
Substitution2: "'numr' Numerators lookup 16 subtable" parenright.numr
Substitution2: "'sups' Superscript lookup 15 subtable" uni207E
Substitution2: "'subs' Subscript lookup 14 subtable" uni208E
AlternateSubs2: "'aalt' Access All Alternates lookup 1 subtable" uni208E uni207E parenright.numr parenright.dnom parenright.case
EndChar
StartChar: asterisk
Encoding: 42 42 2118
Width: 441
Flags: MW
HStem: 723 20G<210 366 366 366>
VStem: 38 437<527 528>
LayerCount: 2
Back
Fore
SplineSet
475 528 m 1
 336 507 l 1
 422 410 l 1
 291 321 l 1
 246 445 l 1
 168 320 l 1
 61 409 l 1
 172 507 l 1
 38 527 l 1
 101 665 l 1
 217 603 l 1
 210 743 l 1
 366 743 l 1
 321 604 l 1
 449 668 l 1
 475 528 l 1
EndSplineSet
EndChar
StartChar: plus
Encoding: 43 43 2273
Width: 528
GlyphClass: 2
Flags: MW
HStem: 264 136<61 193 42 212 354 485 61 335>
VStem: 42 463<264 400>
LayerCount: 2
Back
Fore
SplineSet
376 558 m 1
 354 400 l 1
 505 400 l 1
 485 264 l 1
 335 264 l 1
 312 106 l 1
 170 106 l 1
 193 264 l 1
 42 264 l 1
 61 400 l 1
 212 400 l 1
 233 558 l 1
 376 558 l 1
EndSplineSet
Substitution2: "'onum' Oldstyle Figures lookup 26 subtable" plus.osf
Substitution2: "'tnum' Tabular Numbers lookup 25 subtable" plus.tf
Substitution2: "'dnom' Denominators lookup 17 subtable" plus.dnom
Substitution2: "'numr' Numerators lookup 16 subtable" plus.numr
Substitution2: "'sups' Superscript lookup 15 subtable" uni207A
Substitution2: "'subs' Subscript lookup 14 subtable" uni208A
AlternateSubs2: "'aalt' Access All Alternates lookup 1 subtable" uni208A uni207A plus.numr plus.dnom plus.tf plus.osf
EndChar

StartChar: comma
Encoding: 44 44 985
Width: 242
Flags: MW
HStem: 0 21G<31 31>
VStem: -1 190<72.5 96>
LayerCount: 2
Fore
SplineSet
105 175 m 0
 154 175 189 140 189 91 c 0
 189 54 174 25 138 -39 c 2
 56 -181 l 1
 -39 -181 l 1
 31 0 l 1
 10 15 -1 38 -1 66 c 0
 -1 126 46 175 105 175 c 0
EndSplineSet
EndChar

StartChar: hyphen
Encoding: 45 45 1027
Width: 398
Flags: MW
HStem: 245 136<53 358 34 377>
VStem: 34 343<245 381>
LayerCount: 2
Fore
SplineSet
53 381 m 1
 377 381 l 1
 358 245 l 1
 34 245 l 1
 53 381 l 1
EndSplineSet
Substitution2: "'case' Case-Sensitive Forms lookup 25 subtable" hyphen.case
Substitution2: "'aalt' Access All Alternates lookup 0 subtable" hyphen.case
EndChar

StartChar: period
Encoding: 46 46 990
Width: 240
Flags: MW
HStem: -18 193<74.5 109.5>
VStem: -4 192<60.5 97>
LayerCount: 2
Fore
SplineSet
103 175 m 0
 152 175 188 137 188 89 c 0
 188 32 138 -18 81 -18 c 0
 31 -18 -4 20 -4 69 c 0
 -4 125 46 175 103 175 c 0
EndSplineSet
EndChar
StartChar: slash
Encoding: 47 47 2135
Width: 509
Flags: MW
HStem: -115 935<163 371>
VStem: 13 507
LayerCount: 2
Back
Fore
SplineSet
371 820 m 1
 520 783 l 1
 163 -115 l 1
 13 -78 l 1
 371 820 l 1
EndSplineSet
Substitution2: "'frac' Diagonal Fractions lookup 18 subtable" fraction
Substitution2: "'aalt' Access All Alternates lookup 0 subtable" fraction
EndChar

StartChar: zero
Encoding: 48 48 879
Width: 583
Flags: MW
HStem: -18 130<247.5 298 247.5 377.5> 563 130<305 355>
VStem: 34 174<171.5 223 171.5 335> 395 174<455.5 506.5>
LayerCount: 2
Fore
SplineSet
347 693 m 0
 490 693 569 601 569 433 c 0
 569 254 499 -18 256 -18 c 0
 112 -18 34 76 34 244 c 0
 34 426 103 693 347 693 c 0
335 563 m 0
 275 563 244 510 220 335 c 0
 212 281 208 239 208 207 c 0
 208 136 227 112 268 112 c 0
 328 112 358 160 383 341 c 0
 391 398 395 440 395 471 c 0
 395 542 375 563 335 563 c 0
EndSplineSet
Substitution2: "'zero' Slashed Zero lookup 28 subtable" zero.zero
Substitution2: "'onum' Oldstyle Figures lookup 22 subtable" zero.osf
Substitution2: "'tnum' Tabular Numbers lookup 21 subtable" zero.tf
Substitution2: "'frac' Diagonal Fractions lookup 16 subtable" zero.numr
Substitution2: "'dnom' Denominators lookup 14 subtable" zero.dnom
Substitution2: "'numr' Numerators lookup 13 subtable" zero.numr
Substitution2: "'sups' Superscript lookup 12 subtable" zerosuperior
Substitution2: "'subs' Subscript lookup 11 subtable" zeroinferior
AlternateSubs2: "'aalt' Access All Alternates lookup 1 subtable" zeroinferior zerosuperior zero.numr zero.dnom zero.tf zero.osf zero.zero
EndChar
StartChar: one
Encoding: 49 49 2018
Width: 462
Flags: MW
HStem: 0 21G<184 353 184 184>
VStem: 42 406<537 678>
LayerCount: 2
Back
Fore
SplineSet
448 678 m 1
 353 0 l 1
 184 0 l 1
 254 498 l 1
 101 411 l 1
 42 537 l 1
 292 678 l 1
 448 678 l 1
EndSplineSet
Substitution2: "'onum' Oldstyle Figures lookup 26 subtable" one.osf
Substitution2: "'tnum' Tabular Numbers lookup 25 subtable" one.tf
Substitution2: "'frac' Diagonal Fractions lookup 19 subtable" one.numr
Substitution2: "'dnom' Denominators lookup 17 subtable" one.dnom
Substitution2: "'numr' Numerators lookup 16 subtable" one.numr
Substitution2: "'sups' Superscript lookup 15 subtable" uni00B9
Substitution2: "'subs' Subscript lookup 14 subtable" uni2081
AlternateSubs2: "'aalt' Access All Alternates lookup 1 subtable" uni2081 uni00B9 one.numr one.dnom one.tf one.osf
EndChar

StartChar: two
Encoding: 50 50 881
Width: 513
Flags: MW
HStem: 0 134 558 135<241 278> 559 20G<38 38>
VStem: 326 182<470.5 513.5>
LayerCount: 2
Fore
SplineSet
290 693 m 0xd0
 434 693 508 614 508 516 c 0
 508 425 477 333 205 133 c 1
 470 135 l 1
 433 0 l 1
 -12 0 l 1
 4 125 l 1
 285 369 326 418 326 493 c 0
 326 534 299 558 257 558 c 0
 211 558 176 535 133 488 c 1xd0
 38 579 l 1xb0
 105 651 192 693 290 693 c 0xd0
EndSplineSet
Substitution2: "'onum' Oldstyle Figures lookup 22 subtable" two.osf
Substitution2: "'tnum' Tabular Numbers lookup 21 subtable" two.tf
Substitution2: "'frac' Diagonal Fractions lookup 16 subtable" two.numr
Substitution2: "'dnom' Denominators lookup 14 subtable" two.dnom
Substitution2: "'numr' Numerators lookup 13 subtable" two.numr
Substitution2: "'sups' Superscript lookup 12 subtable" twosuperior
Substitution2: "'subs' Subscript lookup 11 subtable" twoinferior
AlternateSubs2: "'aalt' Access All Alternates lookup 1 subtable" twoinferior twosuperior two.numr two.dnom two.tf two.osf
EndChar

StartChar: three
Encoding: 51 51 882
Width: 515
Flags: MW
HStem: -18 134<167 223 167 301> 294 120<191 214 155 229> 563 130<247.5 283>
VStem: 303 177<191 251> 331 172<501.5 525>
LayerCount: 2
Fore
SplineSet
295 693 m 0xe8
 434 693 503 625 503 533 c 0xe8
 503 470 468 390 349 357 c 1
 421 350 480 306 480 218 c 0
 480 128 413 -18 189 -18 c 0
 83 -18 10 24 -35 89 c 1
 72 176 l 1
 106 134 142 116 192 116 c 0
 254 116 303 155 303 227 c 0
 303 275 273 294 214 294 c 2xf0
 155 294 l 1
 191 414 l 1
 229 414 l 2
 309 414 331 471 331 507 c 0
 331 543 305 563 261 563 c 0
 211 563 166 541 124 504 c 1
 48 603 l 1
 121 661 200 693 295 693 c 0xe8
EndSplineSet
Substitution2: "'onum' Oldstyle Figures lookup 22 subtable" three.osf
Substitution2: "'tnum' Tabular Numbers lookup 21 subtable" three.tf
Substitution2: "'frac' Diagonal Fractions lookup 16 subtable" three.numr
Substitution2: "'dnom' Denominators lookup 14 subtable" three.dnom
Substitution2: "'numr' Numerators lookup 13 subtable" three.numr
Substitution2: "'sups' Superscript lookup 12 subtable" threesuperior
Substitution2: "'subs' Subscript lookup 11 subtable" threeinferior
AlternateSubs2: "'aalt' Access All Alternates lookup 1 subtable" threeinferior threesuperior three.numr three.dnom three.tf three.osf
EndChar

StartChar: four
Encoding: 52 52 883
Width: 564
Flags: MW
HStem: 0 21G<267 438 267 267> 140 132<212 286 476 529> 677 20G<264 264>
VStem: 5 542<140 272>
LayerCount: 2
Fore
SplineSet
529 140 m 1
 458 140 l 1
 438 0 l 1
 267 0 l 1
 286 140 l 1
 5 140 l 1
 21 257 l 1
 264 697 l 1
 409 642 l 1
 212 272 l 1
 305 272 l 1
 347 426 l 1
 498 426 l 1
 476 272 l 1
 547 272 l 1
 529 140 l 1
EndSplineSet
Substitution2: "'onum' Oldstyle Figures lookup 22 subtable" four.osf
Substitution2: "'tnum' Tabular Numbers lookup 21 subtable" four.tf
Substitution2: "'frac' Diagonal Fractions lookup 16 subtable" four.numr
Substitution2: "'dnom' Denominators lookup 14 subtable" four.dnom
Substitution2: "'numr' Numerators lookup 13 subtable" four.numr
Substitution2: "'sups' Superscript lookup 12 subtable" foursuperior
Substitution2: "'subs' Subscript lookup 11 subtable" fourinferior
AlternateSubs2: "'aalt' Access All Alternates lookup 1 subtable" fourinferior foursuperior four.numr four.dnom four.tf four.osf
EndChar
StartChar: five
Encoding: 53 53 2022
Width: 536
Flags: MW
HStem: -18 132<181 244.5 181 313> 329 120<241.5 388.5> 552 126<261 496 261 261>
VStem: 327 178<211.5 280.5>
LayerCount: 2
Back
Fore
SplineSet
533 678 m 1
 496 552 l 1
 261 552 l 1
 242 427 l 1
 276 443 310 449 340 449 c 0
 437 449 505 384 505 261 c 0
 505 147 424 -18 202 -18 c 0
 93 -18 26 28 -18 87 c 1
 88 176 l 1
 118 138 155 114 207 114 c 0
 282 114 327 172 327 251 c 0
 327 310 297 329 254 329 c 0
 229 329 206 323 175 304 c 1
 57 305 l 1
 109 678 l 1
 533 678 l 1
EndSplineSet
Substitution2: "'onum' Oldstyle Figures lookup 26 subtable" five.osf
Substitution2: "'tnum' Tabular Numbers lookup 25 subtable" five.tf
Substitution2: "'frac' Diagonal Fractions lookup 19 subtable" five.numr
Substitution2: "'dnom' Denominators lookup 17 subtable" five.dnom
Substitution2: "'numr' Numerators lookup 16 subtable" five.numr
Substitution2: "'sups' Superscript lookup 15 subtable" uni2075
Substitution2: "'subs' Subscript lookup 14 subtable" uni2085
AlternateSubs2: "'aalt' Access All Alternates lookup 1 subtable" uni2085 uni2075 five.numr five.dnom five.tf five.osf
EndChar
StartChar: six
Encoding: 54 54 2023
Width: 562
Flags: MW
HStem: -18 125<248.5 308.5 248.5 366> 339 120<295.5 425> 569 124<348.5 399>
VStem: 30 179<165.5 210.5 165.5 241> 366 175<245.5 298>
LayerCount: 2
Back
Fore
SplineSet
375 459 m 0
 475 459 541 393 541 275 c 0
 541 165 469 -18 263 -18 c 0
 102 -18 30 78 30 228 c 0
 30 254 32 282 36 311 c 0
 70 541 204 693 390 693 c 0
 457 693 507 673 541 645 c 1
 464 544 l 1
 441 559 416 569 382 569 c 0
 315 569 260 514 234 409 c 1
 280 445 330 459 375 459 c 0
270 107 m 0
 347 107 366 218 366 273 c 0
 366 323 347 339 310 339 c 0
 281 339 248 324 218 296 c 1
 212 256 209 223 209 198 c 0
 209 133 227 107 270 107 c 0
EndSplineSet
Substitution2: "'onum' Oldstyle Figures lookup 26 subtable" six.osf
Substitution2: "'tnum' Tabular Numbers lookup 25 subtable" six.tf
Substitution2: "'frac' Diagonal Fractions lookup 19 subtable" six.numr
Substitution2: "'dnom' Denominators lookup 17 subtable" six.dnom
Substitution2: "'numr' Numerators lookup 16 subtable" six.numr
Substitution2: "'sups' Superscript lookup 15 subtable" uni2076
Substitution2: "'subs' Subscript lookup 14 subtable" uni2086
AlternateSubs2: "'aalt' Access All Alternates lookup 1 subtable" uni2086 uni2076 six.numr six.dnom six.tf six.osf
EndChar
StartChar: seven
Encoding: 55 55 2024
Width: 464
Flags: MW
HStem: -18 21G<172 172> 545 133<65 308 46 509>
VStem: 18 491
LayerCount: 2
Back
Fore
SplineSet
509 678 m 1
 493 559 l 1
 172 -18 l 1
 18 36 l 1
 308 545 l 1
 46 545 l 1
 65 678 l 1
 509 678 l 1
EndSplineSet
Substitution2: "'onum' Oldstyle Figures lookup 26 subtable" seven.osf
Substitution2: "'tnum' Tabular Numbers lookup 25 subtable" seven.tf
Substitution2: "'frac' Diagonal Fractions lookup 19 subtable" seven.numr
Substitution2: "'dnom' Denominators lookup 17 subtable" seven.dnom
Substitution2: "'numr' Numerators lookup 16 subtable" seven.numr
Substitution2: "'sups' Superscript lookup 15 subtable" uni2077
Substitution2: "'subs' Subscript lookup 14 subtable" uni2087
AlternateSubs2: "'aalt' Access All Alternates lookup 1 subtable" uni2087 uni2077 seven.numr seven.dnom seven.tf seven.osf
EndChar

StartChar: nine
Encoding: 57 57 888
Width: 560
Flags: MW
HStem: 232 122<163.5 293.5> 569 124<280.5 342>
VStem: 45 176<398.5 454.5 398.5 477.5> 384 179<477 517>
LayerCount: 2
Fore
SplineSet
328 693 m 0
 480 693 563 604 563 475 c 0
 563 284 474 37 64 -30 c 1
 42 94 l 1
 213 132 299 180 347 287 c 1
 309 251 269 232 210 232 c 0
 117 232 45 301 45 418 c 0
 45 537 125 693 328 693 c 0
221 426 m 0
 221 371 245 354 277 354 c 0
 310 354 345 372 376 407 c 1
 381 440 384 466 384 488 c 0
 384 546 364 569 320 569 c 0
 241 569 221 483 221 426 c 0
EndSplineSet
Substitution2: "'onum' Oldstyle Figures lookup 22 subtable" nine.osf
Substitution2: "'tnum' Tabular Numbers lookup 21 subtable" nine.tf
Substitution2: "'frac' Diagonal Fractions lookup 16 subtable" nine.numr
Substitution2: "'dnom' Denominators lookup 14 subtable" nine.dnom
Substitution2: "'numr' Numerators lookup 13 subtable" nine.numr
Substitution2: "'sups' Superscript lookup 12 subtable" ninesuperior
Substitution2: "'subs' Subscript lookup 11 subtable" nineinferior
AlternateSubs2: "'aalt' Access All Alternates lookup 1 subtable" nineinferior ninesuperior nine.numr nine.dnom nine.tf nine.osf
EndChar

StartChar: colon
Encoding: 58 58 984
Width: 241
Flags: MW
HStem: -18 21G<57 110> -18 193<75.5 110> 320 194<122.5 157>
VStem: -3 191<60.5 97> 44 192<399.5 435.5>
LayerCount: 2
Fore
SplineSet
151 514 m 0xa8
 200 514 236 476 236 428 c 0
 236 371 185 320 129 320 c 0
 79 320 44 359 44 408 c 0
 44 463 94 514 151 514 c 0xa8
104 175 m 0x70
 153 175 188 137 188 89 c 0
 188 32 138 -18 82 -18 c 0
 32 -18 -3 20 -3 69 c 0
 -3 125 47 175 104 175 c 0x70
EndSplineSet
EndChar

StartChar: semicolon
Encoding: 59 59 995
Width: 246
Flags: MW
HStem: 0 21G<34 34> 320 194<126 160.5>
VStem: 2 191<72.5 96> 47 192<399.5 435.5>
LayerCount: 2
Fore
SplineSet
155 514 m 0xd0
 203 514 239 476 239 428 c 0
 239 371 189 320 132 320 c 0
 82 320 47 359 47 408 c 0
 47 463 97 514 155 514 c 0xd0
109 175 m 0xe0
 158 175 193 140 193 91 c 0
 193 54 178 25 141 -39 c 2
 59 -181 l 1
 -35 -181 l 1
 34 0 l 1
 13 15 2 38 2 66 c 0
 2 126 49 175 109 175 c 0xe0
EndSplineSet
EndChar

StartChar: less
Encoding: 60 60 1103
Width: 515
Flags: MW
HStem: 563 20G<476 476>
VStem: 28 491<256 453>
LayerCount: 2
Fore
SplineSet
519 453 m 1
 188 333 l 1
 478 210 l 1
 406 83 l 1
 28 256 l 1
 49 409 l 1
 476 583 l 1
 519 453 l 1
EndSplineSet
Substitution2: "'onum' Oldstyle Figures lookup 22 subtable" less.osf
Substitution2: "'tnum' Tabular Numbers lookup 21 subtable" less.tf
AlternateSubs2: "'aalt' Access All Alternates lookup 1 subtable" less.tf less.osf
EndChar
StartChar: equal
Encoding: 61 61 2253
Width: 514
GlyphClass: 2
Flags: MW
HStem: 156 136<27 475 46 456> 371 136<57 505 76 486>
VStem: 27 478<156 507>
LayerCount: 2
Back
Fore
SplineSet
57 371 m 1
 76 507 l 1
 505 507 l 1
 486 371 l 1
 57 371 l 1
27 156 m 1
 46 292 l 1
 475 292 l 1
 456 156 l 1
 27 156 l 1
EndSplineSet
Substitution2: "'onum' Oldstyle Figures lookup 26 subtable" equal.osf
Substitution2: "'tnum' Tabular Numbers lookup 25 subtable" equal.tf
Substitution2: "'dnom' Denominators lookup 17 subtable" equal.dnom
Substitution2: "'numr' Numerators lookup 16 subtable" equal.numr
Substitution2: "'sups' Superscript lookup 15 subtable" uni207C
AlternateSubs2: "'aalt' Access All Alternates lookup 1 subtable" uni207C equal.numr equal.dnom equal.tf equal.osf
EndChar
StartChar: greater
Encoding: 62 62 2256
Width: 513
GlyphClass: 2
Flags: MW
HStem: 563 20G<127 127>
VStem: 17 488<219 409>
LayerCount: 2
Back
Fore
SplineSet
127 583 m 1
 505 409 l 1
 483 256 l 1
 57 83 l 1
 17 219 l 1
 345 334 l 1
 56 462 l 1
 127 583 l 1
EndSplineSet
Substitution2: "'onum' Oldstyle Figures lookup 26 subtable" greater.osf
Substitution2: "'tnum' Tabular Numbers lookup 25 subtable" greater.tf
AlternateSubs2: "'aalt' Access All Alternates lookup 1 subtable" greater.tf greater.osf
EndChar

StartChar: question
Encoding: 63 63 991
Width: 477
Flags: MW
HStem: -18 21G<166 219.5> -18 193<185.5 219.5> 574 139<253 288.5>
VStem: 107 191<60.5 97> 125 159<277.5 280 277 370> 323 186<489.5 549>
LayerCount: 2
Fore
SplineSet
306 713 m 0xac
 443 713 509 646 509 563 c 0
 509 365 285 396 284 280 c 0
 284 274 285 266 286 260 c 1
 132 237 l 1
 128 253 125 270 125 285 c 0
 125 455 323 442 323 537 c 0
 323 561 305 574 272 574 c 0
 234 574 194 553 153 515 c 1
 56 605 l 1
 120 671 200 713 306 713 c 0xac
214 175 m 0x74
 262 175 298 137 298 89 c 0
 298 32 248 -18 191 -18 c 0
 141 -18 107 20 107 69 c 0
 107 125 157 175 214 175 c 0x74
EndSplineSet
EndChar
StartChar: at
Encoding: 64 64 2378
Width: 1009
GlyphClass: 2
Flags: MW
HStem: -224 128<387.5 505.5> 3 106<702.5 755.5 702.5 814> 7 109<461 476.5> 396 110<494.5 540.5> 586 127<412.5 646.5>
VStem: 34 157<104.5 269.5 104.5 293> 280 154<149.5 211 149.5 244> 589 96 822 154<318 437.5>
LayerCount: 2
Back
Fore
SplineSet
572 713 m 0xdf80
 829 713 976 553 976 357 c 0
 976 214 904 3 724 3 c 0xdf80
 648 3 594 53 589 102 c 1
 558 45 510 7 443 7 c 0xbf80
 330 7 280 79 280 180 c 0
 280 308 343 506 553 506 c 0
 608 506 674 488 723 458 c 1
 685 162 l 2
 680 128 688 109 717 109 c 0
 794 109 822 270 822 366 c 0
 822 509 735 586 558 586 c 0
 267 586 191 352 191 187 c 0
 191 22 291 -96 484 -96 c 0
 543 -96 619 -80 671 -61 c 1
 697 -182 l 1
 632 -207 541 -224 470 -224 c 0
 199 -224 34 -56 34 183 c 0
 34 403 183 713 572 713 c 0xdf80
474 116 m 0xbf80
 502 116 522 138 535 157 c 1
 568 389 l 1
 556 395 547 396 534 396 c 0
 455 396 434 253 434 169 c 0
 434 130 448 116 474 116 c 0xbf80
EndSplineSet
EndChar
StartChar: A
Encoding: 65 65 2
Width: 585
GlyphClass: 2
Flags: MW
HStem: 0 21G<-56 133 -56 -56 375 567 375 375> 142 132<228 355 228 364 182 355> 575 120<332 332> 675 20G<243 462 462 462>
VStem: -56 623<0 0>
AnchorPoint: "Anchor-14" 0 0 basechar 0
AnchorPoint: "Anchor-13" 0 0 basechar 0
AnchorPoint: "Anchor-12" 353 695 basechar 0
AnchorPoint: "Anchor-11" 490 0 basechar 0
AnchorPoint: "Anchor-10" 254 0 basechar 0
LayerCount: 2
Back
Fore
SplineSet
375 0 m 1xd8
 364 142 l 1
 182 142 l 1
 133 0 l 1
 -56 0 l 1
 243 695 l 1
 462 695 l 1
 567 0 l 1
 375 0 l 1xd8
228 274 m 1
 355 274 l 1
 332 575 l 1xe8
 228 274 l 1
EndSplineSet
Substitution2: "Single Substitution lookup 41 subtable" ordfeminine
Substitution2: "'c2sc' Capitals to Small Capitals lookup 27 subtable" a.sc
AlternateSubs2: "'aalt' Access All Alternates lookup 1 subtable" ordfeminine a.sc
Position2: "'cpsp' Capital Spacing lookup 0 subtable" dx=5 dy=0 dh=10 dv=0
EndChar
StartChar: B
Encoding: 66 66 36
Width: 608
GlyphClass: 2
Flags: MW
HStem: 0 132<216 247> 302 119<256 301 239 303> 566 129<276 321 321 322 276 276>
VStem: 395 187<206.5 259.5> 409 188<490 532>
AnchorPoint: "Anchor-14" 0 0 basechar 0
AnchorPoint: "Anchor-13" 0 0 basechar 0
AnchorPoint: "Anchor-12" 338 695 basechar 0
AnchorPoint: "Anchor-11" 0 0 basechar 0
AnchorPoint: "Anchor-10" 0 0 basechar 0
LayerCount: 2
Back
Fore
SplineSet
445 367 m 1xf0
 515 353 582 320 582 221 c 0xf0
 582 100 500 0 247 0 c 2
 17 0 l 1
 114 695 l 1
 321 695 l 2
 488 695 597 654 597 535 c 0xe8
 597 434 521 386 445 367 c 1xf0
303 421 m 2xe8
 388 421 409 467 409 513 c 0
 409 551 382 566 322 566 c 2
 276 566 l 1
 256 421 l 1
 303 421 l 2xe8
264 132 m 2xf0
 371 132 395 177 395 236 c 0
 395 283 359 302 301 302 c 2
 239 302 l 1
 216 132 l 1
 264 132 l 2xf0
EndSplineSet
Substitution2: "'c2sc' Capitals to Small Capitals lookup 27 subtable" b.sc
Substitution2: "'aalt' Access All Alternates lookup 0 subtable" b.sc
Position2: "'cpsp' Capital Spacing lookup 0 subtable" dx=5 dy=0 dh=10 dv=0
EndChar

StartChar: C
Encoding: 67 67 14
Width: 568
GlyphClass: 2
Flags: MW
HStem: -18 140<297 355> 578 135<329 420.5>
VStem: 32 188<219.5 327.5 219.5 366>
AnchorPoint: "Anchor-11" 296 0 basechar 0
AnchorPoint: "Anchor-10" 0 0 basechar 0
AnchorPoint: "Anchor-9" 409 695 basechar 0
AnchorPoint: "Anchor-8" 0 0 basechar 0
LayerCount: 2
Fore
SplineSet
395 713 m 0
 488 713 558 682 607 627 c 1
 507 530 l 1
 477 561 443 578 398 578 c 0
 260 578 220 384 220 271 c 0
 220 168 262 122 332 122 c 0
 385 122 427 150 470 182 c 1
 538 74 l 1
 483 25 402 -18 308 -18 c 0
 137 -18 32 82 32 270 c 0
 32 462 128 713 395 713 c 0
EndSplineSet
Substitution2: "'c2sc' Capitals to Small Capitals lookup 23 subtable" c.sc
Substitution2: "'aalt' Access All Alternates lookup 0 subtable" c.sc
Position2: "'cpsp' Capital Spacing lookup 0 subtable" dx=5 dy=0 dh=10 dv=0
EndChar

StartChar: D
Encoding: 68 68 20
Width: 644
GlyphClass: 2
Flags: MW
HStem: 0 132<216 235> 563 132<277 277 277 316 316 325>
VStem: 447 187<367.5 483.5>
AnchorPoint: "Anchor-11" 0 0 basechar 0
AnchorPoint: "Anchor-10" 0 0 basechar 0
AnchorPoint: "Anchor-9" 349 695 basechar 0
AnchorPoint: "Anchor-8" 0 0 basechar 0
LayerCount: 2
Fore
SplineSet
316 695 m 2
 483 695 634 645 634 431 c 0
 634 204 539 0 235 0 c 2
 17 0 l 1
 114 695 l 1
 316 695 l 2
277 563 m 1
 216 132 l 1
 262 132 l 2
 414 132 447 305 447 430 c 0
 447 537 399 563 325 563 c 2
 277 563 l 1
EndSplineSet
Substitution2: "'c2sc' Capitals to Small Capitals lookup 23 subtable" d.sc
Substitution2: "'aalt' Access All Alternates lookup 0 subtable" d.sc
Position2: "'cpsp' Capital Spacing lookup 0 subtable" dx=5 dy=0 dh=10 dv=0
EndChar

StartChar: F
Encoding: 70 70 34
Width: 477
GlyphClass: 2
Flags: MW
HStem: 0 21G<17 198 17 17> 266 131<254 428 236 447> 564 131<277 497 277 277>
VStem: 17 517
LayerCount: 2
Fore
SplineSet
497 564 m 1
 277 564 l 1
 254 397 l 1
 447 397 l 1
 428 266 l 1
 236 266 l 1
 198 0 l 1
 17 0 l 1
 114 695 l 1
 534 695 l 1
 497 564 l 1
EndSplineSet
Substitution2: "'c2sc' Capitals to Small Capitals lookup 23 subtable" f.sc
Substitution2: "'aalt' Access All Alternates lookup 0 subtable" f.sc
Position2: "'cpsp' Capital Spacing lookup 0 subtable" dx=5 dy=0 dh=10 dv=0
EndChar

StartChar: G
Encoding: 71 71 35
Width: 638
GlyphClass: 2
Flags: MW
HStem: -18 133<285 333.5 285 351.5> 277 127<347 424 345 617> 582 131<338.5 444.5>
VStem: 31 186<195.5 316 195.5 364>
AnchorPoint: "Anchor-11" 305 0 basechar 0
AnchorPoint: "Anchor-10" 0 0 basechar 0
AnchorPoint: "Anchor-9" 405 695 basechar 0
AnchorPoint: "Anchor-8" 0 0 basechar 0
LayerCount: 2
Fore
SplineSet
421 713 m 0
 522 713 597 674 645 622 c 1
 541 528 l 1
 504 565 471 582 418 582 c 0
 259 582 217 388 217 244 c 0
 217 147 252 115 318 115 c 0
 349 115 376 121 404 134 c 1
 424 277 l 1
 345 277 l 1
 347 404 l 1
 617 404 l 1
 570 57 l 1
 492 9 395 -18 308 -18 c 0
 121 -18 31 79 31 259 c 0
 31 469 137 713 421 713 c 0
EndSplineSet
Substitution2: "'c2sc' Capitals to Small Capitals lookup 23 subtable" g.sc
Substitution2: "'aalt' Access All Alternates lookup 0 subtable" g.sc
Position2: "'cpsp' Capital Spacing lookup 0 subtable" dx=5 dy=0 dh=10 dv=0
EndChar

StartChar: H
Encoding: 72 72 40
Width: 650
GlyphClass: 2
Flags: MW
HStem: 0 21G<17 198 17 17 378 378 378 560> 289 143<258 418 238 438> 675 20G<114 295 295 295 475 657 657 657>
VStem: 17 640
AnchorPoint: "Anchor-11" 0 0 basechar 0
AnchorPoint: "Anchor-10" -32 534 basechar 0
AnchorPoint: "Anchor-9" 386 695 basechar 0
AnchorPoint: "Anchor-8" 0 0 basechar 0
LayerCount: 2
Fore
SplineSet
418 289 m 1
 238 289 l 1
 198 0 l 1
 17 0 l 1
 114 695 l 1
 295 695 l 1
 258 432 l 1
 438 432 l 1
 475 695 l 1
 657 695 l 1
 560 0 l 1
 378 0 l 1
 418 289 l 1
EndSplineSet
Substitution2: "'c2sc' Capitals to Small Capitals lookup 23 subtable" h.sc
Substitution2: "'aalt' Access All Alternates lookup 0 subtable" h.sc
Position2: "'cpsp' Capital Spacing lookup 0 subtable" dx=5 dy=0 dh=10 dv=0
EndChar

StartChar: I
Encoding: 73 73 43
Width: 289
GlyphClass: 2
Flags: MW
HStem: 0 21G<17 199 17 17> 675 20G<114 296 296 296>
VStem: 17 279
AnchorPoint: "Anchor-11" 0 0 basechar 0
AnchorPoint: "Anchor-10" -30 534 basechar 0
AnchorPoint: "Anchor-9" 205 695 basechar 0
AnchorPoint: "Anchor-8" 172 0 basechar 0
LayerCount: 2
Fore
SplineSet
199 0 m 1
 17 0 l 1
 114 695 l 1
 296 695 l 1
 199 0 l 1
EndSplineSet
Substitution2: "'c2sc' Capitals to Small Capitals lookup 23 subtable" i.sc
Substitution2: "'aalt' Access All Alternates lookup 0 subtable" i.sc
Position2: "'cpsp' Capital Spacing lookup 0 subtable" dx=5 dy=0 dh=10 dv=0
EndChar
StartChar: J
Encoding: 74 74 134
Width: 313
GlyphClass: 2
Flags: MW
HStem: 675 20G<140 322 322 322>
VStem: -64 386
AnchorPoint: "Anchor-14" 0 0 basechar 0
AnchorPoint: "Anchor-13" 0 0 basechar 0
AnchorPoint: "Anchor-12" 231 695 basechar 0
AnchorPoint: "Anchor-11" 0 0 basechar 0
AnchorPoint: "Anchor-10" 0 0 basechar 0
LayerCount: 2
Back
Fore
SplineSet
322 695 m 1
 240 107 l 2
 214 -78 91 -140 -31 -179 c 1
 -64 -48 l 1
 29 -14 48 36 59 116 c 2
 140 695 l 1
 322 695 l 1
EndSplineSet
Substitution2: "'c2sc' Capitals to Small Capitals lookup 27 subtable" j.sc
Substitution2: "'aalt' Access All Alternates lookup 0 subtable" j.sc
Position2: "'cpsp' Capital Spacing lookup 0 subtable" dx=5 dy=0 dh=10 dv=0
EndChar

StartChar: K
Encoding: 75 75 56
Width: 635
GlyphClass: 2
Flags: MW
HStem: 0 21G<17 198 17 17 408 408 408 614> 675 20G<114 295 295 295 502 693 693 693>
VStem: 17 676
AnchorPoint: "Anchor-11" 286 0 basechar 0
AnchorPoint: "Anchor-10" 0 0 basechar 0
AnchorPoint: "Anchor-9" 385 695 basechar 0
AnchorPoint: "Anchor-8" 0 0 basechar 0
LayerCount: 2
Fore
SplineSet
198 0 m 1
 17 0 l 1
 114 695 l 1
 295 695 l 1
 198 0 l 1
442 375 m 1
 614 0 l 1
 408 0 l 1
 256 370 l 1
 502 695 l 1
 693 695 l 1
 442 375 l 1
EndSplineSet
Substitution2: "'c2sc' Capitals to Small Capitals lookup 23 subtable" k.sc
Substitution2: "'aalt' Access All Alternates lookup 0 subtable" k.sc
Position2: "'cpsp' Capital Spacing lookup 0 subtable" dx=5 dy=0 dh=10 dv=0
EndChar
StartChar: L
Encoding: 76 76 141
Width: 510
GlyphClass: 2
Flags: MW
HStem: 0 144<218 441> 675 20G<114 295 295 295>
VStem: 17 463<0 144>
AnchorPoint: "Anchor-14" 413 401 basechar 0
AnchorPoint: "Anchor-13" 315 695 basechar 0
AnchorPoint: "Anchor-12" 204 695 basechar 0
AnchorPoint: "Anchor-11" 0 0 basechar 0
AnchorPoint: "Anchor-10" 229 0 basechar 0
LayerCount: 2
Back
Fore
SplineSet
295 695 m 1
 218 144 l 1
 480 144 l 1
 441 0 l 1
 17 0 l 1
 114 695 l 1
 295 695 l 1
EndSplineSet
Substitution2: "'c2sc' Capitals to Small Capitals lookup 27 subtable" l.sc
Substitution2: "'aalt' Access All Alternates lookup 0 subtable" l.sc
Position2: "'cpsp' Capital Spacing lookup 0 subtable" dx=5 dy=0 dh=10 dv=0
EndChar

StartChar: M
Encoding: 77 77 64
Width: 781
GlyphClass: 2
Flags: MW
HStem: 0 21G<-12 166 -12 -12 537 716 537 537> 559 136<608 608> 675 20G<135 356 356 356 530 762 762 762>
VStem: -12 774<0 695>
LayerCount: 2
Fore
SplineSet
716 0 m 1xb0
 537 0 l 1
 565 260 l 1
 574 354 587 447 608 559 c 1
 448 72 l 1
 274 72 l 1
 239 558 l 1xd0
 236 434 227 353 210 257 c 2
 166 0 l 1
 -12 0 l 1
 135 695 l 1
 356 695 l 1
 381 219 l 1
 530 695 l 1
 762 695 l 1
 716 0 l 1xb0
EndSplineSet
Substitution2: "'c2sc' Capitals to Small Capitals lookup 23 subtable" m.sc
Substitution2: "'aalt' Access All Alternates lookup 0 subtable" m.sc
Position2: "'cpsp' Capital Spacing lookup 0 subtable" dx=5 dy=0 dh=10 dv=0
EndChar
StartChar: P
Encoding: 80 80 211
Width: 596
GlyphClass: 2
Flags: MW
HStem: 0 21G<17 199 17 17> 224 132<249 301 301 302 230 301> 565 130<278 329 278 278>
VStem: 422 188<461 513.5>
AnchorPoint: "Anchor-14" 0 0 basechar 0
AnchorPoint: "Anchor-13" 0 0 basechar 0
AnchorPoint: "Anchor-12" 359 695 basechar 0
AnchorPoint: "Anchor-11" 0 0 basechar 0
AnchorPoint: "Anchor-10" 261 0 basechar 0
LayerCount: 2
Back
Fore
SplineSet
347 695 m 2
 511 695 610 628 610 497 c 0
 610 372 528 224 302 224 c 2
 230 224 l 1
 199 0 l 1
 17 0 l 1
 114 695 l 1
 347 695 l 2
301 356 m 2
 399 356 422 434 422 488 c 0
 422 539 392 565 329 565 c 2
 278 565 l 1
 249 356 l 1
 301 356 l 2
EndSplineSet
Substitution2: "'c2sc' Capitals to Small Capitals lookup 27 subtable" p.sc
Substitution2: "'aalt' Access All Alternates lookup 0 subtable" p.sc
Position2: "'cpsp' Capital Spacing lookup 0 subtable" dx=5 dy=0 dh=10 dv=0
EndChar

StartChar: Q
Encoding: 81 81 85
Width: 679
GlyphClass: 2
Flags: MW
HStem: -18 62 -18 133<284 366> 580 133<317 419>
VStem: 32 187<200.5 303 200.5 361> 483 188<392 495.5>
LayerCount: 2
Fore
SplineSet
671 427 m 0x78
 671 290 624 120 474 44 c 1
 572 40 624 18 671 -21 c 1xb8
 545 -162 l 1
 496 -90 430 -18 302 -18 c 0
 128 -18 32 88 32 267 c 0
 32 455 119 713 400 713 c 0
 575 713 671 608 671 427 c 0x78
219 248 m 0
 219 153 252 115 316 115 c 0
 456 115 483 335 483 449 c 0
 483 542 451 580 387 580 c 0
 247 580 219 358 219 248 c 0
EndSplineSet
Substitution2: "'c2sc' Capitals to Small Capitals lookup 23 subtable" q.sc
Substitution2: "'aalt' Access All Alternates lookup 0 subtable" q.sc
Position2: "'cpsp' Capital Spacing lookup 0 subtable" dx=5 dy=0 dh=10 dv=0
EndChar
StartChar: R
Encoding: 82 82 218
Width: 610
GlyphClass: 2
Flags: MW
HStem: 0 21G<17 198 17 17 386 584 386 386> 256 126<251 288 234 313> 566 129<277 277 277 329>
VStem: 422 187<474 522>
AnchorPoint: "Anchor-14" 0 0 basechar 0
AnchorPoint: "Anchor-13" 0 0 basechar 0
AnchorPoint: "Anchor-12" 365 695 basechar 0
AnchorPoint: "Anchor-11" 0 0 basechar 0
AnchorPoint: "Anchor-10" 270 0 basechar 0
LayerCount: 2
Back
Fore
SplineSet
609 513 m 0
 609 425 583 347 456 287 c 1
 584 0 l 1
 386 0 l 1
 288 256 l 1
 234 256 l 1
 198 0 l 1
 17 0 l 1
 114 695 l 1
 351 695 l 2
 522 695 609 637 609 513 c 0
277 566 m 1
 251 382 l 1
 313 382 l 2
 400 382 422 449 422 499 c 0
 422 545 391 566 329 566 c 2
 277 566 l 1
EndSplineSet
Substitution2: "'c2sc' Capitals to Small Capitals lookup 27 subtable" r.sc
Substitution2: "'aalt' Access All Alternates lookup 0 subtable" r.sc
Position2: "'cpsp' Capital Spacing lookup 0 subtable" dx=5 dy=0 dh=10 dv=0
EndChar
StartChar: T
Encoding: 84 84 238
Width: 536
GlyphClass: 2
Flags: MW
HStem: 0 21G<140 322 140 140> 554 141<66 218 47 599 399 561 399 399>
VStem: 47 552<554 695>
AnchorPoint: "Anchor-14" 280 347 basechar 0
AnchorPoint: "Anchor-13" 0 0 basechar 0
AnchorPoint: "Anchor-12" 329 695 basechar 0
AnchorPoint: "Anchor-11" 0 0 basechar 0
AnchorPoint: "Anchor-10" 231 0 basechar 0
LayerCount: 2
Back
Fore
SplineSet
599 695 m 1
 561 554 l 1
 399 554 l 1
 322 0 l 1
 140 0 l 1
 218 554 l 1
 47 554 l 1
 66 695 l 1
 599 695 l 1
EndSplineSet
Substitution2: "'c2sc' Capitals to Small Capitals lookup 27 subtable" t.sc
Substitution2: "'aalt' Access All Alternates lookup 0 subtable" t.sc
Position2: "'cpsp' Capital Spacing lookup 0 subtable" dx=5 dy=0 dh=10 dv=0
EndChar
StartChar: V
Encoding: 86 86 282
Width: 564
GlyphClass: 2
Flags: MW
HStem: 0 21G<135 365 135 135> 0 135<270 270 270 365> 675 20G<41 231 231 231 456 644 644 644>
VStem: 41 603<695 695>
LayerCount: 2
Back
Fore
SplineSet
644 695 m 1xb0
 365 0 l 1
 135 0 l 1
 41 695 l 1
 231 695 l 1
 270 135 l 1x70
 456 695 l 1
 644 695 l 1xb0
EndSplineSet
Substitution2: "'c2sc' Capitals to Small Capitals lookup 27 subtable" v.sc
Substitution2: "'aalt' Access All Alternates lookup 0 subtable" v.sc
Position2: "'cpsp' Capital Spacing lookup 0 subtable" dx=5 dy=0 dh=10 dv=0
EndChar

StartChar: W
Encoding: 87 87 113
Width: 842
GlyphClass: 2
Flags: MW
HStem: 0 137<224 224 224 304> 515 180<455 455> 675 20G<67 246 246 246 385 577 577 577 720 896 896 896>
VStem: 70.5 164.5 455.5 119.5
AnchorPoint: "Anchor-11" 0 0 basechar 0
AnchorPoint: "Anchor-10" 0 0 basechar 0
AnchorPoint: "Anchor-9" 483 695 basechar 0
AnchorPoint: "Anchor-8" 0 0 basechar 0
LayerCount: 2
Fore
SplineSet
692 0 m 1xb8
 456 0 l 1
 455 515 l 1xd8
 304 0 l 1
 74 0 l 1
 67 695 l 1
 246 695 l 1
 224 137 l 1
 385 695 l 1
 577 695 l 1
 573 137 l 1
 720 695 l 1
 896 695 l 1
 692 0 l 1xb8
EndSplineSet
Substitution2: "'c2sc' Capitals to Small Capitals lookup 23 subtable" w.sc
Substitution2: "'aalt' Access All Alternates lookup 0 subtable" w.sc
Position2: "'cpsp' Capital Spacing lookup 0 subtable" dx=5 dy=0 dh=10 dv=0
EndChar

StartChar: X
Encoding: 88 88 118
Width: 583
GlyphClass: 2
Flags: MW
HStem: 0 21G<-44 151 -44 -44 358 553 358 358> 675 20G<67 261 261 261 440 634 634 634>
VStem: -44 678
LayerCount: 2
Fore
SplineSet
412 373 m 1
 553 0 l 1
 358 0 l 1
 288 260 l 1
 151 0 l 1
 -44 0 l 1
 194 370 l 1
 67 695 l 1
 261 695 l 1
 316 475 l 1
 440 695 l 1
 634 695 l 1
 413 374 l 1
 412 373 l 1
EndSplineSet
Substitution2: "'c2sc' Capitals to Small Capitals lookup 23 subtable" x.sc
Substitution2: "'aalt' Access All Alternates lookup 0 subtable" x.sc
Position2: "'cpsp' Capital Spacing lookup 0 subtable" dx=5 dy=0 dh=10 dv=0
EndChar
StartChar: Y
Encoding: 89 89 293
Width: 596
GlyphClass: 2
Flags: MW
HStem: 0 21G<170 352 170 170> 675 20G<49 244 244 244 473 667 667 667>
VStem: 49 618<695 695>
AnchorPoint: "Anchor-14" 0 0 basechar 0
AnchorPoint: "Anchor-13" 0 0 basechar 0
AnchorPoint: "Anchor-12" 359 695 basechar 0
AnchorPoint: "Anchor-11" 0 0 basechar 0
AnchorPoint: "Anchor-10" 261 0 basechar 0
LayerCount: 2
Back
Fore
SplineSet
667 695 m 1
 388 259 l 1
 352 0 l 1
 170 0 l 1
 206 258 l 1
 49 695 l 1
 244 695 l 1
 317 400 l 1
 473 695 l 1
 667 695 l 1
EndSplineSet
Substitution2: "'c2sc' Capitals to Small Capitals lookup 27 subtable" y.sc
Substitution2: "'aalt' Access All Alternates lookup 0 subtable" y.sc
Position2: "'cpsp' Capital Spacing lookup 0 subtable" dx=5 dy=0 dh=10 dv=0
EndChar
StartChar: Z
Encoding: 90 90 306
Width: 540
GlyphClass: 2
Flags: MW
HStem: 0 146<213 465> 553 142<102 343 83 573>
VStem: -24 597
AnchorPoint: "Anchor-14" 0 0 basechar 0
AnchorPoint: "Anchor-13" 0 0 basechar 0
AnchorPoint: "Anchor-12" 332 695 basechar 0
AnchorPoint: "Anchor-11" 0 0 basechar 0
AnchorPoint: "Anchor-10" 220 0 basechar 0
LayerCount: 2
Back
Fore
SplineSet
-24 0 m 1
 -6 137 l 1
 343 553 l 1
 83 553 l 1
 102 695 l 1
 573 695 l 1
 554 556 l 1
 213 146 l 1
 503 146 l 1
 465 0 l 1
 -24 0 l 1
EndSplineSet
Substitution2: "'c2sc' Capitals to Small Capitals lookup 27 subtable" z.sc
Substitution2: "'aalt' Access All Alternates lookup 0 subtable" z.sc
Position2: "'cpsp' Capital Spacing lookup 0 subtable" dx=5 dy=0 dh=10 dv=0
EndChar
StartChar: bracketleft
Encoding: 91 91 2148
Width: 314
Flags: MW
HStem: -125 130<151 244> 694 131<248 359 248 248>
VStem: -34 412
LayerCount: 2
Back
Fore
SplineSet
378 825 m 1
 359 694 l 1
 248 694 l 1
 151 5 l 1
 262 5 l 1
 244 -125 l 1
 -34 -125 l 1
 100 825 l 1
 378 825 l 1
EndSplineSet
Substitution2: "'case' Case-Sensitive Forms lookup 29 subtable" bracketleft.case
Substitution2: "'aalt' Access All Alternates lookup 0 subtable" bracketleft.case
EndChar
StartChar: backslash
Encoding: 92 92 2119
Width: 509
Flags: MW
HStem: -115 934<241 292>
VStem: 134 265
LayerCount: 2
Back
Fore
SplineSet
292 819 m 1
 399 -79 l 1
 241 -115 l 1
 134 783 l 1
 292 819 l 1
EndSplineSet
EndChar
StartChar: bracketright
Encoding: 93 93 2149
Width: 314
Flags: MW
HStem: -125 130<-21 91 -21 238 -40 91> 695 130<94 188 76 372>
VStem: -40 412
LayerCount: 2
Back
Fore
SplineSet
372 825 m 1
 238 -125 l 1
 -40 -125 l 1
 -21 5 l 1
 91 5 l 1
 188 695 l 1
 76 695 l 1
 94 825 l 1
 372 825 l 1
EndSplineSet
Substitution2: "'case' Case-Sensitive Forms lookup 29 subtable" bracketright.case
Substitution2: "'aalt' Access All Alternates lookup 0 subtable" bracketright.case
EndChar
StartChar: asciicircum
Encoding: 94 94 2389
Width: 553
GlyphClass: 2
Flags: MW
HStem: 527 319<47 437 47 437 411 437 278 579 411 411>
VStem: 47 532<527 527>
LayerCount: 2
Back
Fore
SplineSet
437 846 m 1
 579 527 l 1
 411 527 l 1
 340 715 l 1
 220 527 l 1
 47 527 l 1
 278 846 l 1
 437 846 l 1
EndSplineSet
EndChar

StartChar: underscore
Encoding: 95 95 997
Width: 509
Flags: MW
HStem: -179 136<-37 440 -56 459>
VStem: -56 515<-179 -43>
LayerCount: 2
Fore
SplineSet
-37 -43 m 1
 459 -43 l 1
 440 -179 l 1
 -56 -179 l 1
 -37 -43 l 1
EndSplineSet
EndChar
StartChar: grave
Encoding: 96 96 2524
Width: 345
Flags: MW
HStem: 686 20G<377 377> 694 20G<93 93>
VStem: 93 284<706 714>
LayerCount: 2
Back
Fore
SplineSet
177 846 m 1x60
 377 706 l 1
 319 618 l 1xa0
 93 714 l 1
 177 846 l 1x60
EndSplineSet
Substitution2: "'case' Case-Sensitive Forms lookup 29 subtable" grave.case
Substitution2: "'smcp' Lowercase to Small Capitals lookup 28 subtable" grave.sc
Substitution2: "'c2sc' Capitals to Small Capitals lookup 27 subtable" grave.sc
AlternateSubs2: "'aalt' Access All Alternates lookup 1 subtable" grave.sc grave.case
EndChar
StartChar: a
Encoding: 97 97 335
Width: 573
GlyphClass: 2
Flags: MW
HStem: -18 128<135.5 266.5> -15 21G<483 483> 427 124<277 334>
VStem: 18 180<161 245.5 161 273>
AnchorPoint: "Anchor-14" 0 0 basechar 0
AnchorPoint: "Anchor-13" 0 0 basechar 0
AnchorPoint: "Anchor-12" 345 533 basechar 0
AnchorPoint: "Anchor-11" 491 -15 basechar 0
AnchorPoint: "Anchor-10" 277 0 basechar 0
LayerCount: 2
Back
Fore
SplineSet
330 551 m 0x70
 403 551 484 534 557 492 c 1
 509 162 l 2
 508 153 507 146 507 139 c 0
 507 116 515 106 533 99 c 1
 483 -15 l 1x70
 422 -11 369 16 351 73 c 1
 315 20 265 -18 194 -18 c 0xb0
 77 -18 18 65 18 196 c 0
 18 350 100 551 330 551 c 0x70
324 427 m 0
 230 427 198 295 198 196 c 0
 198 126 222 110 251 110 c 0
 282 110 312 134 339 177 c 1xb0
 375 419 l 1
 357 425 344 427 324 427 c 0
EndSplineSet
Substitution2: "Single Substitution lookup 41 subtable" ordfeminine
Substitution2: "'smcp' Lowercase to Small Capitals lookup 28 subtable" a.sc
AlternateSubs2: "'aalt' Access All Alternates lookup 1 subtable" ordfeminine a.sc
EndChar
StartChar: b
Encoding: 98 98 371
Width: 582
GlyphClass: 2
Flags: MW
HStem: -18 128<252 308 252 373.5> 422 129<312 454.5> 531 20G<374 454.5> 741 20G<294 294>
VStem: 384 179<291 372>
AnchorPoint: "Anchor-14" 0 0 basechar 0
AnchorPoint: "Anchor-13" 0 0 basechar 0
AnchorPoint: "Anchor-12" 395 743 basechar 0
AnchorPoint: "Anchor-11" 0 0 basechar 0
AnchorPoint: "Anchor-10" 254 0 basechar 0
LayerCount: 2
Back
Fore
SplineSet
294 761 m 1xb8
 256 490 l 1
 293 527 348 551 400 551 c 0
 509 551 563 476 563 344 c 0
 563 190 503 -18 244 -18 c 0
 162 -18 88 -1 17 29 c 1
 117 743 l 1
 294 761 l 1xb8
328 422 m 0xd8
 296 422 266 402 239 365 c 1
 205 121 l 1
 221 114 240 110 264 110 c 0
 352 110 384 244 384 338 c 0
 384 406 359 422 328 422 c 0xd8
EndSplineSet
Substitution2: "'smcp' Lowercase to Small Capitals lookup 28 subtable" b.sc
Substitution2: "'aalt' Access All Alternates lookup 0 subtable" b.sc
EndChar

StartChar: c
Encoding: 99 99 147
Width: 469
GlyphClass: 2
Flags: MW
HStem: -18 138<255.5 291> 416 135<275.5 342>
VStem: 19 183<174.5 251.5 174.5 283>
AnchorPoint: "Anchor-11" 236 0 basechar 0
AnchorPoint: "Anchor-10" 0 0 basechar 0
AnchorPoint: "Anchor-9" 322 533 basechar 0
AnchorPoint: "Anchor-8" 0 0 basechar 0
LayerCount: 2
Fore
SplineSet
325 551 m 0
 395 551 455 526 500 480 c 1
 415 379 l 1
 386 406 358 416 326 416 c 0
 225 416 202 294 202 209 c 0
 202 140 233 120 278 120 c 0
 313 120 340 133 378 156 c 1
 442 44 l 1
 388 5 328 -18 254 -18 c 0
 105 -18 19 73 19 214 c 0
 19 352 103 551 325 551 c 0
EndSplineSet
Substitution2: "'smcp' Lowercase to Small Capitals lookup 24 subtable" c.sc
Substitution2: "'aalt' Access All Alternates lookup 0 subtable" c.sc
EndChar
StartChar: f
Encoding: 102 102 447
Width: 352
GlyphClass: 2
Flags: MW
HStem: -224 21G<-43 -43> 411 122<35 93 19 110 285 372> 632 129<341 373>
VStem: -86 587
AnchorPoint: "Anchor-14" 0 0 basechar 0
AnchorPoint: "Anchor-13" 0 0 basechar 0
AnchorPoint: "Anchor-12" 328 743 basechar 0
AnchorPoint: "Anchor-11" 0 0 basechar 0
AnchorPoint: "Anchor-10" 93 -213 basechar 0
LayerCount: 2
Back
Fore
SplineSet
362 632 m 0
 320 632 296 612 289 562 c 2
 285 533 l 1
 408 533 l 1
 372 411 l 1
 268 411 l 1
 220 67 l 2
 195 -114 89 -180 -43 -224 c 1
 -86 -97 l 1
 -9 -69 32 -33 45 59 c 2
 93 411 l 1
 19 411 l 1
 35 533 l 1
 110 533 l 1
 116 573 l 2
 130 679 209 761 346 761 c 0
 413 761 466 740 501 716 c 1
 441 611 l 1
 414 627 384 632 362 632 c 0
EndSplineSet
Substitution2: "'smcp' Lowercase to Small Capitals lookup 28 subtable" f.sc
Substitution2: "'locl' Localized Forms in Latin lookup 11 subtable" f.loclEWE
AlternateSubs2: "'aalt' Access All Alternates lookup 1 subtable" f.loclEWE f.sc
EndChar
StartChar: g
Encoding: 103 103 450
Width: 576
GlyphClass: 2
Flags: MW
HStem: -225 133<184.5 233 184.5 297.5> 0 21G<137 223.5> 0 131<137 270.5> 427 124<280.5 339.5>
VStem: 19 180<180.5 256 180.5 281>
AnchorPoint: "Anchor-14" 0 0 basechar 0
AnchorPoint: "Anchor-13" 0 0 basechar 0
AnchorPoint: "Anchor-12" 335 533 basechar 0
AnchorPoint: "Anchor-11" 0 0 basechar 0
AnchorPoint: "Anchor-10" 207 -213 basechar 0
LayerCount: 2
Back
Fore
SplineSet
335 551 m 0xd8
 408 551 489 534 562 492 c 1
 499 49 l 2
 471 -143 388 -225 207 -225 c 0
 141 -225 62 -202 3 -164 c 1
 60 -50 l 1
 115 -80 163 -92 206 -92 c 0
 260 -92 311 -76 325 19 c 2
 333 66 l 1
 299 27 252 0 195 0 c 0
 79 0 19 85 19 209 c 0
 19 353 101 551 335 551 c 0xd8
330 427 m 0
 231 427 199 298 199 214 c 0
 199 147 226 131 254 131 c 0
 287 131 318 157 346 196 c 1xb8
 380 419 l 1
 362 425 349 427 330 427 c 0
EndSplineSet
Substitution2: "'smcp' Lowercase to Small Capitals lookup 28 subtable" g.sc
Substitution2: "'aalt' Access All Alternates lookup 0 subtable" g.sc
EndChar

StartChar: i
Encoding: 105 105 176
Width: 277
GlyphClass: 2
Flags: MW
HStem: 0 21G<14 189 14 14> 513 20G<88 263 263 263> 624 196<184 219>
VStem: 101 201
AnchorPoint: "Anchor-11" 0 0 basechar 0
AnchorPoint: "Anchor-10" 0 0 basechar 0
AnchorPoint: "Anchor-9" 175 533 basechar 0
AnchorPoint: "Anchor-8" 167 0 basechar 0
LayerCount: 2
Fore
SplineSet
213 820 m 0
 274 820 309 776 302 718 c 0
 295 665 248 624 190 624 c 0
 130 624 94 668 101 725 c 1
 109 779 155 820 213 820 c 0
189 0 m 1
 14 0 l 1
 88 533 l 1
 263 533 l 1
 189 0 l 1
EndSplineSet
Substitution2: "'smcp' Lowercase to Small Capitals lookup 24 subtable" i.sc
Substitution2: "'locl' Localized Forms in Latin lookup 10 subtable" i.loclTRK
Substitution2: "'locl' Localized Forms in Latin lookup 8 subtable" i.loclTRK
Substitution2: "'locl' Localized Forms in Latin lookup 6 subtable" i.loclTRK
Substitution2: "'locl' Localized Forms in Latin lookup 3 subtable" i.loclTRK
Substitution2: "'locl' Localized Forms in Latin lookup 2 subtable" i.loclTRK
AlternateSubs2: "'aalt' Access All Alternates lookup 1 subtable" i.loclTRK i.sc
EndChar
StartChar: k
Encoding: 107 107 505
Width: 573
GlyphClass: 2
Flags: MW
HStem: 0 21G<13 189 13 13 338 529 338 338> 429 122<338.5 474> 531 20G<396 474> 741 20G<294 294>
VStem: 398 177<381 403>
AnchorPoint: "Anchor-14" 0 0 basechar 0
AnchorPoint: "Anchor-13" 0 0 basechar 0
AnchorPoint: "Anchor-12" 378 743 basechar 0
AnchorPoint: "Anchor-11" 0 0 basechar 0
AnchorPoint: "Anchor-10" 261 0 basechar 0
LayerCount: 2
Back
Fore
SplineSet
294 761 m 1xb8
 254 470 l 1
 308 528 364 551 428 551 c 0
 520 551 575 499 575 422 c 0
 575 340 531 278 437 237 c 1
 529 0 l 1
 338 0 l 1
 251 256 l 1
 365 294 398 339 398 390 c 0
 398 416 383 429 357 429 c 0
 320 429 278 402 234 333 c 1xd8
 189 0 l 1
 13 0 l 1
 117 743 l 1
 294 761 l 1xb8
EndSplineSet
Substitution2: "'smcp' Lowercase to Small Capitals lookup 28 subtable" k.sc
Substitution2: "'aalt' Access All Alternates lookup 0 subtable" k.sc
EndChar

StartChar: l
Encoding: 108 108 194
Width: 289
GlyphClass: 2
Flags: MW
HStem: -18 21G<110.5 177> 741 20G<289 289>
VStem: 26.33 178.67
AnchorPoint: "Anchor-11" 140 0 basechar 0
AnchorPoint: "Anchor-10" 0 0 basechar 0
AnchorPoint: "Anchor-9" 200 743 basechar 0
AnchorPoint: "Anchor-8" 0 0 basechar 0
LayerCount: 2
Fore
SplineSet
205 158 m 2
 201 129 210 122 225 122 c 0
 231 122 240 124 248 126 c 1
 266 2 l 1
 237 -11 196 -18 158 -18 c 0
 63 -18 14 39 29 146 c 2
 113 743 l 1
 289 761 l 1
 205 158 l 2
EndSplineSet
Substitution2: "'smcp' Lowercase to Small Capitals lookup 24 subtable" l.sc
Substitution2: "'aalt' Access All Alternates lookup 0 subtable" l.sc
EndChar

StartChar: n
Encoding: 110 110 201
Width: 564
GlyphClass: 2
Flags: MW
HStem: 0 21G<14 189 14 14 306 481 306 306> 406 127<88 342> 513 20G<88 240 240 240> 531 20G<385 459>
VStem: 360.12 177.35
AnchorPoint: "Anchor-11" 245 0 basechar 0
AnchorPoint: "Anchor-10" 80 533 basechar 0
AnchorPoint: "Anchor-9" 324 533 basechar 0
AnchorPoint: "Anchor-8" 0 0 basechar 0
LayerCount: 2
Fore
SplineSet
415 551 m 0x98
 503 551 549 491 535 390 c 2
 481 0 l 1
 306 0 l 1
 358 346 l 2
 366 395 352 406 332 406 c 0xc8
 303 406 265 360 229 285 c 1
 189 0 l 1
 14 0 l 1
 88 533 l 1
 240 533 l 1xa8
 239 442 l 1
 282 508 355 551 415 551 c 0x98
EndSplineSet
Substitution2: "'smcp' Lowercase to Small Capitals lookup 24 subtable" n.sc
Substitution2: "'aalt' Access All Alternates lookup 0 subtable" n.sc
EndChar
StartChar: q
Encoding: 113 113 599
Width: 574
GlyphClass: 2
Flags: MW
HStem: -225 21G<286 286> -18 128<134.5 269> 427 124<279.5 336.5>
VStem: 18 180<161 245.5 161 277>
AnchorPoint: "Anchor-14" 0 0 basechar 0
AnchorPoint: "Anchor-13" 0 0 basechar 0
AnchorPoint: "Anchor-12" 332 533 basechar 0
AnchorPoint: "Anchor-11" 0 0 basechar 0
AnchorPoint: "Anchor-10" 203 -213 basechar 0
LayerCount: 2
Back
Fore
SplineSet
333 551 m 0
 405 551 486 534 560 492 c 1
 462 -207 l 1
 286 -225 l 1
 324 41 l 1
 307 17 256 -18 191 -18 c 0
 78 -18 18 65 18 196 c 0
 18 358 102 551 333 551 c 0
327 427 m 0
 232 427 198 295 198 196 c 0
 198 126 223 110 253 110 c 0
 285 110 314 134 341 177 c 1
 377 419 l 1
 360 425 346 427 327 427 c 0
EndSplineSet
Substitution2: "'smcp' Lowercase to Small Capitals lookup 28 subtable" q.sc
Substitution2: "'aalt' Access All Alternates lookup 0 subtable" q.sc
EndChar
StartChar: r
Encoding: 114 114 603
Width: 396
GlyphClass: 2
Flags: MW
HStem: 0 21G<14 189 14 14> 376 157<88 354> 513 20G<88 240 240 240> 520 20G<441 441> 529 20G<361 399>
VStem: 14 427
AnchorPoint: "Anchor-14" 0 0 basechar 0
AnchorPoint: "Anchor-13" 0 0 basechar 0
AnchorPoint: "Anchor-12" 265 533 basechar 0
AnchorPoint: "Anchor-11" 0 0 basechar 0
AnchorPoint: "Anchor-10" 101 0 basechar 0
LayerCount: 2
Back
Fore
SplineSet
388 549 m 0x8c
 410 549 425 546 441 540 c 1x94
 392 368 l 1
 375 373 362 376 346 376 c 0xc4
 281 376 249 313 222 235 c 1
 189 0 l 1
 14 0 l 1
 88 533 l 1
 240 533 l 1xa4
 239 436 l 1
 274 506 334 549 388 549 c 0x8c
EndSplineSet
Substitution2: "'smcp' Lowercase to Small Capitals lookup 28 subtable" r.sc
Substitution2: "'aalt' Access All Alternates lookup 0 subtable" r.sc
EndChar
StartChar: t
Encoding: 116 116 634
Width: 383
GlyphClass: 2
Flags: MW
HStem: -18 140<148 272> 411 122<35 87 19 111 278 363>
VStem: 51.4 177.42
AnchorPoint: "Anchor-14" 189 266 basechar 0
AnchorPoint: "Anchor-13" 323 797 basechar 0
AnchorPoint: "Anchor-12" 219 649 basechar 0
AnchorPoint: "Anchor-11" 0 0 basechar 0
AnchorPoint: "Anchor-10" 191 0 basechar 0
LayerCount: 2
Back
Fore
SplineSet
263 122 m 0
 281 122 299 127 319 138 c 1
 364 22 l 1
 318 -5 257 -18 210 -18 c 0
 86 -18 37 54 55 187 c 2
 87 411 l 1
 19 411 l 1
 35 533 l 1
 111 533 l 1
 144 649 l 1
 297 667 l 1
 278 533 l 1
 397 533 l 1
 363 411 l 1
 262 411 l 1
 231 187 l 2
 223 136 236 122 263 122 c 0
EndSplineSet
Substitution2: "'smcp' Lowercase to Small Capitals lookup 28 subtable" t.sc
Substitution2: "'aalt' Access All Alternates lookup 0 subtable" t.sc
EndChar

StartChar: v
Encoding: 118 118 250
Width: 509
GlyphClass: 2
Flags: MW
HStem: 0 21G<116 325 116 116> 0 132<239 239 239 325 116 239> 513 20G<26 213 213 213 374 557 557 557>
VStem: 26 531<533 533>
LayerCount: 2
Fore
SplineSet
325 0 m 1xb0
 116 0 l 1
 26 533 l 1
 213 533 l 1
 239 132 l 1x70
 374 533 l 1
 557 533 l 1
 325 0 l 1xb0
EndSplineSet
Substitution2: "'smcp' Lowercase to Small Capitals lookup 24 subtable" v.sc
Substitution2: "'aalt' Access All Alternates lookup 0 subtable" v.sc
EndChar
StartChar: x
Encoding: 120 120 698
Width: 511
GlyphClass: 2
Flags: MW
HStem: 0 21G<-52 136 -52 -52 295 487 295 295> 513 20G<36 229 229 229 350 535 535 535>
VStem: -52 587<0 533>
AnchorPoint: "Anchor-14" 0 0 basechar 0
AnchorPoint: "Anchor-13" 0 0 basechar 0
AnchorPoint: "Anchor-12" 289 533 basechar 0
AnchorPoint: "Anchor-11" 0 0 basechar 0
AnchorPoint: "Anchor-10" 216 0 basechar 0
LayerCount: 2
Back
Fore
SplineSet
535 533 m 1
 364 281 l 1
 487 0 l 1
 295 0 l 1
 241 186 l 1
 136 0 l 1
 -52 0 l 1
 150 283 l 1
 36 533 l 1
 229 533 l 1
 269 369 l 1
 350 533 l 1
 535 533 l 1
EndSplineSet
Substitution2: "'smcp' Lowercase to Small Capitals lookup 28 subtable" x.sc
Substitution2: "'sups' Superscript lookup 15 subtable" uni02E3
AlternateSubs2: "'aalt' Access All Alternates lookup 1 subtable" uni02E3 x.sc
EndChar
StartChar: y
Encoding: 121 121 699
Width: 514
GlyphClass: 2
Flags: MW
HStem: -225 21G<-16 -16> 0 21G<106 106> 513 20G<26 208 208 208 379 562 562 562>
VStem: -20 582
AnchorPoint: "Anchor-14" 0 0 basechar 0
AnchorPoint: "Anchor-13" 0 0 basechar 0
AnchorPoint: "Anchor-12" 294 533 basechar 0
AnchorPoint: "Anchor-11" 0 0 basechar 0
AnchorPoint: "Anchor-10" 202 -213 basechar 0
LayerCount: 2
Back
Fore
SplineSet
562 533 m 1
 330 -1 l 2
 268 -142 155 -218 -16 -225 c 1
 -20 -102 l 1
 84 -91 129 -63 168 1 c 1
 106 0 l 1
 26 533 l 1
 208 533 l 1
 231 112 l 1
 379 533 l 1
 562 533 l 1
EndSplineSet
Substitution2: "'smcp' Lowercase to Small Capitals lookup 28 subtable" y.sc
Substitution2: "'aalt' Access All Alternates lookup 0 subtable" y.sc
EndChar
StartChar: z
Encoding: 122 122 712
Width: 455
GlyphClass: 2
Flags: MW
HStem: 0 133<206 390> 401 132<65 239 46 473>
VStem: -30 503
AnchorPoint: "Anchor-14" 0 0 basechar 0
AnchorPoint: "Anchor-13" 0 0 basechar 0
AnchorPoint: "Anchor-12" 269 533 basechar 0
AnchorPoint: "Anchor-11" 0 0 basechar 0
AnchorPoint: "Anchor-10" 180 0 basechar 0
LayerCount: 2
Back
Fore
SplineSet
473 533 m 1
 457 408 l 1
 206 133 l 1
 424 133 l 1
 390 0 l 1
 -30 0 l 1
 -14 125 l 1
 239 401 l 1
 46 401 l 1
 65 533 l 1
 473 533 l 1
EndSplineSet
Substitution2: "'smcp' Lowercase to Small Capitals lookup 28 subtable" z.sc
Substitution2: "'aalt' Access All Alternates lookup 0 subtable" z.sc
EndChar
StartChar: braceleft
Encoding: 123 123 2146
Width: 314
Flags: MW
HStem: -141 122<226.5 240> 277 146<23 28.5> 719 122<331.5 360>
VStem: 28.65 167.35 57.12 165.61
LayerCount: 2
Back
Fore
SplineSet
375 841 m 1xe8
 360 719 l 1
 303 719 288 702 282 661 c 2
 259 491 l 2
 245 397 201 366 129 348 c 1
 193 335 234 306 220 207 c 2xe8
 196 37 l 2
 190 -5 199 -19 254 -19 c 1
 240 -141 l 1xf0
 69 -141 16 -79 31 30 c 2
 54 196 l 2
 63 255 55 277 2 277 c 1
 23 423 l 1
 73 423 90 448 98 507 c 2
 121 673 l 2
 137 783 185 841 375 841 c 1xe8
EndSplineSet
Substitution2: "'case' Case-Sensitive Forms lookup 29 subtable" braceleft.case
Substitution2: "'aalt' Access All Alternates lookup 0 subtable" braceleft.case
EndChar

StartChar: bar
Encoding: 124 124 1218
Width: 357
Flags: MW
HStem: -106 917<173 208 45 336>
VStem: 45 291
LayerCount: 2
Fore
SplineSet
208 -106 m 1
 45 -106 l 1
 173 811 l 1
 336 811 l 1
 208 -106 l 1
EndSplineSet
EndChar
StartChar: braceright
Encoding: 125 125 2147
Width: 314
Flags: MW
HStem: -141 122<-22 6 -22 57.5> 277 146<309.5 315> 719 122<97 111>
VStem: 115.21 165.24 142 166.33
LayerCount: 2
Back
Fore
SplineSet
-38 -141 m 1xf0
 -22 -19 l 1
 34 -19 49 -2 55 39 c 2
 79 209 l 2
 92 303 136 334 209 352 c 1
 144 365 104 394 118 493 c 2xf0
 142 663 l 2
 147 705 139 719 83 719 c 1
 97 841 l 1xe8
 268 841 321 779 306 670 c 2
 283 504 l 2
 275 445 283 423 336 423 c 1
 315 277 l 1
 264 277 247 252 239 193 c 2
 216 27 l 2
 200 -83 153 -141 -38 -141 c 1xf0
EndSplineSet
Substitution2: "'case' Case-Sensitive Forms lookup 29 subtable" braceright.case
Substitution2: "'aalt' Access All Alternates lookup 0 subtable" braceright.case
EndChar
StartChar: asciitilde
Encoding: 126 126 2247
Width: 511
GlyphClass: 2
Flags: MW
HStem: 226 132<328 371.5 328 375.5> 287 131<154 198>
VStem: 12 503<283 360>
LayerCount: 2
Back
Fore
SplineSet
333 226 m 0xa0
 242 226 223 287 173 287 c 0
 135 287 118 261 98 231 c 1
 12 283 l 1
 53 351 109 418 194 418 c 0x60
 285 418 303 358 353 358 c 0
 390 358 408 383 428 413 c 1
 515 360 l 1
 474 292 418 226 333 226 c 0xa0
EndSplineSet
Substitution2: "'onum' Oldstyle Figures lookup 26 subtable" asciitilde.osf
Substitution2: "'tnum' Tabular Numbers lookup 25 subtable" asciitilde.tf
AlternateSubs2: "'aalt' Access All Alternates lookup 1 subtable" asciitilde.tf asciitilde.osf
EndChar

StartChar: exclamdown
Encoding: 161 161 988
Width: 226
Flags: MW
HStem: -206 21G<-43 141 -43 -43> 320 194<119.5 154>
VStem: 41 191<399.5 435.5>
LayerCount: 2
Fore
SplineSet
148 514 m 0
 197 514 232 476 232 428 c 0
 232 371 182 320 126 320 c 0
 76 320 41 359 41 408 c 0
 41 463 91 514 148 514 c 0
141 -206 m 1
 -43 -206 l 1
 42 232 l 1
 180 232 l 1
 141 -206 l 1
EndSplineSet
Substitution2: "'case' Case-Sensitive Forms lookup 25 subtable" exclamdown.case
Substitution2: "'aalt' Access All Alternates lookup 0 subtable" exclamdown.case
EndChar
StartChar: cent
Encoding: 162 162 2204
Width: 470
GlyphClass: 2
Flags: MW
HStem: -16 21G<293 293> -7 21G<171 171> 416 278<276 342.5>
VStem: 20 182<174.5 251.5 174.5 274.5>
LayerCount: 2
Back
Fore
SplineSet
379 156 m 1x70
 442 44 l 1
 398 12 350 -10 293 -16 c 1xb0
 271 -163 l 1
 149 -163 l 1
 171 -7 l 1
 74 21 20 102 20 214 c 0
 20 335 84 502 249 542 c 1
 270 694 l 1
 391 694 l 1
 371 548 l 1
 422 539 466 516 500 480 c 1
 416 379 l 1
 387 406 359 416 326 416 c 0
 226 416 202 294 202 209 c 0
 202 140 233 120 279 120 c 0
 314 120 341 133 379 156 c 1x70
EndSplineSet
Substitution2: "'onum' Oldstyle Figures lookup 26 subtable" cent.osf
Substitution2: "'tnum' Tabular Numbers lookup 25 subtable" cent.tf
AlternateSubs2: "'aalt' Access All Alternates lookup 1 subtable" cent.tf cent.osf
EndChar

StartChar: sterling
Encoding: 163 163 1067
Width: 547
Flags: MW
HStem: 0 132.5 307 89<57 111 44 123 295 456> 562 131<363 403.5> 568 20G<574 574>
VStem: -14 588
LayerCount: 2
Fore
SplineSet
376 693 m 0xe8
 470 693 533 657 574 588 c 1xd8
 461 514 l 1
 442 552 420 562 387 562 c 0
 339 562 314 537 307 485 c 2
 295 396 l 1
 470 396 l 1
 456 307 l 1
 283 307 l 1
 275 250 l 2
 267 198 252 161 195 132 c 1
 492 133 l 1
 454 0 l 1
 -14 0 l 1
 3 127 l 1
 84 148 95 184 101 243 c 1
 111 307 l 1
 44 307 l 1
 57 396 l 1
 123 396 l 1
 136 489 l 2
 153 612 233 693 376 693 c 0xe8
EndSplineSet
Substitution2: "'onum' Oldstyle Figures lookup 22 subtable" sterling.osf
Substitution2: "'tnum' Tabular Numbers lookup 21 subtable" sterling.tf
AlternateSubs2: "'aalt' Access All Alternates lookup 1 subtable" sterling.tf sterling.osf
EndChar
StartChar: yen
Encoding: 165 165 2214
Width: 567
GlyphClass: 2
Flags: MW
HStem: 0 200<161 188 60 334 161 161> 111 89<60 176 48 188 362 479> 265 89<82 172 82 198 69 172 422 500>
VStem: 47 590<678 678>
LayerCount: 2
Back
Fore
SplineSet
637 678 m 1xb0
 422 354 l 1
 513 354 l 1
 500 265 l 1
 372 265 l 1
 362 200 l 1
 492 200 l 1xb0
 479 111 l 1
 350 111 l 1x70
 334 0 l 1
 161 0 l 1xb0
 176 111 l 1
 48 111 l 1x70
 60 200 l 1
 188 200 l 1
 198 265 l 1
 69 265 l 1
 82 354 l 1
 172 354 l 1
 47 678 l 1
 228 678 l 1
 303 401 l 1
 454 678 l 1
 637 678 l 1xb0
EndSplineSet
Substitution2: "'onum' Oldstyle Figures lookup 26 subtable" yen.osf
Substitution2: "'tnum' Tabular Numbers lookup 25 subtable" yen.tf
AlternateSubs2: "'aalt' Access All Alternates lookup 1 subtable" yen.tf yen.osf
EndChar
StartChar: brokenbar
Encoding: 166 166 2377
Width: 357
GlyphClass: 2
Flags: MW
HStem: -106 917<173 208 45 336>
VStem: 45 291
LayerCount: 2
Back
Fore
SplineSet
336 811 m 1
 285 443 l 1
 121 443 l 1
 173 811 l 1
 336 811 l 1
260 262 m 1
 208 -106 l 1
 45 -106 l 1
 96 262 l 1
 260 262 l 1
EndSplineSet
EndChar
StartChar: dieresis
Encoding: 168 168 2522
Width: 467
Flags: MW
HStem: 637 172<165.5 196 400.5 431>
VStem: 95 172 329 172
LayerCount: 2
Back
Fore
SplineSet
190 809 m 0
 241 809 275 769 267 720 c 0
 261 674 221 637 171 637 c 0
 122 637 88 676 95 727 c 0
 101 772 141 809 190 809 c 0
425 809 m 0
 475 809 509 769 501 720 c 0
 495 674 456 637 406 637 c 0
 357 637 322 676 329 727 c 0
 335 772 376 809 425 809 c 0
EndSplineSet
Substitution2: "'case' Case-Sensitive Forms lookup 29 subtable" dieresis.case
Substitution2: "'smcp' Lowercase to Small Capitals lookup 28 subtable" dieresis.sc
Substitution2: "'c2sc' Capitals to Small Capitals lookup 27 subtable" dieresis.sc
AlternateSubs2: "'aalt' Access All Alternates lookup 1 subtable" dieresis.sc dieresis.case
EndChar

StartChar: ordfeminine
Encoding: 170 170 415
Width: 489
GlyphClass: 2
Flags: MW
HStem: 0 136<18 411 0 429> 262 111<140.5 251.5> 447 82<278 283 283 298> 584 111<269 277.5>
VStem: 56 159<391.5 415.5 391.5 419.5> 312 152<552.5 614>
LayerCount: 2
Fore
SplineSet
292 695 m 0
 412 695 464 654 464 574 c 0
 464 564 463 549 462 537 c 2
 443 410 l 2
 440 390 439 374 463 366 c 1
 419 266 l 1
 368 268 334 284 313 321 c 1
 276 277 227 262 180 262 c 0
 101 262 56 316 56 382 c 0
 56 457 107 529 278 529 c 2
 309 529 l 1
 310 536 l 2
 311 544 312 550 312 555 c 0
 312 579 297 584 258 584 c 0
 233 584 190 576 146 563 c 1
 124 663 l 1
 180 683 246 695 292 695 c 0
283 447 m 2
 236 447 215 431 215 400 c 0
 215 383 223 373 242 373 c 0
 261 373 279 382 291 395 c 1
 298 447 l 1
 283 447 l 2
18 136 m 1
 429 136 l 1
 411 0 l 1
 0 0 l 1
 18 136 l 1
EndSplineSet
EndChar
StartChar: guillemotleft
Encoding: 171 171 2177
Width: 633
Flags: MW
HStem: 5 558<183 258 258 461>
VStem: 23 614<228 490>
LayerCount: 2
Back
Fore
SplineSet
537 563 m 1
 637 490 l 1
 483 284 l 1
 578 78 l 1
 461 5 l 1
 302 228 l 1
 317 339 l 1
 537 563 l 1
258 563 m 1
 358 490 l 1
 204 284 l 1
 300 78 l 1
 183 5 l 1
 23 228 l 1
 38 339 l 1
 258 563 l 1
EndSplineSet
Substitution2: "'case' Case-Sensitive Forms lookup 29 subtable" guillemotleft.case
Substitution2: "'aalt' Access All Alternates lookup 0 subtable" guillemotleft.case
EndChar

StartChar: logicalnot
Encoding: 172 172 1105
Width: 528
Flags: MW
HStem: 262 136<61 343 42 505>
VStem: 42 463<262 398>
LayerCount: 2
Fore
SplineSet
463 105 m 1
 321 105 l 1
 343 262 l 1
 42 262 l 1
 61 398 l 1
 505 398 l 1
 463 105 l 1
EndSplineSet
Substitution2: "'onum' Oldstyle Figures lookup 22 subtable" logicalnot.osf
Substitution2: "'tnum' Tabular Numbers lookup 21 subtable" logicalnot.tf
AlternateSubs2: "'aalt' Access All Alternates lookup 1 subtable" logicalnot.tf logicalnot.osf
EndChar

StartChar: softhyphen
Encoding: 173 173 1028
Width: 398
Flags: MW
HStem: 245 136<53 358 34 377>
VStem: 34 343<245 381>
LayerCount: 2
Fore
SplineSet
53 381 m 1
 377 381 l 1
 358 245 l 1
 34 245 l 1
 53 381 l 1
EndSplineSet
Substitution2: "'case' Case-Sensitive Forms lookup 25 subtable" softhyphen.case
Substitution2: "'aalt' Access All Alternates lookup 0 subtable" softhyphen.case
EndChar
StartChar: uni00AD
Encoding: 173 173 2169
Width: 398
Flags: MW
HStem: 245 136<34 377 53 358>
VStem: 34 343<245 381>
LayerCount: 2
Back
Fore
SplineSet
34 245 m 1
 53 381 l 1
 377 381 l 1
 358 245 l 1
 34 245 l 1
EndSplineSet
Substitution2: "'case' Case-Sensitive Forms lookup 29 subtable" uni00AD.case
Substitution2: "'aalt' Access All Alternates lookup 0 subtable" uni00AD.case
EndChar

StartChar: macron
Encoding: 175 175 1261
Width: 364
Flags: MW
HStem: 652 121<81 408 98 391>
VStem: 81 327<652 773>
LayerCount: 2
Fore
SplineSet
81 652 m 1
 98 773 l 1
 408 773 l 1
 391 652 l 1
 81 652 l 1
EndSplineSet
Substitution2: "'case' Case-Sensitive Forms lookup 25 subtable" macron.case
Substitution2: "'smcp' Lowercase to Small Capitals lookup 24 subtable" macron.sc
Substitution2: "'c2sc' Capitals to Small Capitals lookup 23 subtable" macron.sc
AlternateSubs2: "'aalt' Access All Alternates lookup 1 subtable" macron.sc macron.case
EndChar
StartChar: degree
Encoding: 176 176 2385
Width: 509
GlyphClass: 2
Flags: MW
HStem: 366 101<218.5 258.5 218.5 271.5> 614 99<242.5 282.5>
VStem: 70.13 360.54
LayerCount: 2
Back
Fore
SplineSet
228 366 m 0
 139 366 56 434 72 544 c 0
 86 651 186 713 272 713 c 0
 361 713 444 648 429 537 c 0
 414 431 315 366 228 366 c 0
238 467 m 0
 279 467 308 500 314 544 c 0
 320 585 302 614 263 614 c 0
 222 614 193 582 187 538 c 0
 181 497 199 467 238 467 c 0
EndSplineSet
Substitution2: "'onum' Oldstyle Figures lookup 26 subtable" degree.osf
Substitution2: "'tnum' Tabular Numbers lookup 25 subtable" degree.tf
AlternateSubs2: "'aalt' Access All Alternates lookup 1 subtable" degree.tf degree.osf
EndChar

StartChar: twosuperior
Encoding: 178 178 972
Width: 389
Flags: MW
HStem: 320 97.5 657 96<183 207.5>
VStem: 232 132
LayerCount: 2
Fore
SplineSet
218 753 m 0
 328 753 374 687 364 619 c 0
 356 563 328 522 178 417 c 1
 344 418 l 1
 318 320 l 1
 17 320 l 1
 28 411 l 1
 187 538 226 571 232 614 c 0
 235 639 221 657 194 657 c 0
 165 657 144 643 117 615 c 1
 47 674 l 1
 89 720 148 753 218 753 c 0
EndSplineSet
EndChar

StartChar: threesuperior
Encoding: 179 179 973
Width: 389
Flags: MW
HStem: 307 96<143.5 174 143.5 216.5> 497 87<154 168 128 180> 522 20G 658 95<189 211>
VStem: 221 130 238 128
LayerCount: 2
Fore
SplineSet
221 753 m 0xd4
 325 753 374 703 366 640 c 1xd4
 358 592 326 559 257 542 c 1xb8
 318 538 361 506 351 433 c 1
 341 368 275 307 158 307 c 0
 82 307 33 336 4 378 c 1
 79 441 l 1
 103 413 129 403 158 403 c 0
 190 403 217 419 221 452 c 1
 226 483 209 497 168 497 c 2
 128 497 l 1
 154 584 l 1xd8
 180 584 l 2
 216 584 234 597 238 623 c 0
 241 644 225 658 197 658 c 0
 166 658 136 644 109 622 c 1
 54 693 l 1
 102 734 157 753 221 753 c 0xd4
EndSplineSet
EndChar

StartChar: acute
Encoding: 180 180 1252
Width: 341
Flags: MW
HStem: 618 228<125 328>
VStem: 90 287<707 714>
LayerCount: 2
Fore
SplineSet
377 714 m 1
 125 618 l 1
 90 707 l 1
 328 846 l 1
 377 714 l 1
EndSplineSet
Substitution2: "'case' Case-Sensitive Forms lookup 25 subtable" acute.case
Substitution2: "'smcp' Lowercase to Small Capitals lookup 24 subtable" acute.sc
Substitution2: "'c2sc' Capitals to Small Capitals lookup 23 subtable" acute.sc
Substitution2: "'locl' Localized Forms in Latin lookup 7 subtable" acute.loclPLK
AlternateSubs2: "'aalt' Access All Alternates lookup 1 subtable" acute.loclPLK acute.sc acute.case
EndChar

StartChar: uni00B5
Encoding: 181 181 1106
Width: 570
Flags: MW
HStem: -223 21G<-18 -18> -17 21G<336 336> -7 120<232.5 240.5> -1 21G<498 498> 513 20G<88 263 263 263 374 548 548 548>
VStem: 159 7.37 325 166.37
LayerCount: 2
Fore
SplineSet
499 182 m 2x9e
 488 100 490 40 498 -1 c 1x9e
 336 -17 l 1xce
 327 9 326 29 325 63 c 1
 296 16 263 -7 218 -7 c 0
 189 -7 170 1 159 11 c 1
 166 -19 171 -47 161 -119 c 2
 148 -206 l 1
 -18 -223 l 1
 88 533 l 1
 263 533 l 1
 211 164 l 2
 205 123 222 113 243 113 c 0
 268 113 297 129 323 168 c 1xae
 374 533 l 1
 548 533 l 1
 499 182 l 2x9e
EndSplineSet
EndChar
StartChar: paragraph
Encoding: 182 182 2380
Width: 793
GlyphClass: 2
Flags: MW
HStem: 573 122
VStem: 84.69 660.31
LayerCount: 2
Back
Fore
SplineSet
389 694 m 1
 745 695 l 1
 618 -206 l 1
 464 -226 l 1
 575 573 l 1
 491 573 l 1
 383 -206 l 1
 229 -226 l 1
 296 258 l 1
 140 261 70 351 87 479 c 0
 107 612 213 700 388 694 c 1
 388 693 l 1
 389 694 l 1
EndSplineSet
EndChar
StartChar: cedilla
Encoding: 184 184 2520
Width: 330
Flags: MW
HStem: -269 94<56 82.5 56 137> -116 132<32 159>
VStem: 119 123
LayerCount: 2
Back
Fore
SplineSet
159 16 m 1
 149 -45 l 1
 211 -53 242 -87 242 -138 c 0
 242 -192 201 -269 73 -269 c 0
 23 -269 -16 -253 -40 -235 c 1
 8 -158 l 1
 27 -169 44 -175 68 -175 c 0
 97 -175 118 -166 119 -144 c 0
 120 -123 95 -116 32 -116 c 1
 65 16 l 1
 159 16 l 1
EndSplineSet
Substitution2: "'case' Case-Sensitive Forms lookup 29 subtable" cedilla.case
Substitution2: "'smcp' Lowercase to Small Capitals lookup 28 subtable" cedilla.sc
Substitution2: "'c2sc' Capitals to Small Capitals lookup 27 subtable" cedilla.sc
AlternateSubs2: "'aalt' Access All Alternates lookup 1 subtable" cedilla.sc cedilla.case
EndChar

StartChar: onesuperior
Encoding: 185 185 971
Width: 389
Flags: MW
HStem: 723 20G<213 329 329 329>
VStem: 46 283<652 743>
LayerCount: 2
Fore
SplineSet
270 320 m 1
 145 320 l 1
 187 622 l 1
 92 566 l 1
 46 652 l 1
 213 743 l 1
 329 743 l 1
 270 320 l 1
EndSplineSet
EndChar

StartChar: ordmasculine
Encoding: 186 186 416
Width: 489
GlyphClass: 2
Flags: MW
HStem: 0 136<12 421 -7 440> 262 112<243 291.5 243 345.5> 583 112<258 306>
VStem: 56 158<412 460.5 412 491.5> 335 158<498.5 546.5>
LayerCount: 2
Fore
SplineSet
297 695 m 0
 416 695 493 633 493 517 c 0
 493 413 439 262 252 262 c 0
 134 262 56 324 56 438 c 0
 56 545 111 695 297 695 c 0
291 583 m 0
 225 583 214 488 214 433 c 0
 214 391 228 374 258 374 c 0
 325 374 335 471 335 526 c 0
 335 567 321 583 291 583 c 0
12 136 m 1
 440 136 l 1
 421 0 l 1
 -7 0 l 1
 12 136 l 1
EndSplineSet
EndChar

StartChar: guillemotright
Encoding: 187 187 1037
Width: 633
Flags: MW
HStem: 5 558<102 178 178 380>
VStem: 2 613<78 339>
LayerCount: 2
Fore
SplineSet
337 339 m 1
 322 228 l 1
 102 5 l 1
 2 78 l 1
 157 284 l 1
 60 490 l 1
 178 563 l 1
 337 339 l 1
615 339 m 1
 600 228 l 1
 380 5 l 1
 280 78 l 1
 434 284 l 1
 338 490 l 1
 455 563 l 1
 615 339 l 1
EndSplineSet
Substitution2: "'case' Case-Sensitive Forms lookup 25 subtable" guillemotright.case
Substitution2: "'aalt' Access All Alternates lookup 0 subtable" guillemotright.case
EndChar
StartChar: onequarter
Encoding: 188 188 2066
Width: 947
Flags: MW
HStem: 0 175<728 754 693 848 728 728> 81 94<693 739 872 902> 675 20G<206 322 322 322> 691 20G<788 788> 741 20G<695 695>
VStem: 39 877<175 604> 733.5 120
LayerCount: 2
Back
Fore
SplineSet
695 761 m 1x9c
 788 711 l 1
 272 -88 l 1
 178 -38 l 1
 695 761 l 1x9c
263 272 m 1
 138 272 l 1
 180 574 l 1
 85 518 l 1
 39 604 l 1
 206 695 l 1
 322 695 l 1xac
 263 272 l 1
916 175 m 1
 902 81 l 1
 859 81 l 1x5a
 848 0 l 1
 728 0 l 1x9a
 739 81 l 1x5a
 549 81 l 1
 561 166 l 1x5c
 715 433 l 1
 816 393 l 1
 693 175 l 1
 754 175 l 1
 791 266 l 1
 885 266 l 1
 872 175 l 1
 916 175 l 1
EndSplineSet
EndChar
StartChar: onehalf
Encoding: 189 189 2063
Width: 947
Flags: MW
HStem: 0 97.5 337 96<733 757.5> 675 20G<206 322 322 322> 691 20G<788 788> 741 20G<695 695>
VStem: 39 876.1 782 132
LayerCount: 2
Back
Fore
SplineSet
695 761 m 1xdc
 788 711 l 1
 272 -88 l 1
 178 -38 l 1
 695 761 l 1xdc
322 695 m 1xec
 263 272 l 1
 138 272 l 1
 180 574 l 1
 85 518 l 1
 39 604 l 1
 206 695 l 1
 322 695 l 1xec
768 433 m 0xda
 878 433 924 367 914 299 c 0
 906 243 878 202 728 97 c 1
 894 98 l 1
 868 0 l 1
 567 0 l 1
 578 91 l 1
 737 218 776 251 782 294 c 0
 785 319 771 337 744 337 c 0
 715 337 694 323 667 295 c 1
 597 354 l 1
 639 400 698 433 768 433 c 0xda
EndSplineSet
EndChar

StartChar: threequarters
Encoding: 190 190 929
Width: 947
Flags: MW
HStem: 0 175<728 754 693 848 728 728> 81 94<693 739 872 902> 259 96<136.5 167 136.5 209.5> 449 45 449 87<147 161 121 173> 610 95<182 204> 691 20G<788 788> 741 20G<695 695>
VStem: -3 919<175 330> 231 128 733.5 120
LayerCount: 2
Fore
SplineSet
788 711 m 1xab80
 272 -88 l 1
 178 -38 l 1
 695 761 l 1
 788 711 l 1xab80
344 385 m 1
 334 320 268 259 151 259 c 0
 75 259 26 288 -3 330 c 1
 72 393 l 1
 96 365 122 355 151 355 c 0
 183 355 210 371 214 404 c 1
 219 435 202 449 161 449 c 2
 121 449 l 1
 147 536 l 1
 173 536 l 2
 209 536 227 549 231 575 c 0
 234 596 218 610 190 610 c 0
 159 610 129 596 102 574 c 1
 47 645 l 1
 95 686 150 705 214 705 c 0
 318 705 367 655 359 592 c 1xad40
 351 544 319 511 250 494 c 1xb380
 311 490 354 458 344 385 c 1
902 81 m 1x6b80
 859 81 l 1x6b20
 848 0 l 1
 728 0 l 1xab20
 739 81 l 1x6b20
 549 81 l 1
 561 166 l 1x6b80
 715 433 l 1
 816 393 l 1
 693 175 l 1
 754 175 l 1
 791 266 l 1
 885 266 l 1
 872 175 l 1
 916 175 l 1xab80
 902 81 l 1x6b80
EndSplineSet
EndChar

StartChar: questiondown
Encoding: 191 191 992
Width: 478
Flags: MW
HStem: -225 139<183 219 183 219> 315 194<252 286.5>
VStem: -37 186<-60.5 -1.5 -60.5 24> 173 192<393 429.5> 187 159<150 210.5 118.5 211>
LayerCount: 2
Fore
SplineSet
258 315 m 0xf0
 209 315 173 353 173 401 c 0
 173 458 224 509 280 509 c 0
 330 509 365 470 365 421 c 0
 365 365 315 315 258 315 c 0xf0
166 -225 m 0xe8
 28 -225 -37 -157 -37 -75 c 0
 -37 123 187 92 187 208 c 0
 187 214 187 222 185 228 c 1
 339 251 l 1
 344 236 346 218 346 203 c 0
 346 34 149 46 149 -49 c 0
 149 -72 166 -86 200 -86 c 0
 238 -86 278 -65 318 -27 c 1
 416 -117 l 1
 351 -183 272 -225 166 -225 c 0xe8
EndSplineSet
Substitution2: "'case' Case-Sensitive Forms lookup 25 subtable" questiondown.case
Substitution2: "'aalt' Access All Alternates lookup 0 subtable" questiondown.case
EndChar

StartChar: Aacute
Encoding: 193 193 2
Width: 585
GlyphClass: 2
Flags: MW
HStem: 0 21G<-56 133 -56 -56 375 375 375 567> 142 132<228 355 228 364 182 355> 575 120<332 332> 675 20G<243 462 462 462>
VStem: -56 623<0 0>
AnchorPoint: "Anchor-11" 0 0 basechar 0
AnchorPoint: "Anchor-10" 81 533 basechar 0
AnchorPoint: "Anchor-9" 353 695 basechar 0
AnchorPoint: "Anchor-8" 490 0 basechar 0
LayerCount: 2
Fore
SplineSet
275 744 m 1xd8
 228 834 l 1
 455 971 l 1
 520 840 l 1
 275 744 l 1xd8
364 142 m 1
 182 142 l 1
 133 0 l 1
 -56 0 l 1
 243 695 l 1
 462 695 l 1
 567 0 l 1
 375 0 l 1
 364 142 l 1
355 274 m 1
 332 575 l 1xe8
 228 274 l 1
 355 274 l 1
EndSplineSet
Substitution2: "'c2sc' Capitals to Small Capitals lookup 23 subtable" aacute.sc
Substitution2: "'aalt' Access All Alternates lookup 0 subtable" aacute.sc
Position2: "'cpsp' Capital Spacing lookup 0 subtable" dx=5 dy=0 dh=10 dv=0
EndChar
StartChar: Acircumflex
Encoding: 194 194 11
Width: 585
GlyphClass: 2
Flags: MW
HStem: 0 21G<-56 133 -56 -56 375 567 375 375> 142 132<228 355 228 364 182 355> 575 120<332 332> 675 20G<243 462 462 462>
VStem: -56 623<0 0>
AnchorPoint: "Anchor-14" 0 0 basechar 0
AnchorPoint: "Anchor-13" 472 843 basechar 0
AnchorPoint: "Anchor-12" 382 959 basechar 0
AnchorPoint: "Anchor-11" 490 0 basechar 0
AnchorPoint: "Anchor-10" 254 0 basechar 0
LayerCount: 2
Back
Fore
SplineSet
369 839 m 1xd8
 225 753 l 1
 171 824 l 1
 330 959 l 1
 436 959 l 1
 557 824 l 1
 490 753 l 1
 369 839 l 1xd8
375 0 m 1
 364 142 l 1
 182 142 l 1
 133 0 l 1
 -56 0 l 1
 243 695 l 1
 462 695 l 1
 567 0 l 1
 375 0 l 1
228 274 m 1
 355 274 l 1
 332 575 l 1xe8
 228 274 l 1
EndSplineSet
Substitution2: "'c2sc' Capitals to Small Capitals lookup 27 subtable" acircumflex.sc
Substitution2: "'aalt' Access All Alternates lookup 0 subtable" acircumflex.sc
Position2: "'cpsp' Capital Spacing lookup 0 subtable" dx=5 dy=0 dh=10 dv=0
EndChar
StartChar: Atilde
Encoding: 195 195 32
Width: 585
GlyphClass: 2
Flags: MW
HStem: 0 21G<-56 133 -56 -56 375 567 375 375> 142 132<228 355 228 364 182 355> 575 120<332 332> 675 20G<243 462 462 462> 754 126<417.5 444 417.5 453> 798 126<177 353.5 303.5 330.5>
VStem: -56 627
AnchorPoint: "Anchor-14" 0 0 basechar 0
AnchorPoint: "Anchor-13" 0 0 basechar 0
AnchorPoint: "Anchor-12" 376 924 basechar 0
AnchorPoint: "Anchor-11" 490 0 basechar 0
AnchorPoint: "Anchor-10" 254 0 basechar 0
LayerCount: 2
Back
Fore
SplineSet
316 798 m 0xd6
 291 798 276 782 256 754 c 1
 177 798 l 1
 211 866 264 924 325 924 c 0xd6
 382 924 403 880 432 880 c 0
 456 880 472 896 492 924 c 1
 571 880 l 1
 536 810 482 754 424 754 c 0xda
 375 754 345 798 316 798 c 0xd6
243 695 m 1
 462 695 l 1
 567 0 l 1
 375 0 l 1
 364 142 l 1
 182 142 l 1
 133 0 l 1
 -56 0 l 1
 243 695 l 1
228 274 m 1
 355 274 l 1
 332 575 l 1xe6
 228 274 l 1
EndSplineSet
Substitution2: "'c2sc' Capitals to Small Capitals lookup 27 subtable" atilde.sc
Substitution2: "'aalt' Access All Alternates lookup 0 subtable" atilde.sc
Position2: "'cpsp' Capital Spacing lookup 0 subtable" dx=5 dy=0 dh=10 dv=0
EndChar
StartChar: Adieresis
Encoding: 196 196 18
Width: 585
GlyphClass: 2
Flags: MW
HStem: 0 21G<-56 133 -56 -56 375 567 375 375> 142 132<228 355 228 364 182 355> 575 120<332 332> 675 20G<243 462 462 462> 763 172<237.5 268 472.5 503>
VStem: 167 172 401 172
AnchorPoint: "Anchor-14" 0 0 basechar 0
AnchorPoint: "Anchor-13" 0 0 basechar 0
AnchorPoint: "Anchor-12" 380 935 basechar 0
AnchorPoint: "Anchor-11" 490 0 basechar 0
AnchorPoint: "Anchor-10" 254 0 basechar 0
LayerCount: 2
Back
Fore
SplineSet
243 763 m 0xde
 194 763 160 802 167 853 c 0
 173 898 213 935 262 935 c 0
 313 935 347 895 339 846 c 0
 333 800 293 763 243 763 c 0xde
497 935 m 0
 547 935 581 895 573 846 c 0
 567 800 528 763 478 763 c 0
 429 763 394 802 401 853 c 0
 407 898 448 935 497 935 c 0
243 695 m 1
 462 695 l 1
 567 0 l 1
 375 0 l 1
 364 142 l 1
 182 142 l 1
 133 0 l 1
 -56 0 l 1
 243 695 l 1
228 274 m 1
 355 274 l 1
 332 575 l 1xe4
 228 274 l 1
EndSplineSet
Substitution2: "'c2sc' Capitals to Small Capitals lookup 27 subtable" adieresis.sc
Substitution2: "'aalt' Access All Alternates lookup 0 subtable" adieresis.sc
Position2: "'cpsp' Capital Spacing lookup 0 subtable" dx=5 dy=0 dh=10 dv=0
EndChar
StartChar: Aring
Encoding: 197 197 29
Width: 585
GlyphClass: 2
Flags: MW
HStem: 0 21G<-56 133 -56 -56 375 567 375 375> 142 132<228 355 228 364 182 355> 575 120<332 332> 675 20G<243 462 462 462> 725 90<356.5 385 356.5 409> 914 89<367.5 396>
VStem: 231 100<841 868 841 888.5> 421 101<858.5 886.5>
AnchorPoint: "Anchor-14" 0 0 basechar 0
AnchorPoint: "Anchor-13" 0 0 basechar 0
AnchorPoint: "Anchor-12" 394 1003 basechar 0
AnchorPoint: "Anchor-11" 490 0 basechar 0
AnchorPoint: "Anchor-10" 254 0 basechar 0
LayerCount: 2
Back
Fore
SplineSet
359 725 m 0xdf
 277 725 231 778 231 850 c 0
 231 927 296 1003 394 1003 c 0
 476 1003 522 949 522 877 c 0
 522 799 459 725 359 725 c 0xdf
385 914 m 0
 350 914 331 882 331 854 c 0
 331 828 346 815 367 815 c 0
 403 815 421 844 421 873 c 0
 421 900 407 914 385 914 c 0
375 0 m 1
 364 142 l 1
 182 142 l 1
 133 0 l 1
 -56 0 l 1
 243 695 l 1
 462 695 l 1xd7
 567 0 l 1
 375 0 l 1
228 274 m 1
 355 274 l 1
 332 575 l 1xe7
 228 274 l 1
EndSplineSet
Substitution2: "'c2sc' Capitals to Small Capitals lookup 27 subtable" aring.sc
Substitution2: "'aalt' Access All Alternates lookup 0 subtable" aring.sc
Position2: "'cpsp' Capital Spacing lookup 0 subtable" dx=5 dy=0 dh=10 dv=0
EndChar

StartChar: Ccedilla
Encoding: 199 199 17
Width: 568
GlyphClass: 2
Flags: MW
HStem: -269 94<237.5 263.5 237.5 318.5> -17 21G<336 336> -17 139<336 336> -12 21G<239 239> 578 135<329 420.5>
VStem: 32 188<219.5 327.5 219.5 366> 300 124
AnchorPoint: "Anchor-11" 296 0 basechar 0
AnchorPoint: "Anchor-10" 0 0 basechar 0
AnchorPoint: "Anchor-9" 409 695 basechar 0
AnchorPoint: "Anchor-8" 0 0 basechar 0
LayerCount: 2
Fore
SplineSet
538 74 m 1xae
 488 30 418 -9 336 -17 c 1
 331 -45 l 1xce
 393 -53 424 -87 424 -138 c 0
 424 -191 383 -269 254 -269 c 0
 205 -269 166 -253 141 -235 c 1
 190 -158 l 1
 208 -169 226 -175 249 -175 c 0
 278 -175 299 -166 300 -144 c 0
 301 -123 277 -116 213 -116 c 1
 239 -12 l 1x9e
 109 12 32 109 32 270 c 0
 32 462 128 713 395 713 c 0
 488 713 558 682 607 627 c 1
 507 530 l 1
 477 561 443 578 398 578 c 0
 260 578 220 384 220 271 c 0
 220 168 262 122 332 122 c 0
 385 122 427 150 470 182 c 1
 538 74 l 1xae
EndSplineSet
Substitution2: "'c2sc' Capitals to Small Capitals lookup 23 subtable" ccedilla.sc
Substitution2: "'aalt' Access All Alternates lookup 0 subtable" ccedilla.sc
Position2: "'cpsp' Capital Spacing lookup 0 subtable" dx=5 dy=0 dh=10 dv=0
EndChar

StartChar: Egrave
Encoding: 200 200 31
Width: 514
GlyphClass: 2
Flags: MW
HStem: 0 131<216 448> 289 127<256 443 239 459> 564 131<277 510 277 277>
VStem: 17 530
AnchorPoint: "Anchor-11" 232 0 basechar 0
AnchorPoint: "Anchor-10" -30 534 basechar 0
AnchorPoint: "Anchor-9" 332 695 basechar 0
AnchorPoint: "Anchor-8" 418 0 basechar 0
LayerCount: 2
Fore
SplineSet
503 835 m 1
 454 745 l 1
 212 840 l 1
 281 972 l 1
 503 835 l 1
510 564 m 1
 277 564 l 1
 256 416 l 1
 459 416 l 1
 443 289 l 1
 239 289 l 1
 216 131 l 1
 466 131 l 1
 448 0 l 1
 17 0 l 1
 114 695 l 1
 547 695 l 1
 510 564 l 1
EndSplineSet
Substitution2: "'c2sc' Capitals to Small Capitals lookup 23 subtable" egrave.sc
Substitution2: "'aalt' Access All Alternates lookup 0 subtable" egrave.sc
Position2: "'cpsp' Capital Spacing lookup 0 subtable" dx=5 dy=0 dh=10 dv=0
EndChar

StartChar: Ecircumflex
Encoding: 202 202 28
Width: 514
GlyphClass: 2
Flags: MW
HStem: 0 131<216 448> 289 127<256 443 239 459> 564 131<277 510 277 277>
VStem: 17 530
AnchorPoint: "Anchor-11" 232 0 basechar 0
AnchorPoint: "Anchor-10" -30 534 basechar 0
AnchorPoint: "Anchor-9" 332 695 basechar 0
AnchorPoint: "Anchor-8" 418 0 basechar 0
LayerCount: 2
Fore
SplineSet
359 839 m 1
 215 753 l 1
 161 824 l 1
 320 959 l 1
 426 959 l 1
 547 824 l 1
 480 753 l 1
 359 839 l 1
510 564 m 1
 277 564 l 1
 256 416 l 1
 459 416 l 1
 443 289 l 1
 239 289 l 1
 216 131 l 1
 466 131 l 1
 448 0 l 1
 17 0 l 1
 114 695 l 1
 547 695 l 1
 510 564 l 1
EndSplineSet
Substitution2: "'c2sc' Capitals to Small Capitals lookup 23 subtable" ecircumflex.sc
Substitution2: "'aalt' Access All Alternates lookup 0 subtable" ecircumflex.sc
Position2: "'cpsp' Capital Spacing lookup 0 subtable" dx=5 dy=0 dh=10 dv=0
EndChar

StartChar: Edieresis
Encoding: 203 203 29
Width: 514
GlyphClass: 2
Flags: MW
HStem: 0 131<216 448> 289 127<256 443 239 459> 564 131<277 510 277 277> 763 172<222.5 250 457 485>
VStem: 150 172 384 172
AnchorPoint: "Anchor-11" 232 0 basechar 0
AnchorPoint: "Anchor-10" -30 534 basechar 0
AnchorPoint: "Anchor-9" 355 871 basechar 0
AnchorPoint: "Anchor-8" 418 0 basechar 0
LayerCount: 2
Fore
SplineSet
246 935 m 0
 296 935 330 895 322 846 c 1
 316 800 274 763 226 763 c 0
 177 763 143 802 150 853 c 0
 156 898 199 935 246 935 c 0
480 935 m 0
 531 935 564 895 556 846 c 1
 550 800 509 763 461 763 c 0
 412 763 377 802 384 853 c 0
 390 898 434 935 480 935 c 0
510 564 m 1
 277 564 l 1
 256 416 l 1
 459 416 l 1
 443 289 l 1
 239 289 l 1
 216 131 l 1
 466 131 l 1
 448 0 l 1
 17 0 l 1
 114 695 l 1
 547 695 l 1
 510 564 l 1
EndSplineSet
Substitution2: "'c2sc' Capitals to Small Capitals lookup 23 subtable" edieresis.sc
Substitution2: "'aalt' Access All Alternates lookup 0 subtable" edieresis.sc
Position2: "'cpsp' Capital Spacing lookup 0 subtable" dx=5 dy=0 dh=10 dv=0
EndChar
StartChar: Igrave
Encoding: 204 204 126
Width: 289
GlyphClass: 2
Flags: MW
HStem: 0 21G<17 198 17 17> 675 20G<114 295 295 295>
VStem: 17 356
AnchorPoint: "Anchor-14" 0 0 basechar 0
AnchorPoint: "Anchor-13" 0 0 basechar 0
AnchorPoint: "Anchor-12" 229 972 basechar 0
AnchorPoint: "Anchor-11" 168 0 basechar 0
AnchorPoint: "Anchor-10" 107 0 basechar 0
LayerCount: 2
Back
Fore
SplineSet
151 972 m 1
 373 835 l 1
 324 745 l 1
 82 840 l 1
 151 972 l 1
295 695 m 1
 198 0 l 1
 17 0 l 1
 114 695 l 1
 295 695 l 1
EndSplineSet
Substitution2: "'c2sc' Capitals to Small Capitals lookup 27 subtable" igrave.sc
Substitution2: "'aalt' Access All Alternates lookup 0 subtable" igrave.sc
Position2: "'cpsp' Capital Spacing lookup 0 subtable" dx=5 dy=0 dh=10 dv=0
EndChar

StartChar: Iacute
Encoding: 205 205 45
Width: 289
GlyphClass: 2
Flags: MW
HStem: 0 21G<17 199 17 17> 675 20G<114 296 296 296>
VStem: 17 355
AnchorPoint: "Anchor-11" 0 0 basechar 0
AnchorPoint: "Anchor-10" -30 534 basechar 0
AnchorPoint: "Anchor-9" 205 695 basechar 0
AnchorPoint: "Anchor-8" 172 0 basechar 0
LayerCount: 2
Fore
SplineSet
372 840 m 1
 127 744 l 1
 80 834 l 1
 307 971 l 1
 372 840 l 1
199 0 m 1
 17 0 l 1
 114 695 l 1
 296 695 l 1
 199 0 l 1
EndSplineSet
Substitution2: "'c2sc' Capitals to Small Capitals lookup 23 subtable" iacute.sc
Substitution2: "'aalt' Access All Alternates lookup 0 subtable" iacute.sc
Position2: "'cpsp' Capital Spacing lookup 0 subtable" dx=5 dy=0 dh=10 dv=0
EndChar

StartChar: Icircumflex
Encoding: 206 206 47
Width: 289
GlyphClass: 2
Flags: MW
HStem: 0 21G<17 199 17 17> 675 20G<114 296 296 296>
VStem: 17 403
AnchorPoint: "Anchor-11" 0 0 basechar 0
AnchorPoint: "Anchor-10" -30 534 basechar 0
AnchorPoint: "Anchor-9" 205 695 basechar 0
AnchorPoint: "Anchor-8" 172 0 basechar 0
LayerCount: 2
Fore
SplineSet
232 839 m 1
 88 753 l 1
 34 824 l 1
 193 959 l 1
 299 959 l 1
 420 824 l 1
 353 753 l 1
 232 839 l 1
199 0 m 1
 17 0 l 1
 114 695 l 1
 296 695 l 1
 199 0 l 1
EndSplineSet
Substitution2: "'c2sc' Capitals to Small Capitals lookup 23 subtable" icircumflex.sc
Substitution2: "'aalt' Access All Alternates lookup 0 subtable" icircumflex.sc
Position2: "'cpsp' Capital Spacing lookup 0 subtable" dx=5 dy=0 dh=10 dv=0
EndChar
StartChar: Idieresis
Encoding: 207 207 122
Width: 289
GlyphClass: 2
Flags: MW
HStem: 0 21G<17 198 17 17> 675 20G<114 295 295 295> 763 172<89.5 120 324.5 355>
VStem: 19 172 253 172
AnchorPoint: "Anchor-14" 0 0 basechar 0
AnchorPoint: "Anchor-13" 0 0 basechar 0
AnchorPoint: "Anchor-12" 232 935 basechar 0
AnchorPoint: "Anchor-11" 168 0 basechar 0
AnchorPoint: "Anchor-10" 107 0 basechar 0
LayerCount: 2
Back
Fore
SplineSet
114 935 m 0
 165 935 199 895 191 846 c 0
 185 800 145 763 95 763 c 0
 46 763 12 802 19 853 c 0
 25 898 65 935 114 935 c 0
349 935 m 0
 399 935 433 895 425 846 c 0
 419 800 380 763 330 763 c 0
 281 763 246 802 253 853 c 0
 259 898 300 935 349 935 c 0
295 695 m 1
 198 0 l 1
 17 0 l 1
 114 695 l 1
 295 695 l 1
EndSplineSet
Substitution2: "'c2sc' Capitals to Small Capitals lookup 27 subtable" idieresis.sc
Substitution2: "'aalt' Access All Alternates lookup 0 subtable" idieresis.sc
Position2: "'cpsp' Capital Spacing lookup 0 subtable" dx=5 dy=0 dh=10 dv=0
EndChar

StartChar: Eth
Encoding: 208 208 21
Width: 653
GlyphClass: 2
Flags: MW
HStem: 0 132<226 244> 299 108<32 68 17 83 264 380> 563 132<286 325 325 334 286 286>
VStem: 457 186<367.5 483.5>
AnchorPoint: "Anchor-11" 0 0 basechar 0
AnchorPoint: "Anchor-10" 0 0 basechar 0
AnchorPoint: "Anchor-9" 358 695 basechar 0
AnchorPoint: "Anchor-8" 0 0 basechar 0
LayerCount: 2
Fore
SplineSet
325 695 m 2
 492 695 643 645 643 431 c 0
 643 204 548 0 244 0 c 2
 26 0 l 1
 68 299 l 1
 17 299 l 1
 32 407 l 1
 83 407 l 1
 123 695 l 1
 325 695 l 2
271 132 m 2
 424 132 457 305 457 430 c 0
 457 537 409 563 334 563 c 2
 286 563 l 1
 264 407 l 1
 394 407 l 1
 380 299 l 1
 249 299 l 1
 226 132 l 1
 271 132 l 2
EndSplineSet
Substitution2: "'c2sc' Capitals to Small Capitals lookup 23 subtable" eth.sc
Substitution2: "'aalt' Access All Alternates lookup 0 subtable" eth.sc
Position2: "'cpsp' Capital Spacing lookup 0 subtable" dx=5 dy=0 dh=10 dv=0
EndChar
StartChar: Ntilde
Encoding: 209 209 169
Width: 646
GlyphClass: 2
Flags: MW
HStem: 0 21G<17 176 17 17 326 556 326 326> 0 152<449 449 449 556 326 449> 542 153<220 220> 675 20G<114 340 340 340 493 653 653 653> 754 126<450.5 477 450.5 486> 798 126<210 386.5 336.5 363.5>
VStem: 17 636
AnchorPoint: "Anchor-14" 0 0 basechar 0
AnchorPoint: "Anchor-13" 0 0 basechar 0
AnchorPoint: "Anchor-12" 409 924 basechar 0
AnchorPoint: "Anchor-11" 0 0 basechar 0
AnchorPoint: "Anchor-10" 287 0 basechar 0
LayerCount: 2
Back
Fore
SplineSet
457 754 m 0x9a
 408 754 378 798 349 798 c 0
 324 798 309 782 289 754 c 1
 210 798 l 1
 244 866 297 924 358 924 c 0x96
 415 924 436 880 465 880 c 0
 489 880 505 896 525 924 c 1
 604 880 l 1
 569 810 515 754 457 754 c 0x9a
653 695 m 1x56
 556 0 l 1
 326 0 l 1
 220 542 l 1xa6
 224 456 227 362 208 225 c 2
 176 0 l 1
 17 0 l 1
 114 695 l 1
 340 695 l 1
 449 152 l 1
 444 250 441 326 459 452 c 2
 493 695 l 1
 653 695 l 1x56
EndSplineSet
Substitution2: "'c2sc' Capitals to Small Capitals lookup 27 subtable" ntilde.sc
Substitution2: "'aalt' Access All Alternates lookup 0 subtable" ntilde.sc
Position2: "'cpsp' Capital Spacing lookup 0 subtable" dx=5 dy=0 dh=10 dv=0
EndChar

StartChar: Oacute
Encoding: 211 211 72
Width: 680
GlyphClass: 2
Flags: MW
HStem: -18 133<284 386 284 444> 580 133<317 419>
VStem: 32 187<200.5 303 200.5 361> 483 188<392 495.5>
AnchorPoint: "Anchor-11" 0 0 basechar 0
AnchorPoint: "Anchor-10" 1 534 basechar 0
AnchorPoint: "Anchor-9" 401 695 basechar 0
AnchorPoint: "Anchor-8" 0 0 basechar 0
LayerCount: 2
Fore
SplineSet
568 840 m 1
 323 744 l 1
 276 834 l 1
 503 971 l 1
 568 840 l 1
400 713 m 0
 575 713 671 608 671 427 c 0
 671 241 586 -18 302 -18 c 0
 128 -18 32 88 32 267 c 0
 32 455 119 713 400 713 c 0
387 580 m 0
 247 580 219 358 219 248 c 0
 219 153 252 115 316 115 c 0
 456 115 483 335 483 449 c 0
 483 542 451 580 387 580 c 0
EndSplineSet
Substitution2: "'c2sc' Capitals to Small Capitals lookup 23 subtable" oacute.sc
Substitution2: "'locl' Localized Forms in Latin lookup 7 subtable" Oacute.loclPLK
AlternateSubs2: "'aalt' Access All Alternates lookup 1 subtable" Oacute.loclPLK oacute.sc
Position2: "'cpsp' Capital Spacing lookup 0 subtable" dx=5 dy=0 dh=10 dv=0
EndChar
StartChar: Otilde
Encoding: 213 213 207
Width: 680
GlyphClass: 2
Flags: MW
HStem: -18 133<284 386 284 444> 580 133<317 419> 754 126<465.5 492 465.5 501> 798 126<225 401.5 351.5 378.5>
VStem: 32 187<203 305.5 203 361> 483 188<389 492.5>
AnchorPoint: "Anchor-14" 0 0 basechar 0
AnchorPoint: "Anchor-13" 636 695 basechar 0
AnchorPoint: "Anchor-12" 424 924 basechar 0
AnchorPoint: "Anchor-11" 0 0 basechar 0
AnchorPoint: "Anchor-10" 303 0 basechar 0
LayerCount: 2
Back
Fore
SplineSet
472 754 m 0xec
 423 754 393 798 364 798 c 0
 339 798 324 782 304 754 c 1
 225 798 l 1
 259 866 312 924 373 924 c 0xdc
 430 924 451 880 480 880 c 0
 504 880 520 896 540 924 c 1
 619 880 l 1
 584 810 530 754 472 754 c 0xec
400 713 m 0
 575 713 671 608 671 427 c 0
 671 241 586 -18 302 -18 c 0
 128 -18 32 88 32 267 c 0
 32 455 119 713 400 713 c 0
387 580 m 0
 247 580 219 358 219 253 c 0
 219 153 252 115 316 115 c 0
 456 115 483 335 483 443 c 0
 483 542 451 580 387 580 c 0
EndSplineSet
Substitution2: "'c2sc' Capitals to Small Capitals lookup 27 subtable" otilde.sc
Substitution2: "'aalt' Access All Alternates lookup 0 subtable" otilde.sc
Position2: "'cpsp' Capital Spacing lookup 0 subtable" dx=5 dy=0 dh=10 dv=0
EndChar
StartChar: Odieresis
Encoding: 214 214 183
Width: 680
GlyphClass: 2
Flags: MW
HStem: -18 133<284 386 284 444> 580 133<317 419> 763 172<285.5 316 520.5 551>
VStem: 32 187<203 305.5 203 361> 215 172 449 172 483 188<389 492.5>
AnchorPoint: "Anchor-14" 0 0 basechar 0
AnchorPoint: "Anchor-13" 636 695 basechar 0
AnchorPoint: "Anchor-12" 428 935 basechar 0
AnchorPoint: "Anchor-11" 0 0 basechar 0
AnchorPoint: "Anchor-10" 303 0 basechar 0
LayerCount: 2
Back
Fore
SplineSet
310 935 m 0xec
 361 935 395 895 387 846 c 0
 381 800 341 763 291 763 c 0
 242 763 208 802 215 853 c 0
 221 898 261 935 310 935 c 0xec
545 935 m 0
 595 935 629 895 621 846 c 0
 615 800 576 763 526 763 c 0
 477 763 442 802 449 853 c 0
 455 898 496 935 545 935 c 0
400 713 m 0xd2
 575 713 671 608 671 427 c 0
 671 241 586 -18 302 -18 c 0
 128 -18 32 88 32 267 c 0
 32 455 119 713 400 713 c 0xd2
387 580 m 0
 247 580 219 358 219 253 c 0
 219 153 252 115 316 115 c 0
 456 115 483 335 483 443 c 0
 483 542 451 580 387 580 c 0
EndSplineSet
Substitution2: "'c2sc' Capitals to Small Capitals lookup 27 subtable" odieresis.sc
Substitution2: "'aalt' Access All Alternates lookup 0 subtable" odieresis.sc
Position2: "'cpsp' Capital Spacing lookup 0 subtable" dx=5 dy=0 dh=10 dv=0
EndChar

StartChar: multiply
Encoding: 215 215 1110
Width: 513
Flags: MW
HStem: 95 423<121 178 178 347>
VStem: 38 448<191 421>
LayerCount: 2
Fore
SplineSet
486 421 m 1
 354 306 l 1
 453 191 l 1
 347 95 l 1
 250 212 l 1
 121 95 l 1
 38 191 l 1
 170 306 l 1
 70 421 l 1
 178 518 l 1
 275 400 l 1
 403 518 l 1
 486 421 l 1
EndSplineSet
Substitution2: "'onum' Oldstyle Figures lookup 22 subtable" multiply.osf
Substitution2: "'tnum' Tabular Numbers lookup 21 subtable" multiply.tf
AlternateSubs2: "'aalt' Access All Alternates lookup 1 subtable" multiply.tf multiply.osf
EndChar

StartChar: Ucircumflex
Encoding: 219 219 104
Width: 637
GlyphClass: 2
Flags: MW
HStem: -18 135<261.5 328 261.5 372.5> 675 20G<104 285 285 285 471 653 653 653>
VStem: 35.98 182.04
AnchorPoint: "Anchor-11" 0 0 basechar 0
AnchorPoint: "Anchor-10" 0 0 basechar 0
AnchorPoint: "Anchor-9" 378 695 basechar 0
AnchorPoint: "Anchor-8" 409 0 basechar 0
LayerCount: 2
Fore
SplineSet
406 839 m 1
 262 753 l 1
 208 824 l 1
 367 959 l 1
 473 959 l 1
 594 824 l 1
 527 753 l 1
 406 839 l 1
589 232 m 2
 569 91 464 -18 281 -18 c 0
 94 -18 19 85 39 235 c 1
 104 695 l 1
 285 695 l 1
 221 238 l 2
 209 155 229 117 294 117 c 0
 362 117 395 158 407 241 c 2
 471 695 l 1
 653 695 l 1
 589 232 l 2
EndSplineSet
Substitution2: "'c2sc' Capitals to Small Capitals lookup 23 subtable" ucircumflex.sc
Substitution2: "'aalt' Access All Alternates lookup 0 subtable" ucircumflex.sc
Position2: "'cpsp' Capital Spacing lookup 0 subtable" dx=5 dy=0 dh=10 dv=0
EndChar
StartChar: Udieresis
Encoding: 220 220 260
Width: 637
GlyphClass: 2
Flags: MW
HStem: -18 135<261.5 328 261.5 372.5> 675 20G<104 285 285 285 471 653 653 653> 763 172<263.5 294 498.5 529>
VStem: 35.98 182.04 193 172 427 172
AnchorPoint: "Anchor-14" 0 0 basechar 0
AnchorPoint: "Anchor-13" 663 695 basechar 0
AnchorPoint: "Anchor-12" 406 935 basechar 0
AnchorPoint: "Anchor-11" 409 0 basechar 0
AnchorPoint: "Anchor-10" 281 0 basechar 0
LayerCount: 2
Back
Fore
SplineSet
288 935 m 0xec
 339 935 373 895 365 846 c 0
 359 800 319 763 269 763 c 0
 220 763 186 802 193 853 c 0
 199 898 239 935 288 935 c 0xec
523 935 m 0
 573 935 607 895 599 846 c 0
 593 800 554 763 504 763 c 0
 455 763 420 802 427 853 c 0
 433 898 474 935 523 935 c 0
653 695 m 1
 589 232 l 2
 569 91 464 -18 281 -18 c 0
 94 -18 19 85 39 235 c 2
 104 695 l 1
 285 695 l 1
 221 238 l 2
 209 155 229 117 294 117 c 0xf0
 362 117 395 158 407 241 c 2
 471 695 l 1
 653 695 l 1
EndSplineSet
Substitution2: "'c2sc' Capitals to Small Capitals lookup 27 subtable" udieresis.sc
Substitution2: "'aalt' Access All Alternates lookup 0 subtable" udieresis.sc
Position2: "'cpsp' Capital Spacing lookup 0 subtable" dx=5 dy=0 dh=10 dv=0
EndChar
StartChar: Thorn
Encoding: 222 222 215
Width: 595
GlyphClass: 2
Flags: MW
HStem: 0 21G<17 198 17 17> 110 132<232 283 283 285 214 283> 459 130<280 313 262 331> 675 20G<114 295 295 295>
VStem: 406 188<353.5 406.5>
LayerCount: 2
Back
Fore
SplineSet
331 589 m 2
 495 589 594 524 594 386 c 0
 594 270 526 110 285 110 c 2
 214 110 l 1
 198 0 l 1
 17 0 l 1
 114 695 l 1
 295 695 l 1
 280 589 l 1
 331 589 l 2
283 242 m 2
 383 242 406 326 406 381 c 0
 406 432 376 459 313 459 c 2
 262 459 l 1
 232 242 l 1
 283 242 l 2
EndSplineSet
Substitution2: "'c2sc' Capitals to Small Capitals lookup 27 subtable" thorn.sc
Substitution2: "'aalt' Access All Alternates lookup 0 subtable" thorn.sc
Position2: "'cpsp' Capital Spacing lookup 0 subtable" dx=5 dy=0 dh=10 dv=0
EndChar
StartChar: germandbls
Encoding: 223 223 629
Width: 593
GlyphClass: 2
Flags: MW
HStem: -224 21G<-69 -69> -18 135<319 352 319 422.5> 638 123<316 352>
VStem: 271 156<390.5 443> 380 168<559.5 611> 390 180<168.5 222.5>
LayerCount: 2
Back
Fore
SplineSet
427 424 m 0xf0
 427 357 570 342 570 190 c 0
 570 96 505 -18 340 -18 c 0
 292 -18 247 -5 216 12 c 1
 281 128 l 1
 296 120 312 117 326 117 c 0
 378 117 390 158 390 179 c 0xe4
 390 266 271 276 271 381 c 0xf0
 271 505 380 510 380 599 c 0
 380 623 365 638 339 638 c 0
 293 638 268 603 259 536 c 2
 193 67 l 2
 168 -114 62 -180 -69 -224 c 1
 -112 -97 l 1
 -41 -71 4 -39 15 41 c 2
 84 533 l 2
 103 675 198 761 355 761 c 0
 483 761 548 696 548 615 c 0xe8
 548 504 427 490 427 424 c 0xf0
EndSplineSet
Substitution2: "'smcp' Lowercase to Small Capitals lookup 28 subtable" germandbls.sc
Substitution2: "'aalt' Access All Alternates lookup 0 subtable" germandbls.sc
EndChar

StartChar: agrave
Encoding: 224 224 139
Width: 573
GlyphClass: 2
Flags: MW
HStem: -18 128<134.5 265.5> -15 21G<482 482> 427 124<276 333> 686 20G<520 520> 694 20G<237 237>
VStem: 18 179<161 245.5 161 273>
AnchorPoint: "Anchor-11" 0 0 basechar 0
AnchorPoint: "Anchor-10" 0 0 basechar 0
AnchorPoint: "Anchor-9" 344 533 basechar 0
AnchorPoint: "Anchor-8" 490 -15 basechar 0
LayerCount: 2
Fore
SplineSet
520 706 m 1x74
 462 618 l 1xb4
 237 714 l 1x6c
 321 846 l 1
 520 706 l 1x74
329 551 m 0
 402 551 483 534 556 492 c 1
 508 162 l 2
 507 153 506 146 506 139 c 0
 506 116 514 106 532 99 c 1
 482 -15 l 1x6c
 421 -11 368 16 350 73 c 1
 315 20 265 -18 193 -18 c 0
 76 -18 18 65 18 196 c 0
 18 350 99 551 329 551 c 0
323 427 m 0
 229 427 197 295 197 196 c 0
 197 126 221 110 250 110 c 0
 281 110 311 134 338 177 c 1
 374 419 l 1
 356 425 343 427 323 427 c 0
EndSplineSet
Substitution2: "'smcp' Lowercase to Small Capitals lookup 24 subtable" agrave.sc
Substitution2: "'aalt' Access All Alternates lookup 0 subtable" agrave.sc
EndChar

StartChar: atilde
Encoding: 227 227 143
Width: 573
GlyphClass: 2
Flags: MW
HStem: -18 128<134.5 265.5> -15 21G<482 482> 427 124<276 333> 628 126<412.5 439 412.5 448> 672 126<172 348.5 298.5 325.5>
VStem: 18 179<161 245.5 161 273>
AnchorPoint: "Anchor-11" 0 0 basechar 0
AnchorPoint: "Anchor-10" 0 0 basechar 0
AnchorPoint: "Anchor-9" 344 533 basechar 0
AnchorPoint: "Anchor-8" 490 -15 basechar 0
LayerCount: 2
Fore
SplineSet
419 628 m 0x74
 370 628 340 672 311 672 c 0x6c
 286 672 271 656 251 628 c 1x74
 172 672 l 1x6c
 206 740 259 798 320 798 c 0
 377 798 398 754 427 754 c 0
 451 754 467 770 487 798 c 1
 566 754 l 1
 531 684 477 628 419 628 c 0x74
329 551 m 0
 402 551 483 534 556 492 c 1
 508 162 l 2
 507 153 506 146 506 139 c 0
 506 116 514 106 532 99 c 1
 482 -15 l 1x74
 421 -11 368 16 350 73 c 1
 315 20 265 -18 193 -18 c 0xb4
 76 -18 18 65 18 196 c 0
 18 350 99 551 329 551 c 0
323 427 m 0
 229 427 197 295 197 196 c 0
 197 126 221 110 250 110 c 0
 281 110 311 134 338 177 c 1xb4
 374 419 l 1
 356 425 343 427 323 427 c 0
EndSplineSet
Substitution2: "'smcp' Lowercase to Small Capitals lookup 24 subtable" atilde.sc
Substitution2: "'aalt' Access All Alternates lookup 0 subtable" atilde.sc
EndChar
StartChar: aring
Encoding: 229 229 363
Width: 573
GlyphClass: 2
Flags: MW
HStem: -18 128<135.5 266.5> -15 21G<483 483> 427 124<277 334> 599 90<353.5 382 353.5 406> 788 89<364.5 393>
VStem: 18 180<161 245.5 161 273> 228 100<715 742 715 762.5> 418 101<732.5 760.5>
AnchorPoint: "Anchor-14" 0 0 basechar 0
AnchorPoint: "Anchor-13" 0 0 basechar 0
AnchorPoint: "Anchor-12" 386 877 basechar 0
AnchorPoint: "Anchor-11" 491 -15 basechar 0
AnchorPoint: "Anchor-10" 277 0 basechar 0
LayerCount: 2
Back
Fore
SplineSet
391 877 m 0x7d
 473 877 519 823 519 751 c 0
 519 673 456 599 356 599 c 0
 274 599 228 652 228 724 c 0x7f
 228 801 293 877 391 877 c 0x7d
382 788 m 0x7f
 347 788 328 756 328 728 c 0
 328 702 343 689 364 689 c 0
 400 689 418 718 418 747 c 0
 418 774 404 788 382 788 c 0x7f
330 551 m 0
 403 551 484 534 557 492 c 1
 509 162 l 2
 508 153 507 146 507 139 c 0
 507 116 515 106 533 99 c 1
 483 -15 l 1x7d
 422 -11 369 16 351 73 c 1
 315 20 265 -18 194 -18 c 0
 77 -18 18 65 18 196 c 0xbd
 18 350 100 551 330 551 c 0
324 427 m 0xbd
 230 427 198 295 198 196 c 0
 198 126 222 110 251 110 c 0
 282 110 312 134 339 177 c 1
 375 419 l 1
 357 425 344 427 324 427 c 0xbd
EndSplineSet
Substitution2: "'smcp' Lowercase to Small Capitals lookup 28 subtable" aring.sc
Substitution2: "'aalt' Access All Alternates lookup 0 subtable" aring.sc
EndChar
StartChar: ccedilla
Encoding: 231 231 383
Width: 470
GlyphClass: 2
Flags: MW
HStem: -269 94<185 211.5 185 265.5> -17 21G<283 283> -17 137<283 283> -11 21G<186 186> 416 135<276 342.5>
VStem: 20 182<174.5 251.5 174.5 283> 247 124
AnchorPoint: "Anchor-14" 0 0 basechar 0
AnchorPoint: "Anchor-13" 0 0 basechar 0
AnchorPoint: "Anchor-12" 323 533 basechar 0
AnchorPoint: "Anchor-11" 0 0 basechar 0
AnchorPoint: "Anchor-10" 219 -269 basechar 0
LayerCount: 2
Back
Fore
SplineSet
442 44 m 1xae
 396 10 344 -12 283 -17 c 1
 278 -45 l 1xce
 340 -53 371 -87 371 -138 c 0
 371 -192 330 -269 201 -269 c 0
 152 -269 113 -253 88 -235 c 1
 137 -158 l 1
 155 -169 173 -175 197 -175 c 0
 226 -175 246 -166 247 -144 c 0
 248 -123 224 -116 160 -116 c 1
 186 -11 l 1x9e
 79 13 20 96 20 214 c 0
 20 352 104 551 325 551 c 0
 396 551 456 526 500 480 c 1
 416 379 l 1
 387 406 359 416 326 416 c 0
 226 416 202 294 202 209 c 0
 202 140 233 120 279 120 c 0
 314 120 341 133 379 156 c 1
 442 44 l 1xae
EndSplineSet
Substitution2: "'smcp' Lowercase to Small Capitals lookup 28 subtable" ccedilla.sc
Substitution2: "'aalt' Access All Alternates lookup 0 subtable" ccedilla.sc
EndChar

StartChar: eacute
Encoding: 233 233 158
Width: 538
GlyphClass: 2
Flags: MW
HStem: -18 128<258.5 302.5> 436 115<279 329.5>
VStem: 20 175 359 176<375.5 403.5>
AnchorPoint: "Anchor-11" 252 0 basechar 0
AnchorPoint: "Anchor-10" 0 0 basechar 0
AnchorPoint: "Anchor-9" 316 533 basechar 0
AnchorPoint: "Anchor-8" 402 10 basechar 0
LayerCount: 2
Fore
SplineSet
223 618 m 1
 188 707 l 1
 426 846 l 1
 475 714 l 1
 223 618 l 1
535 402 m 0
 535 253 355 207 195 192 c 1
 199 130 235 110 282 110 c 0
 327 110 366 126 416 159 c 1
 478 55 l 1
 419 13 346 -18 259 -18 c 0
 96 -18 20 74 20 209 c 0
 20 354 99 551 329 551 c 0
 463 551 535 486 535 402 c 0
202 296 m 1
 330 304 359 360 359 391 c 0
 359 416 348 436 311 436 c 0
 247 436 215 366 202 296 c 1
EndSplineSet
Substitution2: "'smcp' Lowercase to Small Capitals lookup 24 subtable" eacute.sc
Substitution2: "'aalt' Access All Alternates lookup 0 subtable" eacute.sc
EndChar

StartChar: edieresis
Encoding: 235 235 162
Width: 538
GlyphClass: 2
Flags: MW
HStem: -18 128<258.5 302.5> 436 115<279 329.5> 637 172<206.5 234 441 469>
VStem: 20 175 134 172 359 176<375.5 403.5> 368 172
AnchorPoint: "Anchor-11" 252 0 basechar 0
AnchorPoint: "Anchor-10" 0 0 basechar 0
AnchorPoint: "Anchor-9" 339 745 basechar 0
AnchorPoint: "Anchor-8" 402 10 basechar 0
LayerCount: 2
Fore
SplineSet
210 637 m 0xea
 161 637 127 676 134 727 c 0
 140 772 183 809 230 809 c 0
 280 809 314 769 306 720 c 1
 300 674 258 637 210 637 c 0xea
464 809 m 0
 515 809 548 769 540 720 c 1
 534 674 493 637 445 637 c 0
 396 637 361 676 368 727 c 0
 374 772 418 809 464 809 c 0
329 551 m 0xf4
 463 551 535 486 535 402 c 0
 535 253 355 207 195 192 c 1
 199 130 235 110 282 110 c 0
 327 110 366 126 416 159 c 1
 478 55 l 1
 419 13 346 -18 259 -18 c 0
 96 -18 20 74 20 209 c 0
 20 354 99 551 329 551 c 0xf4
202 296 m 1
 330 304 359 360 359 391 c 0
 359 416 348 436 311 436 c 0
 247 436 215 366 202 296 c 1
EndSplineSet
Substitution2: "'smcp' Lowercase to Small Capitals lookup 24 subtable" edieresis.sc
Substitution2: "'aalt' Access All Alternates lookup 0 subtable" edieresis.sc
EndChar
StartChar: igrave
Encoding: 236 236 488
Width: 277
GlyphClass: 2
Flags: MW
HStem: 0 21G<14 189 14 14> 513 20G<88 263 263 263> 690 20G<355 355> 694 20G<71 71>
VStem: 14 341
AnchorPoint: "Anchor-14" 0 0 basechar 0
AnchorPoint: "Anchor-13" 0 0 basechar 0
AnchorPoint: "Anchor-12" 215 846 basechar 0
AnchorPoint: "Anchor-11" 161 0 basechar 0
AnchorPoint: "Anchor-10" 101 0 basechar 0
LayerCount: 2
Back
Fore
SplineSet
149 850 m 1xd8
 355 710 l 1
 302 620 l 1xe8
 71 714 l 1
 149 850 l 1xd8
263 533 m 1
 189 0 l 1
 14 0 l 1
 88 533 l 1
 263 533 l 1
EndSplineSet
Substitution2: "'smcp' Lowercase to Small Capitals lookup 28 subtable" igrave.sc
Substitution2: "'aalt' Access All Alternates lookup 0 subtable" igrave.sc
EndChar
StartChar: iacute
Encoding: 237 237 479
Width: 277
GlyphClass: 2
Flags: MW
HStem: 0 21G<14 189 14 14> 513 20G<88 263 263 263>
VStem: 14 333
AnchorPoint: "Anchor-14" 0 0 basechar 0
AnchorPoint: "Anchor-13" 0 0 basechar 0
AnchorPoint: "Anchor-12" 206 846 basechar 0
AnchorPoint: "Anchor-11" 161 0 basechar 0
AnchorPoint: "Anchor-10" 101 0 basechar 0
LayerCount: 2
Back
Fore
SplineSet
298 846 m 1
 347 714 l 1
 95 618 l 1
 60 707 l 1
 298 846 l 1
263 533 m 1
 189 0 l 1
 14 0 l 1
 88 533 l 1
 263 533 l 1
EndSplineSet
Substitution2: "'smcp' Lowercase to Small Capitals lookup 28 subtable" iacute.sc
Substitution2: "'aalt' Access All Alternates lookup 0 subtable" iacute.sc
EndChar

StartChar: icircumflex
Encoding: 238 238 180
Width: 277
GlyphClass: 2
Flags: MW
HStem: 0 21G<14 189 14 14> 513 20G<88 263 263 263>
VStem: 4 386<687 687>
AnchorPoint: "Anchor-11" 0 0 basechar 0
AnchorPoint: "Anchor-10" 0 0 basechar 0
AnchorPoint: "Anchor-9" 175 533 basechar 0
AnchorPoint: "Anchor-8" 167 0 basechar 0
LayerCount: 2
Fore
SplineSet
4 687 m 1
 164 831 l 1
 270 831 l 1
 390 687 l 1
 321 616 l 1
 203 710 l 1
 58 616 l 1
 4 687 l 1
189 0 m 1
 14 0 l 1
 88 533 l 1
 263 533 l 1
 189 0 l 1
EndSplineSet
Substitution2: "'smcp' Lowercase to Small Capitals lookup 24 subtable" icircumflex.sc
Substitution2: "'aalt' Access All Alternates lookup 0 subtable" icircumflex.sc
EndChar
StartChar: idieresis
Encoding: 239 239 484
Width: 277
GlyphClass: 2
Flags: MW
HStem: 0 21G<14 189 14 14> 513 20G<88 263 263 263> 637 172<69.5 99 303.5 334>
VStem: -2 172 232 172
AnchorPoint: "Anchor-14" 0 0 basechar 0
AnchorPoint: "Anchor-13" 0 0 basechar 0
AnchorPoint: "Anchor-12" 204 809 basechar 0
AnchorPoint: "Anchor-11" 161 0 basechar 0
AnchorPoint: "Anchor-10" 101 0 basechar 0
LayerCount: 2
Back
Fore
SplineSet
94 809 m 0
 144 809 178 769 170 720 c 0
 164 674 124 637 74 637 c 0
 25 637 -9 676 -2 727 c 0
 4 772 45 809 94 809 c 0
328 809 m 0
 379 809 412 769 404 720 c 0
 398 674 359 637 309 637 c 0
 260 637 225 676 232 727 c 0
 238 772 279 809 328 809 c 0
263 533 m 1
 189 0 l 1
 14 0 l 1
 88 533 l 1
 263 533 l 1
EndSplineSet
Substitution2: "'smcp' Lowercase to Small Capitals lookup 28 subtable" idieresis.sc
Substitution2: "'aalt' Access All Alternates lookup 0 subtable" idieresis.sc
EndChar
StartChar: eth
Encoding: 240 240 391
Width: 572
GlyphClass: 2
Flags: MW
HStem: -18 128<239 289 239 331> 358 123<254.5 286 176 312.5> 555 20G<147 147> 740 20G<173 173>
VStem: 17 178<161 222.5 161 260.5> 373 179
AnchorPoint: "Anchor-14" 0 0 basechar 0
AnchorPoint: "Anchor-13" 0 0 basechar 0
AnchorPoint: "Anchor-12" 308 743 basechar 0
AnchorPoint: "Anchor-11" 0 0 basechar 0
AnchorPoint: "Anchor-10" 246 0 basechar 0
LayerCount: 2
Back
Fore
SplineSet
411 670 m 1
 512 591 552 494 552 374 c 0
 552 343 550 311 544 277 c 0
 522 116 416 -18 246 -18 c 0
 114 -18 17 59 17 196 c 0
 17 325 93 481 259 481 c 0
 313 481 350 465 382 438 c 1
 372 493 351 535 307 576 c 1
 249 524 l 1
 147 575 l 1
 204 628 l 1
 175 637 148 643 126 647 c 1
 173 760 l 1
 218 753 257 744 309 724 c 1
 394 804 l 1
 472 727 l 1
 411 670 l 1
259 110 m 0
 319 110 350 164 364 256 c 0
 368 280 371 303 373 326 c 1
 354 347 329 358 296 358 c 0
 213 358 195 255 195 190 c 0
 195 132 219 110 259 110 c 0
EndSplineSet
Substitution2: "'smcp' Lowercase to Small Capitals lookup 28 subtable" eth.sc
Substitution2: "'aalt' Access All Alternates lookup 0 subtable" eth.sc
EndChar

StartChar: ntilde
Encoding: 241 241 207
Width: 564
GlyphClass: 2
Flags: MW
HStem: 0 21G<14 189 14 14 306 481 306 306> 406 127<88 342> 513 20G<88 240 240 240> 531 20G<385 459> 628 126<393.5 420 393.5 429> 672 126<153 329.5 279.5 306.5>
VStem: 360.12 177.35
AnchorPoint: "Anchor-11" 245 0 basechar 0
AnchorPoint: "Anchor-10" 80 533 basechar 0
AnchorPoint: "Anchor-9" 324 533 basechar 0
AnchorPoint: "Anchor-8" 0 0 basechar 0
LayerCount: 2
Fore
SplineSet
400 628 m 0x9a
 351 628 321 672 292 672 c 0x96
 267 672 252 656 232 628 c 1x9a
 153 672 l 1x96
 187 740 240 798 301 798 c 0
 358 798 379 754 408 754 c 0
 432 754 448 770 468 798 c 1
 547 754 l 1
 512 684 458 628 400 628 c 0x9a
415 551 m 0
 503 551 549 491 535 390 c 2
 481 0 l 1
 306 0 l 1
 358 346 l 2
 366 395 352 406 332 406 c 0xca
 303 406 265 360 229 285 c 1
 189 0 l 1
 14 0 l 1
 88 533 l 1
 240 533 l 1xaa
 239 442 l 1
 282 508 355 551 415 551 c 0
EndSplineSet
Substitution2: "'smcp' Lowercase to Small Capitals lookup 24 subtable" ntilde.sc
Substitution2: "'aalt' Access All Alternates lookup 0 subtable" ntilde.sc
EndChar

StartChar: ograve
Encoding: 242 242 213
Width: 573
GlyphClass: 2
Flags: MW
HStem: -18 129<240.5 309.5 240.5 362.5> 422 129<262.5 331.5> 686 20G<493 493> 694 20G<210 210>
VStem: 20 179<168 237.5 168 287> 373 179
AnchorPoint: "Anchor-11" 0 0 basechar 0
AnchorPoint: "Anchor-10" 0 0 basechar 0
AnchorPoint: "Anchor-9" 316 533 basechar 0
AnchorPoint: "Anchor-8" 0 0 basechar 0
LayerCount: 2
Fore
SplineSet
493 706 m 1xec
 435 618 l 1xec
 210 714 l 1xdc
 294 846 l 1
 493 706 l 1xec
323 551 m 0
 468 551 553 463 552 323 c 0
 551 170 477 -18 248 -18 c 0
 104 -18 20 67 20 210 c 0
 20 364 95 551 323 551 c 0
310 422 m 0
 215 422 199 275 199 200 c 0
 199 136 219 111 262 111 c 0
 357 111 372 258 373 333 c 0
 374 396 353 422 310 422 c 0
EndSplineSet
Substitution2: "'smcp' Lowercase to Small Capitals lookup 24 subtable" ograve.sc
Substitution2: "'aalt' Access All Alternates lookup 0 subtable" ograve.sc
EndChar
StartChar: otilde
Encoding: 245 245 588
Width: 573
GlyphClass: 2
Flags: MW
HStem: -18 129<240.5 309.5 240.5 362.5> 422 129<262.5 331.5> 628 126<385.5 412 385.5 421> 672 126<145 321.5 271.5 298.5>
VStem: 20 179<168 237.5 168 287> 373 179
AnchorPoint: "Anchor-14" 0 0 basechar 0
AnchorPoint: "Anchor-13" 537 533 basechar 0
AnchorPoint: "Anchor-12" 344 798 basechar 0
AnchorPoint: "Anchor-11" 0 0 basechar 0
AnchorPoint: "Anchor-10" 252 0 basechar 0
LayerCount: 2
Back
Fore
SplineSet
392 628 m 0xec
 343 628 313 672 284 672 c 0xdc
 259 672 244 656 224 628 c 1xec
 145 672 l 1xdc
 179 740 232 798 293 798 c 0
 350 798 371 754 400 754 c 0
 424 754 440 770 460 798 c 1
 539 754 l 1
 504 684 450 628 392 628 c 0xec
323 551 m 0
 468 551 553 463 552 323 c 0
 551 170 477 -18 248 -18 c 0
 104 -18 20 67 20 210 c 0
 20 364 95 551 323 551 c 0
310 422 m 0
 215 422 199 275 199 200 c 0
 199 136 219 111 262 111 c 0
 357 111 372 258 373 333 c 0
 374 396 353 422 310 422 c 0
EndSplineSet
Substitution2: "'smcp' Lowercase to Small Capitals lookup 28 subtable" otilde.sc
Substitution2: "'aalt' Access All Alternates lookup 0 subtable" otilde.sc
EndChar
StartChar: odieresis
Encoding: 246 246 563
Width: 573
GlyphClass: 2
Flags: MW
HStem: -18 129<240.5 309.5 240.5 362.5> 422 129<262.5 331.5> 637 172<210.5 240 444.5 475>
VStem: 20 179<168 237.5 168 287> 139 172 373 172 373 179
AnchorPoint: "Anchor-14" 0 0 basechar 0
AnchorPoint: "Anchor-13" 537 533 basechar 0
AnchorPoint: "Anchor-12" 345 809 basechar 0
AnchorPoint: "Anchor-11" 0 0 basechar 0
AnchorPoint: "Anchor-10" 252 0 basechar 0
LayerCount: 2
Back
Fore
SplineSet
235 809 m 0xec
 285 809 319 769 311 720 c 0
 305 674 265 637 215 637 c 0
 166 637 132 676 139 727 c 0
 145 772 186 809 235 809 c 0xec
469 809 m 0
 520 809 553 769 545 720 c 0
 539 674 500 637 450 637 c 0
 401 637 366 676 373 727 c 0
 379 772 420 809 469 809 c 0
323 551 m 0xf2
 468 551 553 463 552 323 c 0
 551 170 477 -18 248 -18 c 0
 104 -18 20 67 20 210 c 0
 20 364 95 551 323 551 c 0xf2
310 422 m 0
 215 422 199 275 199 200 c 0
 199 136 219 111 262 111 c 0
 357 111 372 258 373 333 c 0
 374 396 353 422 310 422 c 0
EndSplineSet
Substitution2: "'smcp' Lowercase to Small Capitals lookup 28 subtable" odieresis.sc
Substitution2: "'aalt' Access All Alternates lookup 0 subtable" odieresis.sc
EndChar
StartChar: divide
Encoding: 247 247 2249
Width: 513
GlyphClass: 2
Flags: MW
HStem: -10 21G<198 253> -10 194<215 253> 264 136<42 490 61 471> 481 193<283 321>
VStem: 138 191<69 106> 206 192<559 596.5>
LayerCount: 2
Back
Fore
SplineSet
313 674 m 0xb4
 362 674 398 639 398 588 c 0
 398 530 351 481 291 481 c 0
 241 481 206 517 206 568 c 0
 206 625 253 674 313 674 c 0xb4
42 264 m 1
 61 400 l 1
 490 400 l 1
 471 264 l 1
 42 264 l 1
245 184 m 0x78
 294 184 329 148 329 98 c 0
 329 40 283 -10 223 -10 c 0
 173 -10 138 26 138 78 c 0
 138 134 185 184 245 184 c 0x78
EndSplineSet
Substitution2: "'onum' Oldstyle Figures lookup 26 subtable" divide.osf
Substitution2: "'tnum' Tabular Numbers lookup 25 subtable" divide.tf
AlternateSubs2: "'aalt' Access All Alternates lookup 1 subtable" divide.tf divide.osf
EndChar
StartChar: oslash
Encoding: 248 248 586
Width: 573
GlyphClass: 2
Flags: MW
HStem: -18 129<256 264 264 314 256 362.5> 422 129<258.5 310 310 318>
VStem: 20 161<192 239 192 287> 390 162
AnchorPoint: "Anchor-14" 0 0 basechar 0
AnchorPoint: "Anchor-13" 0 0 basechar 0
AnchorPoint: "Anchor-12" 324 533 basechar 0
AnchorPoint: "Anchor-11" 0 0 basechar 0
AnchorPoint: "Anchor-10" 253 0 basechar 0
LayerCount: 2
Back
Fore
SplineSet
167 -136 m 1
 46 -99 l 1
 103 26 l 1
 50 66 20 131 20 210 c 0
 20 364 95 551 323 551 c 0
 333 551 344 551 354 549 c 1
 408 670 l 1
 530 632 l 1
 469 506 l 1
 523 466 553 400 552 323 c 0
 551 170 477 -18 248 -18 c 0
 238 -18 228 -18 219 -17 c 1
 167 -136 l 1
191 148 m 1
 318 422 l 1
 310 422 l 2
 207 422 181 274 181 204 c 0
 181 180 185 162 191 148 c 1
264 111 m 2
 364 111 390 258 390 325 c 0
 390 348 387 366 381 379 c 1
 256 111 l 1
 264 111 l 2
EndSplineSet
Substitution2: "'smcp' Lowercase to Small Capitals lookup 28 subtable" oslash.sc
Substitution2: "'aalt' Access All Alternates lookup 0 subtable" oslash.sc
EndChar

StartChar: ugrave
Encoding: 249 249 244
Width: 558
GlyphClass: 2
Flags: MW
HStem: -18 21G<104 188> 0 21G<318 470 318 318> 0 123<226.5 470 226.5 318> 513 20G<83 258 258 258 370 544 544 544> 686 20G<491 491> 694 20G<208 208>
VStem: 26.2 183.8
AnchorPoint: "Anchor-11" 0 0 basechar 0
AnchorPoint: "Anchor-10" 0 0 basechar 0
AnchorPoint: "Anchor-9" 314 533 basechar 0
AnchorPoint: "Anchor-8" 478 0 basechar 0
LayerCount: 2
Fore
SplineSet
491 706 m 1x5a
 433 618 l 1x5a
 208 714 l 1x56
 292 846 l 1
 491 706 l 1x5a
470 0 m 1
 318 0 l 1x56
 321 73 l 1
 276 18 221 -18 155 -18 c 0x96
 53 -18 15 49 29 151 c 2
 83 533 l 1
 258 533 l 1
 210 183 l 2
 203 135 215 123 238 123 c 0
 267 123 297 156 323 198 c 1x36
 370 533 l 1
 544 533 l 1
 470 0 l 1
EndSplineSet
Substitution2: "'smcp' Lowercase to Small Capitals lookup 24 subtable" ugrave.sc
Substitution2: "'aalt' Access All Alternates lookup 0 subtable" ugrave.sc
EndChar
StartChar: ucircumflex
Encoding: 251 251 662
Width: 558
GlyphClass: 2
Flags: MW
HStem: -18 21G<104 188> 0 21G<318 470 318 318> 0 123<226.5 470 226.5 318> 513 20G<83 258 258 258 370 544 544 544>
VStem: 26.2 183.8
AnchorPoint: "Anchor-14" 0 0 basechar 0
AnchorPoint: "Anchor-13" 554 533 basechar 0
AnchorPoint: "Anchor-12" 352 831 basechar 0
AnchorPoint: "Anchor-11" 478 0 basechar 0
AnchorPoint: "Anchor-10" 251 0 basechar 0
LayerCount: 2
Back
Fore
SplineSet
194 616 m 1x58
 140 687 l 1
 300 831 l 1
 406 831 l 1
 526 687 l 1
 457 616 l 1
 339 710 l 1
 194 616 l 1x58
544 533 m 1
 470 0 l 1
 318 0 l 1x58
 321 73 l 1
 276 18 221 -18 155 -18 c 0x98
 53 -18 15 49 29 151 c 2
 83 533 l 1
 258 533 l 1
 210 183 l 2
 203 135 215 123 238 123 c 0
 267 123 297 156 323 198 c 1x38
 370 533 l 1
 544 533 l 1
EndSplineSet
Substitution2: "'smcp' Lowercase to Small Capitals lookup 28 subtable" ucircumflex.sc
Substitution2: "'aalt' Access All Alternates lookup 0 subtable" ucircumflex.sc
EndChar

StartChar: udieresis
Encoding: 252 252 243
Width: 558
GlyphClass: 2
Flags: MW
HStem: -18 21G<104 188> 0 21G<318 470 318 318> 0 123<226.5 470 226.5 318> 513 20G<83 258 258 258 370 544 544 544> 637 172<205.5 233 440 468>
VStem: 26.2 183.8 133 172 367 172
AnchorPoint: "Anchor-11" 0 0 basechar 0
AnchorPoint: "Anchor-10" 0 0 basechar 0
AnchorPoint: "Anchor-9" 338 745 basechar 0
AnchorPoint: "Anchor-8" 478 0 basechar 0
LayerCount: 2
Fore
SplineSet
229 809 m 0x5b
 279 809 313 769 305 720 c 1
 299 674 257 637 209 637 c 0
 160 637 126 676 133 727 c 0
 139 772 182 809 229 809 c 0x5b
463 809 m 0
 514 809 547 769 539 720 c 1
 533 674 492 637 444 637 c 0
 395 637 360 676 367 727 c 0
 373 772 417 809 463 809 c 0
470 0 m 1
 318 0 l 1x5d
 321 73 l 1
 276 18 221 -18 155 -18 c 0x9d
 53 -18 15 49 29 151 c 2
 83 533 l 1
 258 533 l 1
 210 183 l 2
 203 135 215 123 238 123 c 0
 267 123 297 156 323 198 c 1x3d
 370 533 l 1
 544 533 l 1
 470 0 l 1
EndSplineSet
Substitution2: "'smcp' Lowercase to Small Capitals lookup 24 subtable" udieresis.sc
Substitution2: "'aalt' Access All Alternates lookup 0 subtable" udieresis.sc
EndChar
StartChar: thorn
Encoding: 254 254 598
Width: 587
GlyphClass: 2
Flags: MW
HStem: -225 21G<-19 -19> -18 128<259.5 308 252 388.5> -5 21G<187 187> 422 129<312 453.5> 531 20G<374.5 453.5> 741 20G<294 294>
VStem: 384 179<291 372>
LayerCount: 2
Back
Fore
SplineSet
398 551 m 0xce
 509 551 563 476 563 344 c 0
 563 190 499 -18 278 -18 c 0xce
 241 -18 206 -11 187 -5 c 1xae
 158 -206 l 1
 -19 -225 l 1
 117 743 l 1
 294 761 l 1
 255 491 l 1
 294 528 351 551 398 551 c 0xce
264 110 m 0
 352 110 384 244 384 338 c 0
 384 406 359 422 328 422 c 0
 296 422 266 402 239 365 c 1xd6
 205 121 l 1
 221 115 240 110 264 110 c 0
EndSplineSet
Substitution2: "'smcp' Lowercase to Small Capitals lookup 28 subtable" thorn.sc
Substitution2: "'aalt' Access All Alternates lookup 0 subtable" thorn.sc
EndChar

StartChar: ydieresis
Encoding: 255 255 260
Width: 514
GlyphClass: 2
Flags: MW
HStem: -225 21G<-16 -16> 1 21G<164 164> 513 20G<26 208 208 208 379 562 562 562> 637 172<184.5 212 419 447>
VStem: 112 172 346 172
AnchorPoint: "Anchor-11" 0 0 basechar 0
AnchorPoint: "Anchor-10" 0 0 basechar 0
AnchorPoint: "Anchor-9" 317 745 basechar 0
AnchorPoint: "Anchor-8" 0 0 basechar 0
LayerCount: 2
Fore
SplineSet
208 809 m 0
 258 809 292 769 284 720 c 1
 278 674 236 637 188 637 c 0
 139 637 105 676 112 727 c 0
 118 772 161 809 208 809 c 0
442 809 m 0
 493 809 526 769 518 720 c 1
 512 674 471 637 423 637 c 0
 374 637 339 676 346 727 c 0
 352 772 396 809 442 809 c 0
330 -1 m 2
 268 -142 155 -218 -16 -225 c 1
 -20 -102 l 1
 84 -91 128 -63 164 1 c 1
 106 0 l 1
 26 533 l 1
 208 533 l 1
 231 112 l 1
 379 533 l 1
 562 533 l 1
 330 -1 l 2
EndSplineSet
Substitution2: "'smcp' Lowercase to Small Capitals lookup 24 subtable" ydieresis.sc
Substitution2: "'aalt' Access All Alternates lookup 0 subtable" ydieresis.sc
EndChar
StartChar: Amacron
Encoding: 256 256 27
Width: 585
GlyphClass: 2
Flags: MW
HStem: 0 21G<-56 133 -56 -56 375 567 375 375> 142 132<228 355 228 364 182 355> 575 120<332 332> 675 20G<243 462 462 462> 778 121<226 519 209 536>
VStem: -56 623<0 0>
AnchorPoint: "Anchor-14" 0 0 basechar 0
AnchorPoint: "Anchor-13" 0 0 basechar 0
AnchorPoint: "Anchor-12" 374 899 basechar 0
AnchorPoint: "Anchor-11" 490 0 basechar 0
AnchorPoint: "Anchor-10" 254 0 basechar 0
LayerCount: 2
Back
Fore
SplineSet
536 899 m 1xdc
 519 778 l 1
 209 778 l 1
 226 899 l 1
 536 899 l 1xdc
375 0 m 1
 364 142 l 1
 182 142 l 1
 133 0 l 1
 -56 0 l 1
 243 695 l 1
 462 695 l 1
 567 0 l 1
 375 0 l 1
228 274 m 1
 355 274 l 1
 332 575 l 1xec
 228 274 l 1
EndSplineSet
Substitution2: "'c2sc' Capitals to Small Capitals lookup 27 subtable" amacron.sc
Substitution2: "'aalt' Access All Alternates lookup 0 subtable" amacron.sc
Position2: "'cpsp' Capital Spacing lookup 0 subtable" dx=5 dy=0 dh=10 dv=0
EndChar

StartChar: amacron
Encoding: 257 257 140
Width: 573
GlyphClass: 2
Flags: MW
HStem: -18 128<134.5 265.5> -15 21G<482 482> 427 124<276 333> 652 121<205 532 222 515>
VStem: 18 179<161 245.5 161 273>
AnchorPoint: "Anchor-11" 0 0 basechar 0
AnchorPoint: "Anchor-10" 0 0 basechar 0
AnchorPoint: "Anchor-9" 344 533 basechar 0
AnchorPoint: "Anchor-8" 490 -15 basechar 0
LayerCount: 2
Fore
SplineSet
205 652 m 1x78
 222 773 l 1
 532 773 l 1
 515 652 l 1
 205 652 l 1x78
329 551 m 0
 402 551 483 534 556 492 c 1
 508 162 l 2
 507 153 506 146 506 139 c 0
 506 116 514 106 532 99 c 1
 482 -15 l 1x78
 421 -11 368 16 350 73 c 1
 315 20 265 -18 193 -18 c 0xb8
 76 -18 18 65 18 196 c 0
 18 350 99 551 329 551 c 0
323 427 m 0
 229 427 197 295 197 196 c 0
 197 126 221 110 250 110 c 0
 281 110 311 134 338 177 c 1xb8
 374 419 l 1
 356 425 343 427 323 427 c 0
EndSplineSet
Substitution2: "'smcp' Lowercase to Small Capitals lookup 24 subtable" amacron.sc
Substitution2: "'aalt' Access All Alternates lookup 0 subtable" amacron.sc
EndChar

StartChar: Abreve
Encoding: 258 258 3
Width: 585
GlyphClass: 2
Flags: MW
HStem: 0 21G<-56 133 -56 -56 375 375 375 567> 142 132<228 355 228 364 182 355> 575 120<332 332> 675 20G<243 462 462 462> 748 122<340 384.5 340 406.5>
VStem: -56 623<0 0> 199 92<924 937>
AnchorPoint: "Anchor-11" 0 0 basechar 0
AnchorPoint: "Anchor-10" 81 533 basechar 0
AnchorPoint: "Anchor-9" 353 695 basechar 0
AnchorPoint: "Anchor-8" 490 0 basechar 0
LayerCount: 2
Fore
SplineSet
352 748 m 0xda
 240 748 194 835 199 924 c 1
 291 937 l 1
 296 900 318 870 362 870 c 0
 407 870 439 902 454 940 c 1
 549 921 l 1
 530 832 461 748 352 748 c 0xda
364 142 m 1
 182 142 l 1
 133 0 l 1
 -56 0 l 1
 243 695 l 1
 462 695 l 1
 567 0 l 1
 375 0 l 1
 364 142 l 1
355 274 m 1
 332 575 l 1xec
 228 274 l 1
 355 274 l 1
EndSplineSet
Substitution2: "'c2sc' Capitals to Small Capitals lookup 23 subtable" abreve.sc
Substitution2: "'aalt' Access All Alternates lookup 0 subtable" abreve.sc
Position2: "'cpsp' Capital Spacing lookup 0 subtable" dx=5 dy=0 dh=10 dv=0
EndChar
StartChar: abreve
Encoding: 259 259 337
Width: 573
GlyphClass: 2
Flags: MW
HStem: -18 128<135.5 266.5> -15 21G<483 483> 427 124<277 334> 629 122<343.5 388 343.5 408.5>
VStem: 18 180<161 245.5 161 273> 201 95<815 828>
AnchorPoint: "Anchor-14" 0 0 basechar 0
AnchorPoint: "Anchor-13" 0 0 basechar 0
AnchorPoint: "Anchor-12" 378 831 basechar 0
AnchorPoint: "Anchor-11" 491 -15 basechar 0
AnchorPoint: "Anchor-10" 277 0 basechar 0
LayerCount: 2
Back
Fore
SplineSet
354 629 m 0x74
 242 629 196 716 201 815 c 1
 296 828 l 1
 299 781 322 751 365 751 c 0
 411 751 443 783 461 831 c 1
 552 812 l 1
 532 713 463 629 354 629 c 0x74
330 551 m 0
 403 551 484 534 557 492 c 1
 509 162 l 2
 508 153 507 146 507 139 c 0
 507 116 515 106 533 99 c 1
 483 -15 l 1x78
 422 -11 369 16 351 73 c 1
 315 20 265 -18 194 -18 c 0
 77 -18 18 65 18 196 c 0xb8
 18 350 100 551 330 551 c 0
324 427 m 0xb8
 230 427 198 295 198 196 c 0
 198 126 222 110 251 110 c 0
 282 110 312 134 339 177 c 1
 375 419 l 1
 357 425 344 427 324 427 c 0xb8
EndSplineSet
Substitution2: "'smcp' Lowercase to Small Capitals lookup 28 subtable" abreve.sc
Substitution2: "'aalt' Access All Alternates lookup 0 subtable" abreve.sc
EndChar
StartChar: Aogonek
Encoding: 260 260 28
Width: 585
GlyphClass: 2
Flags: MW
HStem: -250 107<322 404> 0 21G<-56 133 -56 -56 482 567 482 482> 142 132<228 355 228 364 182 355> 575 120<332 332> 675 20G<243 462 462 462>
VStem: 224 126<-121.5 -108>
AnchorPoint: "Anchor-14" 0 0 basechar 0
AnchorPoint: "Anchor-13" 0 0 basechar 0
AnchorPoint: "Anchor-12" 353 695 basechar 0
AnchorPoint: "Anchor-11" 490 0 basechar 0
AnchorPoint: "Anchor-10" 254 0 basechar 0
LayerCount: 2
Back
Fore
SplineSet
482 0 m 1xec
 368 -39 350 -84 350 -110 c 0
 350 -133 366 -143 394 -143 c 0
 414 -143 434 -140 456 -135 c 1
 433 -242 l 1
 411 -247 387 -250 362 -250 c 0
 282 -250 224 -209 224 -142 c 0
 224 -74 268 -15 373 28 c 1
 364 142 l 1
 182 142 l 1
 133 0 l 1
 -56 0 l 1
 243 695 l 1
 462 695 l 1
 567 0 l 1
 482 0 l 1xec
228 274 m 1
 355 274 l 1
 332 575 l 1xf4
 228 274 l 1
EndSplineSet
Substitution2: "'c2sc' Capitals to Small Capitals lookup 27 subtable" aogonek.sc
Substitution2: "'aalt' Access All Alternates lookup 0 subtable" aogonek.sc
Position2: "'cpsp' Capital Spacing lookup 0 subtable" dx=5 dy=0 dh=10 dv=0
EndChar
StartChar: aogonek
Encoding: 261 261 362
Width: 573
GlyphClass: 2
Flags: MW
HStem: -265 107<323 405> -18 128<135.5 266.5> 427 124<277 334>
VStem: 18 180<161 245.5 161 273> 225 126<-136.5 -121.5>
AnchorPoint: "Anchor-14" 0 0 basechar 0
AnchorPoint: "Anchor-13" 0 0 basechar 0
AnchorPoint: "Anchor-12" 345 533 basechar 0
AnchorPoint: "Anchor-11" 491 -15 basechar 0
AnchorPoint: "Anchor-10" 277 0 basechar 0
LayerCount: 2
Back
Fore
SplineSet
507 139 m 0
 507 116 515 106 533 99 c 1
 483 -15 l 1
 482 -15 l 1
 369 -54 351 -99 351 -125 c 0
 351 -148 367 -158 395 -158 c 0
 415 -158 435 -155 457 -150 c 1
 434 -257 l 1
 412 -262 388 -265 363 -265 c 0
 283 -265 225 -224 225 -157 c 0xf8
 225 -86 273 -25 388 18 c 1
 371 32 358 50 351 73 c 1
 315 20 265 -18 194 -18 c 0
 77 -18 18 65 18 196 c 0
 18 350 100 551 330 551 c 0
 403 551 484 534 557 492 c 1
 509 162 l 2
 508 153 507 146 507 139 c 0
339 177 m 1
 375 419 l 1
 357 425 344 427 324 427 c 0
 230 427 198 295 198 196 c 0
 198 126 222 110 251 110 c 0
 282 110 312 134 339 177 c 1
EndSplineSet
Substitution2: "'smcp' Lowercase to Small Capitals lookup 28 subtable" aogonek.sc
Substitution2: "'aalt' Access All Alternates lookup 0 subtable" aogonek.sc
EndChar

StartChar: cacute
Encoding: 263 263 148
Width: 469
GlyphClass: 2
Flags: MW
HStem: -18 138<255.5 291> 416 135<275.5 342>
VStem: 19 183<174.5 251.5 174.5 283>
AnchorPoint: "Anchor-11" 236 0 basechar 0
AnchorPoint: "Anchor-10" 0 0 basechar 0
AnchorPoint: "Anchor-9" 322 533 basechar 0
AnchorPoint: "Anchor-8" 0 0 basechar 0
LayerCount: 2
Fore
SplineSet
482 714 m 1
 230 618 l 1
 195 707 l 1
 433 846 l 1
 482 714 l 1
325 551 m 0
 395 551 455 526 500 480 c 1
 415 379 l 1
 386 406 358 416 326 416 c 0
 225 416 202 294 202 209 c 0
 202 140 233 120 278 120 c 0
 313 120 340 133 378 156 c 1
 442 44 l 1
 388 5 328 -18 254 -18 c 0
 105 -18 19 73 19 214 c 0
 19 352 103 551 325 551 c 0
EndSplineSet
Substitution2: "'smcp' Lowercase to Small Capitals lookup 24 subtable" cacute.sc
Substitution2: "'locl' Localized Forms in Latin lookup 7 subtable" cacute.loclPLK
AlternateSubs2: "'aalt' Access All Alternates lookup 1 subtable" cacute.loclPLK cacute.sc
EndChar
StartChar: Cdotaccent
Encoding: 266 266 47
Width: 568
GlyphClass: 2
Flags: MW
HStem: -18 140<297 355> 578 135<328.5 420> 750 196<417 452>
VStem: 32 188<219.5 327.5 219.5 366>
AnchorPoint: "Anchor-14" 0 0 basechar 0
AnchorPoint: "Anchor-13" 0 0 basechar 0
AnchorPoint: "Anchor-12" 445 946 basechar 0
AnchorPoint: "Anchor-11" 0 0 basechar 0
AnchorPoint: "Anchor-10" 296 0 basechar 0
LayerCount: 2
Back
Fore
SplineSet
446 946 m 0
 507 946 543 902 535 844 c 0
 528 791 481 750 423 750 c 0
 363 750 327 794 334 851 c 0
 342 905 388 946 446 946 c 0
395 713 m 0
 488 713 558 682 607 627 c 1
 508 530 l 1
 477 561 443 578 397 578 c 0
 260 578 220 384 220 271 c 0
 220 168 262 122 332 122 c 0
 385 122 427 150 470 182 c 1
 538 74 l 1
 483 25 402 -18 308 -18 c 0
 137 -18 32 82 32 270 c 0
 32 462 128 713 395 713 c 0
EndSplineSet
Substitution2: "'c2sc' Capitals to Small Capitals lookup 27 subtable" cdotaccent.sc
Substitution2: "'aalt' Access All Alternates lookup 0 subtable" cdotaccent.sc
Position2: "'cpsp' Capital Spacing lookup 0 subtable" dx=5 dy=0 dh=10 dv=0
EndChar

StartChar: cdotaccent
Encoding: 267 267 152
Width: 469
GlyphClass: 2
Flags: MW
HStem: -18 138<255.5 291> 416 135<275.5 342> 624 196<331 366>
VStem: 19 183<174.5 251.5 174.5 283> 248 201
AnchorPoint: "Anchor-11" 236 0 basechar 0
AnchorPoint: "Anchor-10" 0 0 basechar 0
AnchorPoint: "Anchor-9" 322 533 basechar 0
AnchorPoint: "Anchor-8" 0 0 basechar 0
LayerCount: 2
Fore
SplineSet
360 820 m 0
 421 820 456 776 449 718 c 0
 442 665 395 624 337 624 c 0
 277 624 241 668 248 725 c 1
 256 779 302 820 360 820 c 0
325 551 m 0
 395 551 455 526 500 480 c 1
 415 379 l 1
 386 406 358 416 326 416 c 0
 225 416 202 294 202 209 c 0
 202 140 233 120 278 120 c 0
 313 120 340 133 378 156 c 1
 442 44 l 1
 388 5 328 -18 254 -18 c 0
 105 -18 19 73 19 214 c 0
 19 352 103 551 325 551 c 0
EndSplineSet
Substitution2: "'smcp' Lowercase to Small Capitals lookup 24 subtable" cdotaccent.sc
Substitution2: "'aalt' Access All Alternates lookup 0 subtable" cdotaccent.sc
EndChar
StartChar: Ccaron
Encoding: 268 268 44
Width: 568
GlyphClass: 2
Flags: MW
HStem: -18 140<297 355> 578 135<328.5 420>
VStem: 32 188<219.5 327.5 219.5 366>
AnchorPoint: "Anchor-14" 0 0 basechar 0
AnchorPoint: "Anchor-13" 0 0 basechar 0
AnchorPoint: "Anchor-12" 433 954 basechar 0
AnchorPoint: "Anchor-11" 0 0 basechar 0
AnchorPoint: "Anchor-10" 296 0 basechar 0
LayerCount: 2
Back
Fore
SplineSet
570 954 m 1
 624 883 l 1
 465 748 l 1
 360 748 l 1
 238 883 l 1
 306 954 l 1
 426 869 l 1
 570 954 l 1
395 713 m 0
 488 713 558 682 607 627 c 1
 508 530 l 1
 477 561 443 578 397 578 c 0
 260 578 220 384 220 271 c 0
 220 168 262 122 332 122 c 0
 385 122 427 150 470 182 c 1
 538 74 l 1
 483 25 402 -18 308 -18 c 0
 137 -18 32 82 32 270 c 0
 32 462 128 713 395 713 c 0
EndSplineSet
Substitution2: "'c2sc' Capitals to Small Capitals lookup 27 subtable" ccaron.sc
Substitution2: "'aalt' Access All Alternates lookup 0 subtable" ccaron.sc
Position2: "'cpsp' Capital Spacing lookup 0 subtable" dx=5 dy=0 dh=10 dv=0
EndChar

StartChar: ccaron
Encoding: 269 269 149
Width: 469
GlyphClass: 2
Flags: MW
HStem: -18 138<255.5 291> 416 135<275.5 342> 731 20G<160 160 546 546>
VStem: 19 183<174.5 251.5 174.5 283>
AnchorPoint: "Anchor-11" 236 0 basechar 0
AnchorPoint: "Anchor-10" 0 0 basechar 0
AnchorPoint: "Anchor-9" 322 533 basechar 0
AnchorPoint: "Anchor-8" 0 0 basechar 0
LayerCount: 2
Fore
SplineSet
546 751 m 1
 387 607 l 1
 281 607 l 1
 160 751 l 1
 226 822 l 1
 345 728 l 1
 491 822 l 1
 546 751 l 1
325 551 m 0
 395 551 455 526 500 480 c 1
 415 379 l 1
 386 406 358 416 326 416 c 0
 225 416 202 294 202 209 c 0
 202 140 233 120 278 120 c 0
 313 120 340 133 378 156 c 1
 442 44 l 1
 388 5 328 -18 254 -18 c 0
 105 -18 19 73 19 214 c 0
 19 352 103 551 325 551 c 0
EndSplineSet
Substitution2: "'smcp' Lowercase to Small Capitals lookup 24 subtable" ccaron.sc
Substitution2: "'aalt' Access All Alternates lookup 0 subtable" ccaron.sc
EndChar
StartChar: dcaron
Encoding: 271 271 393
Width: 684
GlyphClass: 2
Flags: MW
HStem: -18 128<129.5 269> 0 110<236 498 236 343> 423 128<270.5 305 185.5 329.5> 738 20G<650 650> 741 20G<430 430>
VStem: 19 181<162 239 162 270.5>
AnchorPoint: "Anchor-14" 293 266 basechar 0
AnchorPoint: "Anchor-13" 616 743 basechar 0
AnchorPoint: "Anchor-12" 339 743 basechar 0
AnchorPoint: "Anchor-11" 0 0 basechar 0
AnchorPoint: "Anchor-10" 254 0 basechar 0
LayerCount: 2
Back
Fore
SplineSet
430 761 m 1xac
 602 743 l 1
 498 0 l 1
 343 0 l 1x6c
 344 72 l 1
 311 25 260 -18 186 -18 c 0
 73 -18 19 63 19 197 c 0
 19 344 88 551 283 551 c 0
 327 551 367 533 394 504 c 1
 430 761 l 1xac
650 758 m 1xb4
 776 742 l 1xac
 698 517 l 1
 610 525 l 1
 650 758 l 1xb4
316 423 m 0
 225 423 200 281 200 197 c 0
 200 127 222 110 250 110 c 0
 288 110 323 155 351 201 c 1
 378 391 l 1
 361 413 343 423 316 423 c 0
EndSplineSet
Substitution2: "'smcp' Lowercase to Small Capitals lookup 28 subtable" dcaron.sc
Substitution2: "'aalt' Access All Alternates lookup 0 subtable" dcaron.sc
EndChar

StartChar: dcroat
Encoding: 273 273 156
Width: 599
GlyphClass: 2
Flags: MW
HStem: -18 128<133 272.5> 0 110<239 502 239 346> 423 128<273.5 309 189 333> 593 99<289 409 288 423 599 640> 741 20G<433 433>
VStem: 23 180<162 239 162 270.5>
LayerCount: 2
Fore
SplineSet
640 593 m 1xbc
 585 593 l 1
 502 0 l 1
 346 0 l 1x7c
 347 72 l 1
 314 25 264 -18 190 -18 c 0
 76 -18 23 63 23 197 c 0
 23 344 91 551 287 551 c 0
 331 551 371 533 397 504 c 1
 409 593 l 1
 288 593 l 1
 289 692 l 1
 423 692 l 1
 433 761 l 1
 606 743 l 1
 599 692 l 1
 654 692 l 1
 640 593 l 1xbc
382 391 m 1
 364 413 347 423 319 423 c 0
 228 423 203 281 203 197 c 0
 203 127 225 110 253 110 c 0
 292 110 326 155 355 201 c 1xbc
 382 391 l 1
EndSplineSet
Substitution2: "'smcp' Lowercase to Small Capitals lookup 24 subtable" dcroat.sc
Substitution2: "'aalt' Access All Alternates lookup 0 subtable" dcroat.sc
EndChar

StartChar: Emacron
Encoding: 274 274 32
Width: 514
GlyphClass: 2
Flags: MW
HStem: 0 131<216 448> 289 127<256 443 239 459> 564 131<277 510 277 277> 778 121<188 515 205 498>
VStem: 17 530
AnchorPoint: "Anchor-11" 232 0 basechar 0
AnchorPoint: "Anchor-10" -30 534 basechar 0
AnchorPoint: "Anchor-9" 332 695 basechar 0
AnchorPoint: "Anchor-8" 418 0 basechar 0
LayerCount: 2
Fore
SplineSet
188 778 m 1
 205 899 l 1
 515 899 l 1
 498 778 l 1
 188 778 l 1
510 564 m 1
 277 564 l 1
 256 416 l 1
 459 416 l 1
 443 289 l 1
 239 289 l 1
 216 131 l 1
 466 131 l 1
 448 0 l 1
 17 0 l 1
 114 695 l 1
 547 695 l 1
 510 564 l 1
EndSplineSet
Substitution2: "'c2sc' Capitals to Small Capitals lookup 23 subtable" emacron.sc
Substitution2: "'aalt' Access All Alternates lookup 0 subtable" emacron.sc
Position2: "'cpsp' Capital Spacing lookup 0 subtable" dx=5 dy=0 dh=10 dv=0
EndChar

StartChar: Ebreve
Encoding: 276 276 26
Width: 514
GlyphClass: 2
Flags: MW
HStem: 0 131<216 448> 289 127<256 443 239 459> 564 131<277 510 277 277> 748 122<319 363.5 319 385.5>
VStem: 178 92<924 937>
AnchorPoint: "Anchor-11" 232 0 basechar 0
AnchorPoint: "Anchor-10" -30 534 basechar 0
AnchorPoint: "Anchor-9" 332 695 basechar 0
AnchorPoint: "Anchor-8" 418 0 basechar 0
LayerCount: 2
Fore
SplineSet
331 748 m 0
 219 748 173 835 178 924 c 1
 270 937 l 1
 275 900 297 870 341 870 c 0
 386 870 418 902 433 940 c 1
 528 921 l 1
 509 832 440 748 331 748 c 0
510 564 m 1
 277 564 l 1
 256 416 l 1
 459 416 l 1
 443 289 l 1
 239 289 l 1
 216 131 l 1
 466 131 l 1
 448 0 l 1
 17 0 l 1
 114 695 l 1
 547 695 l 1
 510 564 l 1
EndSplineSet
Substitution2: "'c2sc' Capitals to Small Capitals lookup 23 subtable" ebreve.sc
Substitution2: "'aalt' Access All Alternates lookup 0 subtable" ebreve.sc
Position2: "'cpsp' Capital Spacing lookup 0 subtable" dx=5 dy=0 dh=10 dv=0
EndChar
StartChar: ebreve
Encoding: 277 277 411
Width: 539
GlyphClass: 2
Flags: MW
HStem: -18 128<258.5 302.5> 436 115<279 329.5> 629 122<313.5 358 313.5 378.5>
VStem: 20 175 171 95<815 828> 359 176<375.5 403.5>
AnchorPoint: "Anchor-14" 0 0 basechar 0
AnchorPoint: "Anchor-13" 0 0 basechar 0
AnchorPoint: "Anchor-12" 348 831 basechar 0
AnchorPoint: "Anchor-11" 402 10 basechar 0
AnchorPoint: "Anchor-10" 252 0 basechar 0
LayerCount: 2
Back
Fore
SplineSet
324 629 m 0xec
 212 629 166 716 171 815 c 1
 266 828 l 1
 269 781 292 751 335 751 c 0
 381 751 413 783 431 831 c 1
 522 812 l 1
 502 713 433 629 324 629 c 0xec
535 402 m 0
 535 253 356 207 195 192 c 1
 199 130 235 110 282 110 c 0
 327 110 366 126 416 159 c 1
 478 55 l 1
 419 13 346 -18 259 -18 c 0
 96 -18 20 74 20 209 c 0xf4
 20 354 99 551 329 551 c 0
 463 551 535 486 535 402 c 0
202 296 m 1
 329 304 359 360 359 391 c 0
 359 416 348 436 311 436 c 0
 247 436 216 366 202 296 c 1
EndSplineSet
Substitution2: "'smcp' Lowercase to Small Capitals lookup 28 subtable" ebreve.sc
Substitution2: "'aalt' Access All Alternates lookup 0 subtable" ebreve.sc
EndChar
StartChar: Edotaccent
Encoding: 278 278 78
Width: 514
GlyphClass: 2
Flags: MW
HStem: 0 131<217 449> 289 127<257 444 240 460> 564 131<278 511 278 278> 750 196<340 375>
VStem: 17 531
AnchorPoint: "Anchor-14" 0 0 basechar 0
AnchorPoint: "Anchor-13" 0 0 basechar 0
AnchorPoint: "Anchor-12" 368 946 basechar 0
AnchorPoint: "Anchor-11" 419 0 basechar 0
AnchorPoint: "Anchor-10" 233 0 basechar 0
LayerCount: 2
Back
Fore
SplineSet
369 946 m 0
 430 946 466 902 458 844 c 0
 451 791 404 750 346 750 c 0
 286 750 250 794 257 851 c 0
 265 905 311 946 369 946 c 0
548 695 m 1
 511 564 l 1
 278 564 l 1
 257 416 l 1
 460 416 l 1
 444 289 l 1
 240 289 l 1
 217 131 l 1
 467 131 l 1
 449 0 l 1
 17 0 l 1
 114 695 l 1
 548 695 l 1
EndSplineSet
Substitution2: "'c2sc' Capitals to Small Capitals lookup 27 subtable" edotaccent.sc
Substitution2: "'aalt' Access All Alternates lookup 0 subtable" edotaccent.sc
Position2: "'cpsp' Capital Spacing lookup 0 subtable" dx=5 dy=0 dh=10 dv=0
EndChar

StartChar: edotaccent
Encoding: 279 279 163
Width: 538
GlyphClass: 2
Flags: MW
HStem: -18 128<258.5 302.5> 436 115<279 329.5> 624 196<325 360>
VStem: 20 175 242 201 359 176<375.5 403.5>
AnchorPoint: "Anchor-11" 252 0 basechar 0
AnchorPoint: "Anchor-10" 0 0 basechar 0
AnchorPoint: "Anchor-9" 316 533 basechar 0
AnchorPoint: "Anchor-8" 402 10 basechar 0
LayerCount: 2
Fore
SplineSet
331 624 m 0xf8
 271 624 235 668 242 725 c 1
 250 779 296 820 354 820 c 0
 415 820 450 776 443 718 c 0
 436 665 389 624 331 624 c 0xf8
535 402 m 0xf4
 535 253 355 207 195 192 c 1
 199 130 235 110 282 110 c 0
 327 110 366 126 416 159 c 1
 478 55 l 1
 419 13 346 -18 259 -18 c 0
 96 -18 20 74 20 209 c 0
 20 354 99 551 329 551 c 0
 463 551 535 486 535 402 c 0xf4
202 296 m 1
 330 304 359 360 359 391 c 0
 359 416 348 436 311 436 c 0
 247 436 215 366 202 296 c 1
EndSplineSet
Substitution2: "'smcp' Lowercase to Small Capitals lookup 24 subtable" edotaccent.sc
Substitution2: "'aalt' Access All Alternates lookup 0 subtable" edotaccent.sc
EndChar

StartChar: Eogonek
Encoding: 280 280 33
Width: 514
GlyphClass: 2
Flags: MW
HStem: -250 107<250 332> 0 131<216 245 410 448 410 410> 289 127<256 443 239 459> 564 131<277 277 277 510>
VStem: 17 530 152 126<-121.5 -115>
AnchorPoint: "Anchor-11" 232 0 basechar 0
AnchorPoint: "Anchor-10" -30 534 basechar 0
AnchorPoint: "Anchor-9" 332 695 basechar 0
AnchorPoint: "Anchor-8" 418 0 basechar 0
LayerCount: 2
Fore
SplineSet
277 564 m 1x78
 256 416 l 1
 459 416 l 1
 443 289 l 1
 239 289 l 1
 216 131 l 1
 466 131 l 1
 448 0 l 1
 410 0 l 1
 296 -39 278 -84 278 -110 c 0
 278 -133 294 -143 322 -143 c 0
 342 -143 362 -140 384 -135 c 1
 361 -242 l 1
 339 -247 315 -250 290 -250 c 0
 210 -250 152 -209 152 -142 c 0
 152 -88 180 -39 245 0 c 1xf4
 17 0 l 1
 114 695 l 1
 547 695 l 1
 510 564 l 1
 277 564 l 1x78
EndSplineSet
Substitution2: "'c2sc' Capitals to Small Capitals lookup 23 subtable" eogonek.sc
Substitution2: "'aalt' Access All Alternates lookup 0 subtable" eogonek.sc
Position2: "'cpsp' Capital Spacing lookup 0 subtable" dx=5 dy=0 dh=10 dv=0
EndChar

StartChar: eogonek
Encoding: 281 281 166
Width: 538
GlyphClass: 2
Flags: MW
HStem: -240 107<233.5 320> -15 21G 436 115<279 329.5>
VStem: 20 175 136 128 359 176<375.5 403.5>
AnchorPoint: "Anchor-11" 252 0 basechar 0
AnchorPoint: "Anchor-10" 0 0 basechar 0
AnchorPoint: "Anchor-9" 316 533 basechar 0
AnchorPoint: "Anchor-8" 402 10 basechar 0
LayerCount: 2
Fore
SplineSet
535 402 m 0xf4
 535 253 355 207 195 192 c 1
 199 130 235 110 282 110 c 0xf4
 327 110 366 126 416 159 c 1
 478 55 l 1
 442 29 400 8 353 -5 c 1
 286 -35 267 -67 264 -91 c 0
 261 -119 277 -133 310 -133 c 0
 330 -133 350 -131 372 -126 c 1
 350 -232 l 1
 328 -237 304 -240 278 -240 c 0
 189 -240 127 -194 136 -116 c 0xec
 142 -71 170 -38 211 -15 c 1
 81 1 20 88 20 209 c 0
 20 354 99 551 329 551 c 0
 463 551 535 486 535 402 c 0xf4
202 296 m 1
 330 304 359 360 359 391 c 0
 359 416 348 436 311 436 c 0
 247 436 215 366 202 296 c 1
EndSplineSet
Substitution2: "'smcp' Lowercase to Small Capitals lookup 24 subtable" eogonek.sc
Substitution2: "'aalt' Access All Alternates lookup 0 subtable" eogonek.sc
EndChar
StartChar: Ecaron
Encoding: 282 282 68
Width: 514
GlyphClass: 2
Flags: MW
HStem: 0 131<217 449> 289 127<257 444 240 460> 564 131<278 511 278 278>
VStem: 17 531
AnchorPoint: "Anchor-14" 0 0 basechar 0
AnchorPoint: "Anchor-13" 0 0 basechar 0
AnchorPoint: "Anchor-12" 356 954 basechar 0
AnchorPoint: "Anchor-11" 419 0 basechar 0
AnchorPoint: "Anchor-10" 233 0 basechar 0
LayerCount: 2
Back
Fore
SplineSet
493 954 m 1
 547 883 l 1
 388 748 l 1
 283 748 l 1
 161 883 l 1
 229 954 l 1
 349 869 l 1
 493 954 l 1
548 695 m 1
 511 564 l 1
 278 564 l 1
 257 416 l 1
 460 416 l 1
 444 289 l 1
 240 289 l 1
 217 131 l 1
 467 131 l 1
 449 0 l 1
 17 0 l 1
 114 695 l 1
 548 695 l 1
EndSplineSet
Substitution2: "'c2sc' Capitals to Small Capitals lookup 27 subtable" ecaron.sc
Substitution2: "'aalt' Access All Alternates lookup 0 subtable" ecaron.sc
Position2: "'cpsp' Capital Spacing lookup 0 subtable" dx=5 dy=0 dh=10 dv=0
EndChar

StartChar: ecaron
Encoding: 283 283 160
Width: 538
GlyphClass: 2
Flags: MW
HStem: -18 128<258.5 302.5> 436 115<279 329.5> 731 20G<153 153 539 539>
VStem: 20 175 359 176<375.5 403.5>
AnchorPoint: "Anchor-11" 252 0 basechar 0
AnchorPoint: "Anchor-10" 0 0 basechar 0
AnchorPoint: "Anchor-9" 316 533 basechar 0
AnchorPoint: "Anchor-8" 402 10 basechar 0
LayerCount: 2
Fore
SplineSet
274 607 m 1
 153 751 l 1
 219 822 l 1
 338 728 l 1
 484 822 l 1
 539 751 l 1
 380 607 l 1
 274 607 l 1
329 551 m 0
 463 551 535 486 535 402 c 0
 535 253 355 207 195 192 c 1
 199 130 235 110 282 110 c 0
 327 110 366 126 416 159 c 1
 478 55 l 1
 419 13 346 -18 259 -18 c 0
 96 -18 20 74 20 209 c 0
 20 354 99 551 329 551 c 0
202 296 m 1
 330 304 359 360 359 391 c 0
 359 416 348 436 311 436 c 0
 247 436 215 366 202 296 c 1
EndSplineSet
Substitution2: "'smcp' Lowercase to Small Capitals lookup 24 subtable" ecaron.sc
Substitution2: "'aalt' Access All Alternates lookup 0 subtable" ecaron.sc
EndChar
StartChar: gcircumflex
Encoding: 285 285 455
Width: 576
GlyphClass: 2
Flags: MW
HStem: -225 133<184.5 233 184.5 297.5> 0 21G<137 223.5> 0 131<137 270.5> 427 124<280.5 339.5>
VStem: 19 180<180.5 256 180.5 281>
AnchorPoint: "Anchor-14" 0 0 basechar 0
AnchorPoint: "Anchor-13" 0 0 basechar 0
AnchorPoint: "Anchor-12" 373 831 basechar 0
AnchorPoint: "Anchor-11" 0 0 basechar 0
AnchorPoint: "Anchor-10" 207 -213 basechar 0
LayerCount: 2
Back
Fore
SplineSet
215 616 m 1xd8
 161 687 l 1
 321 831 l 1
 427 831 l 1
 547 687 l 1
 478 616 l 1
 360 710 l 1
 215 616 l 1xd8
335 551 m 0
 408 551 489 534 562 492 c 1
 499 49 l 2
 471 -143 388 -225 207 -225 c 0
 141 -225 62 -202 3 -164 c 1
 60 -50 l 1
 115 -80 163 -92 206 -92 c 0
 260 -92 311 -76 325 19 c 2
 333 66 l 1
 299 27 252 0 195 0 c 0
 79 0 19 85 19 209 c 0
 19 353 101 551 335 551 c 0
330 427 m 0
 231 427 199 298 199 214 c 0
 199 147 226 131 254 131 c 0
 287 131 318 157 346 196 c 1xb8
 380 419 l 1
 362 425 349 427 330 427 c 0
EndSplineSet
Substitution2: "'smcp' Lowercase to Small Capitals lookup 28 subtable" gcircumflex.sc
Substitution2: "'aalt' Access All Alternates lookup 0 subtable" gcircumflex.sc
EndChar
StartChar: Gbreve
Encoding: 286 286 99
Width: 637
GlyphClass: 2
Flags: MW
HStem: -18 133<285 333.5 285 351.5> 277 127<347 424 345 617> 582 131<338.5 444.5> 748 122<403.5 448 403.5 470>
VStem: 31 186<195.5 316 195.5 364> 262 93<924 937>
AnchorPoint: "Anchor-14" 0 0 basechar 0
AnchorPoint: "Anchor-13" 0 0 basechar 0
AnchorPoint: "Anchor-12" 439 940 basechar 0
AnchorPoint: "Anchor-11" 0 0 basechar 0
AnchorPoint: "Anchor-10" 305 0 basechar 0
LayerCount: 2
Back
Fore
SplineSet
415 748 m 0
 303 748 257 835 262 924 c 1
 355 937 l 1
 360 900 382 870 425 870 c 0
 471 870 502 902 518 940 c 1
 613 921 l 1
 593 832 525 748 415 748 c 0
421 713 m 0
 522 713 597 674 645 622 c 1
 541 528 l 1
 504 565 471 582 418 582 c 0
 259 582 217 388 217 244 c 0
 217 147 252 115 318 115 c 0
 349 115 376 121 404 134 c 1
 424 277 l 1
 345 277 l 1
 347 404 l 1
 617 404 l 1
 570 57 l 1
 492 9 395 -18 308 -18 c 0
 121 -18 31 79 31 259 c 0
 31 469 137 713 421 713 c 0
EndSplineSet
Substitution2: "'c2sc' Capitals to Small Capitals lookup 27 subtable" gbreve.sc
Substitution2: "'aalt' Access All Alternates lookup 0 subtable" gbreve.sc
Position2: "'cpsp' Capital Spacing lookup 0 subtable" dx=5 dy=0 dh=10 dv=0
EndChar

StartChar: gbreve
Encoding: 287 287 169
Width: 574
GlyphClass: 2
Flags: MW
HStem: -225 133<182.5 231.5 182.5 296.5> 0 21G<135.5 222.5> 0 131<135.5 269> 427 124<279 337.5> 629 122<338.5 383 338.5 403.5>
VStem: 18 180<180.5 256 180.5 281> 196 95<815 828>
AnchorPoint: "Anchor-11" 0 0 basechar 0
AnchorPoint: "Anchor-10" 0 0 basechar 0
AnchorPoint: "Anchor-9" 332 533 basechar 0
AnchorPoint: "Anchor-8" 0 0 basechar 0
LayerCount: 2
Fore
SplineSet
349 629 m 0xda
 237 629 191 716 196 815 c 1
 291 828 l 1
 294 781 317 751 360 751 c 0
 406 751 438 783 456 831 c 1
 547 812 l 1
 527 713 458 629 349 629 c 0xda
334 551 m 0
 406 551 487 534 561 492 c 1
 497 49 l 2
 470 -143 387 -225 206 -225 c 0
 140 -225 61 -202 1 -164 c 1
 59 -50 l 1
 114 -80 161 -92 204 -92 c 0
 259 -92 310 -76 324 19 c 2
 331 66 l 1
 297 28 251 0 194 0 c 0
 77 0 18 85 18 209 c 0xdc
 18 353 99 551 334 551 c 0
328 427 m 0xbc
 230 427 198 298 198 214 c 0
 198 147 224 131 252 131 c 0
 286 131 317 157 344 196 c 1
 378 419 l 1
 361 425 347 427 328 427 c 0xbc
EndSplineSet
Substitution2: "'smcp' Lowercase to Small Capitals lookup 24 subtable" gbreve.sc
Substitution2: "'aalt' Access All Alternates lookup 0 subtable" gbreve.sc
EndChar

StartChar: Gdotaccent
Encoding: 288 288 39
Width: 638
GlyphClass: 2
Flags: MW
HStem: -18 133<285 333.5 285 351.5> 277 127<347 424 345 617> 582 131<338.5 444.5> 750 196<409 444>
VStem: 31 186<195.5 316 195.5 364> 326 201
AnchorPoint: "Anchor-11" 305 0 basechar 0
AnchorPoint: "Anchor-10" 0 0 basechar 0
AnchorPoint: "Anchor-9" 405 695 basechar 0
AnchorPoint: "Anchor-8" 0 0 basechar 0
LayerCount: 2
Fore
SplineSet
438 946 m 0
 499 946 534 902 527 844 c 0
 520 791 473 750 415 750 c 0
 355 750 319 794 326 851 c 1
 334 905 380 946 438 946 c 0
421 713 m 0
 522 713 597 674 645 622 c 1
 541 528 l 1
 504 565 471 582 418 582 c 0
 259 582 217 388 217 244 c 0
 217 147 252 115 318 115 c 0
 349 115 376 121 404 134 c 1
 424 277 l 1
 345 277 l 1
 347 404 l 1
 617 404 l 1
 570 57 l 1
 492 9 395 -18 308 -18 c 0
 121 -18 31 79 31 259 c 0
 31 469 137 713 421 713 c 0
EndSplineSet
Substitution2: "'c2sc' Capitals to Small Capitals lookup 23 subtable" gdotaccent.sc
Substitution2: "'aalt' Access All Alternates lookup 0 subtable" gdotaccent.sc
Position2: "'cpsp' Capital Spacing lookup 0 subtable" dx=5 dy=0 dh=10 dv=0
EndChar

StartChar: gdotaccent
Encoding: 289 289 172
Width: 574
GlyphClass: 2
Flags: MW
HStem: -225 133<182.5 231.5 182.5 296.5> 0 21G<135.5 222.5> 0 131<135.5 269> 427 124<279 337.5> 624 196<341 376>
VStem: 18 180<180.5 256 180.5 281> 258 201
AnchorPoint: "Anchor-11" 0 0 basechar 0
AnchorPoint: "Anchor-10" 0 0 basechar 0
AnchorPoint: "Anchor-9" 332 533 basechar 0
AnchorPoint: "Anchor-8" 0 0 basechar 0
LayerCount: 2
Fore
SplineSet
370 820 m 0xde
 431 820 466 776 459 718 c 0
 452 665 405 624 347 624 c 0
 287 624 251 668 258 725 c 1
 266 779 312 820 370 820 c 0xde
334 551 m 0
 406 551 487 534 561 492 c 1
 497 49 l 2
 470 -143 387 -225 206 -225 c 0
 140 -225 61 -202 1 -164 c 1
 59 -50 l 1
 114 -80 161 -92 204 -92 c 0
 259 -92 310 -76 324 19 c 2
 331 66 l 1
 297 28 251 0 194 0 c 0
 77 0 18 85 18 209 c 0
 18 353 99 551 334 551 c 0
328 427 m 0
 230 427 198 298 198 214 c 0
 198 147 224 131 252 131 c 0
 286 131 317 157 344 196 c 1xbe
 378 419 l 1
 361 425 347 427 328 427 c 0
EndSplineSet
Substitution2: "'smcp' Lowercase to Small Capitals lookup 24 subtable" gdotaccent.sc
Substitution2: "'aalt' Access All Alternates lookup 0 subtable" gdotaccent.sc
EndChar

StartChar: Gcommaaccent
Encoding: 290 290 38
Width: 638
GlyphClass: 2
Flags: MW
HStem: -217 21G<233 233> -18 133<285 333.5 285 351.5> 277 127<347 424 345 617> 582 131<338.5 444.5>
VStem: 31 186<195.5 316 195.5 364> 203 169<-156.5 -131>
AnchorPoint: "Anchor-11" 305 0 basechar 0
AnchorPoint: "Anchor-10" 0 0 basechar 0
AnchorPoint: "Anchor-9" 405 695 basechar 0
AnchorPoint: "Anchor-8" 0 0 basechar 0
LayerCount: 2
Fore
SplineSet
421 713 m 0xf8
 522 713 597 674 645 622 c 1
 541 528 l 1
 504 565 471 582 418 582 c 0
 259 582 217 388 217 244 c 0
 217 147 252 115 318 115 c 0
 349 115 376 121 404 134 c 1
 424 277 l 1
 345 277 l 1
 347 404 l 1
 617 404 l 1
 570 57 l 1
 492 9 395 -18 308 -18 c 0
 121 -18 31 79 31 259 c 0
 31 469 137 713 421 713 c 0xf8
297 -65 m 0xf4
 343 -65 372 -97 372 -140 c 0
 372 -173 360 -198 334 -238 c 2
 273 -333 l 1
 188 -333 l 1
 233 -217 l 1
 215 -204 203 -185 203 -160 c 0
 203 -102 246 -65 297 -65 c 0xf4
EndSplineSet
Substitution2: "'c2sc' Capitals to Small Capitals lookup 23 subtable" gcommaaccent.sc
Substitution2: "'aalt' Access All Alternates lookup 0 subtable" gcommaaccent.sc
Position2: "'cpsp' Capital Spacing lookup 0 subtable" dx=5 dy=0 dh=10 dv=0
EndChar

StartChar: gcommaaccent
Encoding: 291 291 171
Width: 574
GlyphClass: 2
Flags: MW
HStem: -225 133<182.5 231.5 182.5 296.5> 0 21G<135.5 222.5> 0 131<135.5 269> 427 124<279 337.5>
VStem: 18 180<180.5 256 180.5 281> 268 169<664 689.5>
AnchorPoint: "Anchor-11" 0 0 basechar 0
AnchorPoint: "Anchor-10" 0 0 basechar 0
AnchorPoint: "Anchor-9" 332 533 basechar 0
AnchorPoint: "Anchor-8" 0 0 basechar 0
LayerCount: 2
Fore
SplineSet
343 598 m 0xdc
 297 598 268 630 268 673 c 0
 268 706 280 731 306 771 c 2
 367 866 l 1
 452 866 l 1
 407 750 l 1
 425 737 437 718 437 693 c 0
 437 635 394 598 343 598 c 0xdc
334 551 m 0
 406 551 487 534 561 492 c 1
 497 49 l 2
 470 -143 387 -225 206 -225 c 0
 140 -225 61 -202 1 -164 c 1
 59 -50 l 1
 114 -80 161 -92 204 -92 c 0
 259 -92 310 -76 324 19 c 2
 331 66 l 1
 297 28 251 0 194 0 c 0
 77 0 18 85 18 209 c 0
 18 353 99 551 334 551 c 0
328 427 m 0
 230 427 198 298 198 214 c 0
 198 147 224 131 252 131 c 0
 286 131 317 157 344 196 c 1xbc
 378 419 l 1
 361 425 347 427 328 427 c 0
EndSplineSet
Substitution2: "'smcp' Lowercase to Small Capitals lookup 24 subtable" gcommaaccent.sc
Substitution2: "'aalt' Access All Alternates lookup 0 subtable" gcommaaccent.sc
EndChar
StartChar: Hcircumflex
Encoding: 292 292 110
Width: 650
GlyphClass: 2
Flags: MW
HStem: 0 21G<17 198 17 17 378 560 378 378> 289 143<258 418 238 438> 675 20G<114 295 295 295 475 657 657 657>
VStem: 17 640
AnchorPoint: "Anchor-14" 337 347 basechar 0
AnchorPoint: "Anchor-13" 505 843 basechar 0
AnchorPoint: "Anchor-12" 415 959 basechar 0
AnchorPoint: "Anchor-11" 0 0 basechar 0
AnchorPoint: "Anchor-10" 289 0 basechar 0
LayerCount: 2
Back
Fore
SplineSet
523 753 m 1
 402 839 l 1
 258 753 l 1
 204 824 l 1
 363 959 l 1
 469 959 l 1
 590 824 l 1
 523 753 l 1
378 0 m 1
 418 289 l 1
 238 289 l 1
 198 0 l 1
 17 0 l 1
 114 695 l 1
 295 695 l 1
 258 432 l 1
 438 432 l 1
 475 695 l 1
 657 695 l 1
 560 0 l 1
 378 0 l 1
EndSplineSet
Substitution2: "'c2sc' Capitals to Small Capitals lookup 27 subtable" hcircumflex.sc
Substitution2: "'aalt' Access All Alternates lookup 0 subtable" hcircumflex.sc
Position2: "'cpsp' Capital Spacing lookup 0 subtable" dx=5 dy=0 dh=10 dv=0
EndChar

StartChar: hcircumflex
Encoding: 293 293 175
Width: 564
GlyphClass: 2
Flags: MW
HStem: 0 21G<14 189 14 14 306 481 306 306> 406 145<317.5 459> 531 20G<385 459> 741 20G<294 294>
VStem: 360.12 177.35
AnchorPoint: "Anchor-11" 245 0 basechar 0
AnchorPoint: "Anchor-10" 0 0 basechar 0
AnchorPoint: "Anchor-9" 349 743 basechar 0
AnchorPoint: "Anchor-8" 0 0 basechar 0
LayerCount: 2
Fore
SplineSet
376 887 m 1xb8
 232 801 l 1
 178 872 l 1
 337 1007 l 1
 443 1007 l 1
 564 872 l 1
 497 801 l 1
 376 887 l 1xb8
415 551 m 0
 503 551 549 491 535 390 c 2
 481 0 l 1
 306 0 l 1
 358 346 l 2
 366 395 352 406 332 406 c 0xd8
 303 406 265 360 229 285 c 1
 189 0 l 1
 14 0 l 1
 118 743 l 1
 294 761 l 1
 249 444 l 1
 287 508 355 551 415 551 c 0
EndSplineSet
Substitution2: "'smcp' Lowercase to Small Capitals lookup 24 subtable" hcircumflex.sc
Substitution2: "'aalt' Access All Alternates lookup 0 subtable" hcircumflex.sc
EndChar
StartChar: Hbar
Encoding: 294 294 108
Width: 672
GlyphClass: 2
Flags: MW
HStem: 0 21G<25 207 25 25 387 569 387 387> 289 143<267 426 247 447> 497 99<56 95 42 109 290 456 652 691> 497 198<42 304 42 304 276 276 276 304 123 456 638 666 638 638>
VStem: 25 680<0 596>
AnchorPoint: "Anchor-14" 346 347 basechar 0
AnchorPoint: "Anchor-13" 0 0 basechar 0
AnchorPoint: "Anchor-12" 394 695 basechar 0
AnchorPoint: "Anchor-11" 0 0 basechar 0
AnchorPoint: "Anchor-10" 298 0 basechar 0
LayerCount: 2
Back
Fore
SplineSet
705 596 m 1xe8
 691 497 l 1
 638 497 l 1
 569 0 l 1
 387 0 l 1
 426 289 l 1
 247 289 l 1
 207 0 l 1
 25 0 l 1
 95 497 l 1
 42 497 l 1xd8
 56 596 l 1
 109 596 l 1xe8
 123 695 l 1
 304 695 l 1xd8
 290 596 l 1
 470 596 l 1xe8
 484 695 l 1
 666 695 l 1xd8
 652 596 l 1
 705 596 l 1xe8
447 432 m 1
 456 497 l 1
 276 497 l 1
 267 432 l 1
 447 432 l 1
EndSplineSet
Substitution2: "'c2sc' Capitals to Small Capitals lookup 27 subtable" hbar.sc
Substitution2: "'aalt' Access All Alternates lookup 0 subtable" hbar.sc
Position2: "'cpsp' Capital Spacing lookup 0 subtable" dx=5 dy=0 dh=10 dv=0
EndChar
StartChar: hbar
Encoding: 295 295 469
Width: 573
GlyphClass: 2
Flags: MW
HStem: 0 21G<23 197 23 23 315 490 315 315> 406 145<324.5 469.5> 531 20G<393.5 469.5> 593 99<65 106 51 120 294 400> 723 20G<127 127> 741 20G<303 303>
VStem: 364 182.47
AnchorPoint: "Anchor-14" 291 266 basechar 0
AnchorPoint: "Anchor-13" 0 0 basechar 0
AnchorPoint: "Anchor-12" 358 743 basechar 0
AnchorPoint: "Anchor-11" 0 0 basechar 0
AnchorPoint: "Anchor-10" 257 0 basechar 0
LayerCount: 2
Back
Fore
SplineSet
427 551 m 0xb6
 512 551 558 491 544 389 c 2
 490 0 l 1
 315 0 l 1
 364 346 l 2
 371 394 359 406 341 406 c 0
 308 406 274 360 238 285 c 1
 197 0 l 1
 23 0 l 1
 106 593 l 1
 51 593 l 1
 65 692 l 1
 120 692 l 1
 127 743 l 1xda
 303 761 l 1
 294 692 l 1
 428 692 l 1
 400 593 l 1
 280 593 l 1
 260 447 l 1
 296 509 360 551 427 551 c 0xb6
EndSplineSet
Substitution2: "'smcp' Lowercase to Small Capitals lookup 28 subtable" hbar.sc
Substitution2: "'aalt' Access All Alternates lookup 0 subtable" hbar.sc
EndChar

StartChar: Itilde
Encoding: 296 296 53
Width: 289
GlyphClass: 2
Flags: MW
HStem: 0 21G<17 199 17 17> 675 20G<114 296 296 296> 754 126<269.5 296 269.5 305> 798 126<29 205.5 155.5 182.5>
VStem: 17 406
AnchorPoint: "Anchor-11" 0 0 basechar 0
AnchorPoint: "Anchor-10" -30 534 basechar 0
AnchorPoint: "Anchor-9" 205 695 basechar 0
AnchorPoint: "Anchor-8" 172 0 basechar 0
LayerCount: 2
Fore
SplineSet
276 754 m 0xe8
 227 754 197 798 168 798 c 0
 143 798 128 782 108 754 c 1
 29 798 l 1
 63 866 116 924 177 924 c 0xd8
 234 924 255 880 284 880 c 0
 308 880 324 896 344 924 c 1
 423 880 l 1
 388 810 334 754 276 754 c 0xe8
199 0 m 1xd8
 17 0 l 1
 114 695 l 1
 296 695 l 1
 199 0 l 1xd8
EndSplineSet
Substitution2: "'c2sc' Capitals to Small Capitals lookup 23 subtable" itilde.sc
Substitution2: "'aalt' Access All Alternates lookup 0 subtable" itilde.sc
Position2: "'cpsp' Capital Spacing lookup 0 subtable" dx=5 dy=0 dh=10 dv=0
EndChar
StartChar: itilde
Encoding: 297 297 496
Width: 277
GlyphClass: 2
Flags: MW
HStem: 0 21G<14 189 14 14> 513 20G<88 263 263 263> 628 126<244.5 271 244.5 280> 672 126<4 180.5 130.5 157.5>
VStem: 4 394<672 754>
AnchorPoint: "Anchor-14" 0 0 basechar 0
AnchorPoint: "Anchor-13" 0 0 basechar 0
AnchorPoint: "Anchor-12" 203 798 basechar 0
AnchorPoint: "Anchor-11" 161 0 basechar 0
AnchorPoint: "Anchor-10" 101 0 basechar 0
LayerCount: 2
Back
Fore
SplineSet
251 628 m 0xe8
 202 628 172 672 143 672 c 0xd8
 118 672 103 656 83 628 c 1xe8
 4 672 l 1xd8
 38 740 91 798 152 798 c 0
 209 798 230 754 259 754 c 0
 283 754 299 770 319 798 c 1
 398 754 l 1
 363 684 309 628 251 628 c 0xe8
263 533 m 1
 189 0 l 1
 14 0 l 1
 88 533 l 1
 263 533 l 1
EndSplineSet
Substitution2: "'smcp' Lowercase to Small Capitals lookup 28 subtable" itilde.sc
Substitution2: "'aalt' Access All Alternates lookup 0 subtable" itilde.sc
EndChar
StartChar: Imacron
Encoding: 298 298 129
Width: 289
GlyphClass: 2
Flags: MW
HStem: 0 21G<17 198 17 17> 675 20G<114 295 295 295> 778 121<78 371 61 388>
VStem: 17 371
AnchorPoint: "Anchor-14" 0 0 basechar 0
AnchorPoint: "Anchor-13" 0 0 basechar 0
AnchorPoint: "Anchor-12" 226 899 basechar 0
AnchorPoint: "Anchor-11" 168 0 basechar 0
AnchorPoint: "Anchor-10" 107 0 basechar 0
LayerCount: 2
Back
Fore
SplineSet
371 778 m 1
 61 778 l 1
 78 899 l 1
 388 899 l 1
 371 778 l 1
295 695 m 1
 198 0 l 1
 17 0 l 1
 114 695 l 1
 295 695 l 1
EndSplineSet
Substitution2: "'c2sc' Capitals to Small Capitals lookup 27 subtable" imacron.sc
Substitution2: "'aalt' Access All Alternates lookup 0 subtable" imacron.sc
Position2: "'cpsp' Capital Spacing lookup 0 subtable" dx=5 dy=0 dh=10 dv=0
EndChar
StartChar: imacron
Encoding: 299 299 492
Width: 277
GlyphClass: 2
Flags: MW
HStem: 0 21G<14 189 14 14> 513 20G<88 263 263 263> 652 121<53 346 36 363>
VStem: 14 349
AnchorPoint: "Anchor-14" 0 0 basechar 0
AnchorPoint: "Anchor-13" 0 0 basechar 0
AnchorPoint: "Anchor-12" 202 773 basechar 0
AnchorPoint: "Anchor-11" 161 0 basechar 0
AnchorPoint: "Anchor-10" 101 0 basechar 0
LayerCount: 2
Back
Fore
SplineSet
346 652 m 1
 36 652 l 1
 53 773 l 1
 363 773 l 1
 346 652 l 1
263 533 m 1
 189 0 l 1
 14 0 l 1
 88 533 l 1
 263 533 l 1
EndSplineSet
Substitution2: "'smcp' Lowercase to Small Capitals lookup 28 subtable" imacron.sc
Substitution2: "'aalt' Access All Alternates lookup 0 subtable" imacron.sc
EndChar
StartChar: Ibreve
Encoding: 300 300 118
Width: 289
GlyphClass: 2
Flags: MW
HStem: 0 21G<17 198 17 17> 675 20G<114 295 295 295> 748 122<202.5 247 202.5 269>
VStem: 61 93<924 937>
AnchorPoint: "Anchor-14" 0 0 basechar 0
AnchorPoint: "Anchor-13" 0 0 basechar 0
AnchorPoint: "Anchor-12" 238 940 basechar 0
AnchorPoint: "Anchor-11" 168 0 basechar 0
AnchorPoint: "Anchor-10" 107 0 basechar 0
LayerCount: 2
Back
Fore
SplineSet
214 748 m 0
 102 748 56 835 61 924 c 1
 154 937 l 1
 159 900 181 870 224 870 c 0
 270 870 301 902 317 940 c 1
 412 921 l 1
 392 832 324 748 214 748 c 0
295 695 m 1
 198 0 l 1
 17 0 l 1
 114 695 l 1
 295 695 l 1
EndSplineSet
Substitution2: "'c2sc' Capitals to Small Capitals lookup 27 subtable" ibreve.sc
Substitution2: "'aalt' Access All Alternates lookup 0 subtable" ibreve.sc
Position2: "'cpsp' Capital Spacing lookup 0 subtable" dx=5 dy=0 dh=10 dv=0
EndChar

StartChar: ibreve
Encoding: 301 301 179
Width: 277
GlyphClass: 2
Flags: MW
HStem: 0 21G<14 189 14 14> 513 20G<88 263 263 263> 629 122<181.5 226 181.5 246.5>
VStem: 39 95<815 828>
AnchorPoint: "Anchor-11" 0 0 basechar 0
AnchorPoint: "Anchor-10" 0 0 basechar 0
AnchorPoint: "Anchor-9" 175 533 basechar 0
AnchorPoint: "Anchor-8" 167 0 basechar 0
LayerCount: 2
Fore
SplineSet
192 629 m 0
 80 629 34 716 39 815 c 1
 134 828 l 1
 137 781 160 751 203 751 c 0
 249 751 281 783 299 831 c 1
 390 812 l 1
 370 713 301 629 192 629 c 0
189 0 m 1
 14 0 l 1
 88 533 l 1
 263 533 l 1
 189 0 l 1
EndSplineSet
Substitution2: "'smcp' Lowercase to Small Capitals lookup 24 subtable" ibreve.sc
Substitution2: "'aalt' Access All Alternates lookup 0 subtable" ibreve.sc
EndChar

StartChar: Iogonek
Encoding: 302 302 52
Width: 289
GlyphClass: 2
Flags: MW
HStem: -250 107<4 86> 0 21G<164 199 164 164> 675 20G<114 296 296 296>
VStem: -94 126<-121.5 -112.5>
AnchorPoint: "Anchor-11" 0 0 basechar 0
AnchorPoint: "Anchor-10" -30 534 basechar 0
AnchorPoint: "Anchor-9" 205 695 basechar 0
AnchorPoint: "Anchor-8" 172 0 basechar 0
LayerCount: 2
Fore
SplineSet
296 695 m 1
 199 0 l 1
 164 0 l 1
 50 -39 32 -84 32 -110 c 0
 32 -133 48 -143 76 -143 c 0
 96 -143 116 -140 138 -135 c 1
 115 -242 l 1
 93 -247 69 -250 44 -250 c 0
 -36 -250 -94 -209 -94 -142 c 0
 -94 -83 -60 -30 19 11 c 1
 114 695 l 1
 296 695 l 1
EndSplineSet
Substitution2: "'c2sc' Capitals to Small Capitals lookup 23 subtable" iogonek.sc
Substitution2: "'aalt' Access All Alternates lookup 0 subtable" iogonek.sc
Position2: "'cpsp' Capital Spacing lookup 0 subtable" dx=5 dy=0 dh=10 dv=0
EndChar

StartChar: iogonek
Encoding: 303 303 186
Width: 277
GlyphClass: 2
Flags: MW
HStem: -250 107<-1 81> 0 21G<159 189 159 159> 513 20G<88 263 263 263> 624 196<184 219>
VStem: -99 126<-121.5 -112> 101 201
AnchorPoint: "Anchor-11" 0 0 basechar 0
AnchorPoint: "Anchor-10" 0 0 basechar 0
AnchorPoint: "Anchor-9" 175 533 basechar 0
AnchorPoint: "Anchor-8" 167 0 basechar 0
LayerCount: 2
Fore
SplineSet
213 820 m 0
 274 820 309 776 302 718 c 0
 295 665 248 624 190 624 c 0
 130 624 94 668 101 725 c 1
 109 779 155 820 213 820 c 0
88 533 m 1
 263 533 l 1
 189 0 l 1
 159 0 l 1
 45 -39 27 -84 27 -110 c 0
 27 -133 43 -143 71 -143 c 0
 91 -143 111 -140 133 -135 c 1
 110 -242 l 1
 88 -247 64 -250 39 -250 c 0
 -41 -250 -99 -209 -99 -142 c 0
 -99 -82 -65 -29 16 12 c 1
 88 533 l 1
EndSplineSet
Substitution2: "'smcp' Lowercase to Small Capitals lookup 24 subtable" iogonek.sc
Substitution2: "'aalt' Access All Alternates lookup 0 subtable" iogonek.sc
EndChar

StartChar: Idotaccent
Encoding: 304 304 49
Width: 289
GlyphClass: 2
Flags: MW
HStem: 0 21G<17 199 17 17> 675 20G<114 296 296 296> 750 196<209 244>
VStem: 126 201
AnchorPoint: "Anchor-11" 0 0 basechar 0
AnchorPoint: "Anchor-10" -30 534 basechar 0
AnchorPoint: "Anchor-9" 205 695 basechar 0
AnchorPoint: "Anchor-8" 172 0 basechar 0
LayerCount: 2
Fore
SplineSet
238 946 m 0
 299 946 334 902 327 844 c 0
 320 791 273 750 215 750 c 0
 155 750 119 794 126 851 c 1
 134 905 180 946 238 946 c 0
199 0 m 1
 17 0 l 1
 114 695 l 1
 296 695 l 1
 199 0 l 1
EndSplineSet
Substitution2: "'c2sc' Capitals to Small Capitals lookup 23 subtable" i.sc.loclTRK
Substitution2: "'aalt' Access All Alternates lookup 0 subtable" i.sc.loclTRK
Position2: "'cpsp' Capital Spacing lookup 0 subtable" dx=5 dy=0 dh=10 dv=0
EndChar
StartChar: dotlessi
Encoding: 305 305 478
Width: 277
GlyphClass: 2
Flags: MW
HStem: 0 21G<14 189 14 14> 513 20G<88 263 263 263>
VStem: 14 249
AnchorPoint: "Anchor-14" 0 0 basechar 0
AnchorPoint: "Anchor-13" 0 0 basechar 0
AnchorPoint: "Anchor-12" 175 533 basechar 0
AnchorPoint: "Anchor-11" 161 0 basechar 0
AnchorPoint: "Anchor-10" 101 0 basechar 0
LayerCount: 2
Back
Fore
SplineSet
263 533 m 1
 189 0 l 1
 14 0 l 1
 88 533 l 1
 263 533 l 1
EndSplineSet
Substitution2: "'smcp' Lowercase to Small Capitals lookup 28 subtable" dotlessi.sc
Substitution2: "'aalt' Access All Alternates lookup 0 subtable" dotlessi.sc
EndChar

StartChar: IJ
Encoding: 306 306 44
Width: 602
GlyphClass: 2
Flags: MW
HStem: 0 21G<17 199 17 17> 675 20G<114 296 296 296 429 611 611 611>
VStem: 17 594
AnchorPoint: "Anchor-11" 0 0 basechar 0
AnchorPoint: "Anchor-10" -30 534 basechar 0
AnchorPoint: "Anchor-9" 520 695 basechar 0
AnchorPoint: "Anchor-8" 172 0 basechar 0
LayerCount: 2
Fore
SplineSet
199 0 m 1
 17 0 l 1
 114 695 l 1
 296 695 l 1
 199 0 l 1
529 107 m 2
 503 -78 380 -140 258 -179 c 1
 225 -48 l 1
 318 -14 337 36 348 116 c 2
 429 695 l 1
 611 695 l 1
 529 107 l 2
EndSplineSet
Substitution2: "'c2sc' Capitals to Small Capitals lookup 23 subtable" ij.sc
Substitution2: "'aalt' Access All Alternates lookup 0 subtable" ij.sc
Position2: "'cpsp' Capital Spacing lookup 0 subtable" dx=5 dy=0 dh=10 dv=0
EndChar

StartChar: ij
Encoding: 307 307 184
Width: 549
GlyphClass: 2
Flags: MW
HStem: -224 21G<208 208> 0 21G<14 189 14 14> 513 20G<88 263 263 263 361 536 536 536> 624 196<184 219 457 492>
VStem: 101 201 374 201
AnchorPoint: "Anchor-11" 0 0 basechar 0
AnchorPoint: "Anchor-10" 0 0 basechar 0
AnchorPoint: "Anchor-9" 448 533 basechar 0
AnchorPoint: "Anchor-8" 167 0 basechar 0
LayerCount: 2
Fore
SplineSet
213 820 m 0
 274 820 309 776 302 718 c 0
 295 665 248 624 190 624 c 0
 130 624 94 668 101 725 c 1
 109 779 155 820 213 820 c 0
486 820 m 0
 547 820 582 776 575 718 c 0
 568 665 521 624 463 624 c 0
 403 624 367 668 374 725 c 1
 382 779 428 820 486 820 c 0
189 0 m 1
 14 0 l 1
 88 533 l 1
 263 533 l 1
 189 0 l 1
470 67 m 2
 445 -114 339 -180 208 -224 c 1
 165 -97 l 1
 242 -69 282 -33 295 59 c 2
 361 533 l 1
 536 533 l 1
 470 67 l 2
EndSplineSet
Substitution2: "'smcp' Lowercase to Small Capitals lookup 24 subtable" ij.sc
Substitution2: "'aalt' Access All Alternates lookup 0 subtable" ij.sc
EndChar

StartChar: Jcircumflex
Encoding: 308 308 55
Width: 313
GlyphClass: 2
Flags: MW
HStem: 675 20G<140 322 322 322>
VStem: -64 511
AnchorPoint: "Anchor-11" 0 0 basechar 0
AnchorPoint: "Anchor-10" 0 0 basechar 0
AnchorPoint: "Anchor-9" 231 695 basechar 0
AnchorPoint: "Anchor-8" 0 0 basechar 0
LayerCount: 2
Fore
SplineSet
259 839 m 1
 115 753 l 1
 61 824 l 1
 220 959 l 1
 326 959 l 1
 447 824 l 1
 380 753 l 1
 259 839 l 1
240 107 m 2
 214 -78 91 -140 -31 -179 c 1
 -64 -48 l 1
 29 -14 48 36 59 116 c 2
 140 695 l 1
 322 695 l 1
 240 107 l 2
EndSplineSet
Substitution2: "'c2sc' Capitals to Small Capitals lookup 23 subtable" jcircumflex.sc
Substitution2: "'aalt' Access All Alternates lookup 0 subtable" jcircumflex.sc
Position2: "'cpsp' Capital Spacing lookup 0 subtable" dx=5 dy=0 dh=10 dv=0
EndChar

StartChar: jcircumflex
Encoding: 309 309 190
Width: 272
GlyphClass: 2
Flags: MW
HStem: -224 21G<-69 -69> 513 20G<84 259 259 259>
VStem: -112 498
AnchorPoint: "Anchor-11" 0 0 basechar 0
AnchorPoint: "Anchor-10" 0 0 basechar 0
AnchorPoint: "Anchor-9" 171 533 basechar 0
AnchorPoint: "Anchor-8" 0 0 basechar 0
LayerCount: 2
Fore
SplineSet
0 687 m 1
 160 831 l 1
 266 831 l 1
 386 687 l 1
 317 616 l 1
 199 710 l 1
 54 616 l 1
 0 687 l 1
193 67 m 2
 168 -114 62 -180 -69 -224 c 1
 -112 -97 l 1
 -35 -69 5 -33 18 59 c 2
 84 533 l 1
 259 533 l 1
 193 67 l 2
EndSplineSet
Substitution2: "'smcp' Lowercase to Small Capitals lookup 24 subtable" jcircumflex.sc
Substitution2: "'aalt' Access All Alternates lookup 0 subtable" jcircumflex.sc
EndChar

StartChar: Kcommaaccent
Encoding: 310 310 57
Width: 635
GlyphClass: 2
Flags: MW
HStem: -217 21G<213 213> 0 21G<17 198 17 17 408 408 408 614> 675 20G<114 295 295 295 502 693 693 693>
VStem: 17 676 183 169<-156.5 -131>
AnchorPoint: "Anchor-11" 286 0 basechar 0
AnchorPoint: "Anchor-10" 0 0 basechar 0
AnchorPoint: "Anchor-9" 385 695 basechar 0
AnchorPoint: "Anchor-8" 0 0 basechar 0
LayerCount: 2
Fore
SplineSet
198 0 m 1xf0
 17 0 l 1
 114 695 l 1
 295 695 l 1
 198 0 l 1xf0
442 375 m 1
 614 0 l 1
 408 0 l 1
 256 370 l 1
 502 695 l 1
 693 695 l 1
 442 375 l 1
277 -65 m 0xe8
 323 -65 352 -97 352 -140 c 0
 352 -173 340 -198 314 -238 c 2
 253 -333 l 1
 168 -333 l 1
 213 -217 l 1
 195 -204 183 -185 183 -160 c 0
 183 -102 226 -65 277 -65 c 0xe8
EndSplineSet
Substitution2: "'c2sc' Capitals to Small Capitals lookup 23 subtable" kcommaaccent.sc
Substitution2: "'aalt' Access All Alternates lookup 0 subtable" kcommaaccent.sc
Position2: "'cpsp' Capital Spacing lookup 0 subtable" dx=5 dy=0 dh=10 dv=0
EndChar
StartChar: kcommaaccent
Encoding: 311 311 507
Width: 573
GlyphClass: 2
Flags: MW
HStem: -217 21G<185 185> 0 21G<13 189 13 13 338 529 338 338> 429 122<338.5 474> 531 20G<396 474> 741 20G<294 294>
VStem: 155 169<-156.5 -131.5> 398 177<381 403>
AnchorPoint: "Anchor-14" 0 0 basechar 0
AnchorPoint: "Anchor-13" 0 0 basechar 0
AnchorPoint: "Anchor-12" 378 743 basechar 0
AnchorPoint: "Anchor-11" 0 0 basechar 0
AnchorPoint: "Anchor-10" 261 0 basechar 0
LayerCount: 2
Back
Fore
SplineSet
294 761 m 1xde
 254 470 l 1
 308 528 364 551 428 551 c 0
 520 551 575 499 575 422 c 0
 575 340 531 278 437 237 c 1
 529 0 l 1
 338 0 l 1
 251 256 l 1
 365 294 398 339 398 390 c 0
 398 416 383 429 357 429 c 0
 320 429 278 402 234 333 c 1xee
 189 0 l 1
 13 0 l 1
 117 743 l 1
 294 761 l 1xde
245 -65 m 0
 291 -65 324 -96 324 -140 c 0
 324 -173 312 -198 286 -238 c 2
 225 -333 l 1
 140 -333 l 1
 185 -217 l 1
 167 -204 155 -185 155 -160 c 0
 155 -103 196 -65 245 -65 c 0
EndSplineSet
Substitution2: "'smcp' Lowercase to Small Capitals lookup 28 subtable" kcommaaccent.sc
Substitution2: "'aalt' Access All Alternates lookup 0 subtable" kcommaaccent.sc
EndChar

StartChar: kgreenlandic
Encoding: 312 312 193
Width: 552
GlyphClass: 2
Flags: MW
HStem: 0 21G<14 189 14 14 338 338 338 528> 513 20G<88 263 263 263 406 592 592 592>
VStem: 14 578<0 533>
LayerCount: 2
Fore
SplineSet
189 0 m 1
 14 0 l 1
 88 533 l 1
 263 533 l 1
 189 0 l 1
411 284 m 1
 528 0 l 1
 338 0 l 1
 231 281 l 1
 406 533 l 1
 592 533 l 1
 411 284 l 1
EndSplineSet
Substitution2: "'smcp' Lowercase to Small Capitals lookup 24 subtable" kgreenlandic.sc
Substitution2: "'aalt' Access All Alternates lookup 0 subtable" kgreenlandic.sc
EndChar
StartChar: lacute
Encoding: 314 314 512
Width: 288
GlyphClass: 2
Flags: MW
HStem: -18 21G<110 176.5> 741 20G<289 289>
VStem: 25.33 178.67 25.33 342.67
AnchorPoint: "Anchor-14" 379 374 basechar 0
AnchorPoint: "Anchor-13" 304 743 basechar 0
AnchorPoint: "Anchor-12" 224 1019 basechar 0
AnchorPoint: "Anchor-11" 0 0 basechar 0
AnchorPoint: "Anchor-10" 147 0 basechar 0
LayerCount: 2
Back
Fore
SplineSet
303 1019 m 1xd0
 368 888 l 1
 123 792 l 1
 76 882 l 1
 303 1019 l 1xd0
289 761 m 1
 204 158 l 2
 200 129 209 122 224 122 c 0
 231 122 239 124 247 126 c 1
 265 2 l 1
 236 -11 195 -18 158 -18 c 0xe0
 62 -18 13 39 28 146 c 2
 112 743 l 1
 289 761 l 1
EndSplineSet
Substitution2: "'smcp' Lowercase to Small Capitals lookup 28 subtable" lacute.sc
Substitution2: "'aalt' Access All Alternates lookup 0 subtable" lacute.sc
EndChar

StartChar: Lcommaaccent
Encoding: 315 315 61
Width: 510
GlyphClass: 2
Flags: MW
HStem: -217 21G<156 156> 0 144<218 441> 675 20G<114 295 295 295>
VStem: 17 463<0 144> 126 169<-156.5 -131>
AnchorPoint: "Anchor-11" 229 0 basechar 0
AnchorPoint: "Anchor-10" 0 0 basechar 0
AnchorPoint: "Anchor-9" 204 695 basechar 0
AnchorPoint: "Anchor-8" 0 0 basechar 0
LayerCount: 2
Fore
SplineSet
218 144 m 1xf0
 480 144 l 1
 441 0 l 1
 17 0 l 1
 114 695 l 1
 295 695 l 1
 218 144 l 1xf0
220 -65 m 0xe8
 266 -65 295 -97 295 -140 c 0
 295 -173 283 -198 257 -238 c 2
 196 -333 l 1
 111 -333 l 1
 156 -217 l 1
 138 -204 126 -185 126 -160 c 0
 126 -102 169 -65 220 -65 c 0xe8
EndSplineSet
Substitution2: "'c2sc' Capitals to Small Capitals lookup 23 subtable" lcommaaccent.sc
Substitution2: "'aalt' Access All Alternates lookup 0 subtable" lcommaaccent.sc
Position2: "'cpsp' Capital Spacing lookup 0 subtable" dx=5 dy=0 dh=10 dv=0
EndChar

StartChar: lcommaaccent
Encoding: 316 316 197
Width: 289
GlyphClass: 2
Flags: MW
HStem: -217 21G<64 64> -18 21G<110.5 177> 741 20G<289 289>
VStem: 26.33 178.67 34 169<-156.5 -131>
AnchorPoint: "Anchor-11" 140 0 basechar 0
AnchorPoint: "Anchor-10" 0 0 basechar 0
AnchorPoint: "Anchor-9" 200 743 basechar 0
AnchorPoint: "Anchor-8" 0 0 basechar 0
LayerCount: 2
Fore
SplineSet
205 158 m 2xf0
 201 129 210 122 225 122 c 0
 231 122 240 124 248 126 c 1
 266 2 l 1
 237 -11 196 -18 158 -18 c 0
 63 -18 14 39 29 146 c 2
 113 743 l 1
 289 761 l 1
 205 158 l 2xf0
128 -65 m 0xe8
 174 -65 203 -97 203 -140 c 0
 203 -173 191 -198 165 -238 c 2
 104 -333 l 1
 19 -333 l 1
 64 -217 l 1
 46 -204 34 -185 34 -160 c 0
 34 -102 77 -65 128 -65 c 0xe8
EndSplineSet
Substitution2: "'smcp' Lowercase to Small Capitals lookup 24 subtable" lcommaaccent.sc
Substitution2: "'aalt' Access All Alternates lookup 0 subtable" lcommaaccent.sc
EndChar
StartChar: Lcaron
Encoding: 317 317 145
Width: 510
GlyphClass: 2
Flags: MW
HStem: 0 144<218 441> 675 20G<114 295 295 295> 690 20G<350 350>
VStem: 17 463<0 144>
AnchorPoint: "Anchor-14" 413 401 basechar 0
AnchorPoint: "Anchor-13" 315 695 basechar 0
AnchorPoint: "Anchor-12" 204 695 basechar 0
AnchorPoint: "Anchor-11" 0 0 basechar 0
AnchorPoint: "Anchor-10" 229 0 basechar 0
LayerCount: 2
Back
Fore
SplineSet
350 710 m 1xb0
 476 694 l 1
 398 469 l 1
 310 477 l 1
 350 710 l 1xb0
295 695 m 1xd0
 218 144 l 1
 480 144 l 1
 441 0 l 1
 17 0 l 1
 114 695 l 1
 295 695 l 1xd0
EndSplineSet
Substitution2: "'c2sc' Capitals to Small Capitals lookup 27 subtable" lcaron.sc
Substitution2: "'aalt' Access All Alternates lookup 0 subtable" lcaron.sc
Position2: "'cpsp' Capital Spacing lookup 0 subtable" dx=5 dy=0 dh=10 dv=0
EndChar

StartChar: lcaron
Encoding: 318 318 196
Width: 402
GlyphClass: 2
Flags: MW
HStem: -18 21G<75.5 142> 738 20G<331 331> 741 20G<254 254>
VStem: -8.67 178.67 -8.67 465.67
AnchorPoint: "Anchor-11" 105 0 basechar 0
AnchorPoint: "Anchor-10" 0 0 basechar 0
AnchorPoint: "Anchor-9" 165 743 basechar 0
AnchorPoint: "Anchor-8" 0 0 basechar 0
LayerCount: 2
Fore
SplineSet
170 158 m 2xb0
 166 129 175 122 190 122 c 0
 196 122 205 124 213 126 c 1
 231 2 l 1
 202 -11 161 -18 123 -18 c 0
 28 -18 -21 39 -6 146 c 2
 78 743 l 1
 254 761 l 1
 170 158 l 2xb0
457 742 m 1
 379 517 l 1
 291 525 l 1
 331 758 l 1xc8
 457 742 l 1
EndSplineSet
Substitution2: "'smcp' Lowercase to Small Capitals lookup 24 subtable" lcaron.sc
Substitution2: "'aalt' Access All Alternates lookup 0 subtable" lcaron.sc
EndChar
StartChar: Ldot
Encoding: 319 319 148
Width: 510
GlyphClass: 2
Flags: MW
HStem: 0 144<218 441> 303 196<395 430> 675 20G<114 295 295 295>
VStem: 17 496.68
AnchorPoint: "Anchor-14" 413 401 basechar 0
AnchorPoint: "Anchor-13" 315 695 basechar 0
AnchorPoint: "Anchor-12" 425 499 basechar 0
AnchorPoint: "Anchor-11" 0 0 basechar 0
AnchorPoint: "Anchor-10" 229 0 basechar 0
LayerCount: 2
Back
Fore
SplineSet
295 695 m 1
 218 144 l 1
 480 144 l 1
 441 0 l 1
 17 0 l 1
 114 695 l 1
 295 695 l 1
424 499 m 0
 485 499 520 455 513 397 c 0
 506 344 459 303 401 303 c 0
 341 303 305 347 312 404 c 0
 320 458 366 499 424 499 c 0
EndSplineSet
Ligature2: "Ligature Substitution lookup 40 subtable" L periodcentered
Substitution2: "'c2sc' Capitals to Small Capitals lookup 27 subtable" ldot.sc
Substitution2: "'aalt' Access All Alternates lookup 0 subtable" ldot.sc
Position2: "'cpsp' Capital Spacing lookup 0 subtable" dx=5 dy=0 dh=10 dv=0
EndChar
StartChar: ldot
Encoding: 320 320 520
Width: 466
GlyphClass: 2
Flags: MW
HStem: -18 21G<110 176.5> 276 196<361 396> 741 20G<289 289>
VStem: 25.33 178.67 25.33 454.35
AnchorPoint: "Anchor-14" 379 374 basechar 0
AnchorPoint: "Anchor-13" 304 743 basechar 0
AnchorPoint: "Anchor-12" 391 472 basechar 0
AnchorPoint: "Anchor-11" 0 0 basechar 0
AnchorPoint: "Anchor-10" 147 0 basechar 0
LayerCount: 2
Back
Fore
SplineSet
289 761 m 1xe8
 204 158 l 2
 200 129 209 122 224 122 c 0
 231 122 239 124 247 126 c 1
 265 2 l 1
 236 -11 195 -18 158 -18 c 0xf0
 62 -18 13 39 28 146 c 2
 112 743 l 1
 289 761 l 1xe8
390 472 m 0
 451 472 486 428 479 370 c 0
 472 317 425 276 367 276 c 0
 307 276 271 320 278 377 c 0
 286 431 332 472 390 472 c 0
EndSplineSet
Ligature2: "Ligature Substitution lookup 40 subtable" l periodcentered
Substitution2: "'smcp' Lowercase to Small Capitals lookup 28 subtable" ldot.sc
Substitution2: "'aalt' Access All Alternates lookup 0 subtable" ldot.sc
EndChar
StartChar: Lslash
Encoding: 321 321 151
Width: 551
GlyphClass: 2
Flags: MW
HStem: 0 144<259 482> 513 20G<429 429> 675 20G<154 336 336 336>
VStem: 4 516<144 286>
LayerCount: 2
Back
Fore
SplineSet
520 144 m 1
 482 0 l 1
 57 0 l 1
 88 214 l 1
 48 191 l 1
 4 286 l 1
 105 345 l 1
 154 695 l 1
 336 695 l 1
 303 460 l 1
 429 533 l 1
 475 439 l 1
 285 328 l 1
 259 144 l 1
 520 144 l 1
EndSplineSet
Substitution2: "'c2sc' Capitals to Small Capitals lookup 27 subtable" lslash.sc
Substitution2: "'aalt' Access All Alternates lookup 0 subtable" lslash.sc
Position2: "'cpsp' Capital Spacing lookup 0 subtable" dx=5 dy=0 dh=10 dv=0
EndChar

StartChar: lslash
Encoding: 322 322 199
Width: 347
GlyphClass: 2
Flags: MW
HStem: -18 21G<139.5 206> 522 20G<346 346> 741 20G<319 319>
VStem: 55.33 178.67
AnchorPoint: "Anchor-11" 169 0 basechar 0
AnchorPoint: "Anchor-10" 0 0 basechar 0
AnchorPoint: "Anchor-9" 229 743 basechar 0
AnchorPoint: "Anchor-8" 0 0 basechar 0
LayerCount: 2
Fore
SplineSet
254 122 m 0
 260 122 269 124 277 126 c 1
 295 2 l 1
 266 -11 225 -18 187 -18 c 0
 92 -18 43 39 58 146 c 2
 74 263 l 1
 28 236 l 1
 1 343 l 1
 93 396 l 1
 142 743 l 1
 319 761 l 1
 283 506 l 1
 346 542 l 1
 370 433 l 1
 264 372 l 1
 234 158 l 2
 230 129 239 122 254 122 c 0
EndSplineSet
Substitution2: "'smcp' Lowercase to Small Capitals lookup 24 subtable" lslash.sc
Substitution2: "'aalt' Access All Alternates lookup 0 subtable" lslash.sc
EndChar

StartChar: Nacute
Encoding: 323 323 66
Width: 646
GlyphClass: 2
Flags: MW
HStem: 0 21G<17 176 17 17 326 556 326 326> 0 152<449 449 449 556 326 449> 542 153<220 220> 675 20G<114 340 340 340 493 653 653 653>
VStem: 17 636
AnchorPoint: "Anchor-11" 287 0 basechar 0
AnchorPoint: "Anchor-10" 0 0 basechar 0
AnchorPoint: "Anchor-9" 386 695 basechar 0
AnchorPoint: "Anchor-8" 0 0 basechar 0
LayerCount: 2
Fore
SplineSet
553 840 m 1x98
 308 744 l 1
 261 834 l 1
 488 971 l 1
 553 840 l 1x98
556 0 m 1
 326 0 l 1
 220 542 l 1xa8
 224 456 227 362 208 225 c 2
 176 0 l 1
 17 0 l 1
 114 695 l 1
 340 695 l 1
 449 152 l 1x58
 444 250 441 326 459 452 c 2
 493 695 l 1
 653 695 l 1
 556 0 l 1
EndSplineSet
Substitution2: "'c2sc' Capitals to Small Capitals lookup 23 subtable" nacute.sc
Substitution2: "'locl' Localized Forms in Latin lookup 7 subtable" Nacute.loclPLK
AlternateSubs2: "'aalt' Access All Alternates lookup 1 subtable" Nacute.loclPLK nacute.sc
Position2: "'cpsp' Capital Spacing lookup 0 subtable" dx=5 dy=0 dh=10 dv=0
EndChar
StartChar: nacute
Encoding: 324 324 536
Width: 564
GlyphClass: 2
Flags: MW
HStem: 0 21G<14 189 14 14 306 481 306 306> 406 127<88 340.5> 513 20G<88 240 240 240> 531 20G<384 461>
VStem: 355 182.47
AnchorPoint: "Anchor-14" 0 0 basechar 0
AnchorPoint: "Anchor-13" 0 0 basechar 0
AnchorPoint: "Anchor-12" 353 846 basechar 0
AnchorPoint: "Anchor-11" 0 0 basechar 0
AnchorPoint: "Anchor-10" 248 0 basechar 0
LayerCount: 2
Back
Fore
SplineSet
445 846 m 1x98
 494 714 l 1
 242 618 l 1
 207 707 l 1
 445 846 l 1x98
419 551 m 0
 503 551 549 491 535 389 c 2
 481 0 l 1
 306 0 l 1
 355 346 l 2
 362 394 350 406 331 406 c 0xc8
 299 406 265 360 229 285 c 1
 189 0 l 1
 14 0 l 1
 88 533 l 1
 240 533 l 1xa8
 239 442 l 1
 282 508 349 551 419 551 c 0
EndSplineSet
Substitution2: "'smcp' Lowercase to Small Capitals lookup 28 subtable" nacute.sc
Substitution2: "'locl' Localized Forms in Latin lookup 7 subtable" nacute.loclPLK
AlternateSubs2: "'aalt' Access All Alternates lookup 1 subtable" nacute.loclPLK nacute.sc
EndChar

StartChar: Ncommaaccent
Encoding: 325 325 68
Width: 646
GlyphClass: 2
Flags: MW
HStem: -217 21G<214 214> 0 21G<17 176 17 17 326 556 326 326> 0 152<449 449 449 556 326 449> 542 153<220 220> 675 20G<114 340 340 340 493 653 653 653>
VStem: 17 636 184 169<-156.5 -131>
AnchorPoint: "Anchor-11" 287 0 basechar 0
AnchorPoint: "Anchor-10" 0 0 basechar 0
AnchorPoint: "Anchor-9" 386 695 basechar 0
AnchorPoint: "Anchor-8" 0 0 basechar 0
LayerCount: 2
Fore
SplineSet
556 0 m 1xcc
 326 0 l 1
 220 542 l 1xd4
 224 456 227 362 208 225 c 2
 176 0 l 1
 17 0 l 1
 114 695 l 1
 340 695 l 1
 449 152 l 1xac
 444 250 441 326 459 452 c 2
 493 695 l 1
 653 695 l 1
 556 0 l 1xcc
278 -65 m 0xca
 324 -65 353 -97 353 -140 c 0
 353 -173 341 -198 315 -238 c 2
 254 -333 l 1
 169 -333 l 1
 214 -217 l 1
 196 -204 184 -185 184 -160 c 0
 184 -102 227 -65 278 -65 c 0xca
EndSplineSet
Substitution2: "'c2sc' Capitals to Small Capitals lookup 23 subtable" ncommaaccent.sc
Substitution2: "'aalt' Access All Alternates lookup 0 subtable" ncommaaccent.sc
Position2: "'cpsp' Capital Spacing lookup 0 subtable" dx=5 dy=0 dh=10 dv=0
EndChar
StartChar: ncommaaccent
Encoding: 326 326 540
Width: 564
GlyphClass: 2
Flags: MW
HStem: -217 21G<172 172> 0 21G<14 189 14 14 306 481 306 306> 406 127<88 340.5> 513 20G<88 240 240 240> 531 20G<384 461>
VStem: 142 169<-156.5 -131.5> 355 182.47
AnchorPoint: "Anchor-14" 0 0 basechar 0
AnchorPoint: "Anchor-13" 0 0 basechar 0
AnchorPoint: "Anchor-12" 323 533 basechar 0
AnchorPoint: "Anchor-11" 0 0 basechar 0
AnchorPoint: "Anchor-10" 248 0 basechar 0
LayerCount: 2
Back
Fore
SplineSet
419 551 m 0xce
 503 551 549 491 535 389 c 2
 481 0 l 1
 306 0 l 1
 355 346 l 2
 362 394 350 406 331 406 c 0xe6
 299 406 265 360 229 285 c 1
 189 0 l 1
 14 0 l 1
 88 533 l 1
 240 533 l 1xd6
 239 442 l 1
 282 508 349 551 419 551 c 0xce
232 -65 m 0
 278 -65 311 -96 311 -140 c 0
 311 -173 299 -198 273 -238 c 2
 212 -333 l 1
 127 -333 l 1
 172 -217 l 1
 154 -204 142 -185 142 -160 c 0
 142 -103 183 -65 232 -65 c 0
EndSplineSet
Substitution2: "'smcp' Lowercase to Small Capitals lookup 28 subtable" ncommaaccent.sc
Substitution2: "'aalt' Access All Alternates lookup 0 subtable" ncommaaccent.sc
EndChar
StartChar: Ncaron
Encoding: 327 327 159
Width: 646
GlyphClass: 2
Flags: MW
HStem: 0 21G<17 176 17 17 326 556 326 326> 0 152<449 449 449 556 326 449> 542 153<220 220> 675 20G<114 340 340 340 493 653 653 653>
VStem: 17 636
AnchorPoint: "Anchor-14" 0 0 basechar 0
AnchorPoint: "Anchor-13" 0 0 basechar 0
AnchorPoint: "Anchor-12" 409 954 basechar 0
AnchorPoint: "Anchor-11" 0 0 basechar 0
AnchorPoint: "Anchor-10" 287 0 basechar 0
LayerCount: 2
Back
Fore
SplineSet
546 954 m 1x98
 600 883 l 1
 441 748 l 1
 336 748 l 1
 214 883 l 1
 282 954 l 1
 402 869 l 1
 546 954 l 1x98
653 695 m 1
 556 0 l 1
 326 0 l 1
 220 542 l 1xa8
 224 456 227 362 208 225 c 2
 176 0 l 1
 17 0 l 1
 114 695 l 1
 340 695 l 1
 449 152 l 1x58
 444 250 441 326 459 452 c 2
 493 695 l 1
 653 695 l 1
EndSplineSet
Substitution2: "'c2sc' Capitals to Small Capitals lookup 27 subtable" ncaron.sc
Substitution2: "'aalt' Access All Alternates lookup 0 subtable" ncaron.sc
Position2: "'cpsp' Capital Spacing lookup 0 subtable" dx=5 dy=0 dh=10 dv=0
EndChar
StartChar: ncaron
Encoding: 328 328 538
Width: 564
GlyphClass: 2
Flags: MW
HStem: 0 21G<14 189 14 14 306 481 306 306> 406 127<88 340.5> 513 20G<88 240 240 240> 531 20G<384 461> 731 20G<159 159 545 545>
VStem: 355 182.47
AnchorPoint: "Anchor-14" 0 0 basechar 0
AnchorPoint: "Anchor-13" 0 0 basechar 0
AnchorPoint: "Anchor-12" 354 822 basechar 0
AnchorPoint: "Anchor-11" 0 0 basechar 0
AnchorPoint: "Anchor-10" 248 0 basechar 0
LayerCount: 2
Back
Fore
SplineSet
490 822 m 1x9c
 545 751 l 1
 386 607 l 1
 280 607 l 1
 159 751 l 1
 225 822 l 1
 344 728 l 1
 490 822 l 1x9c
419 551 m 0
 503 551 549 491 535 389 c 2
 481 0 l 1
 306 0 l 1
 355 346 l 2
 362 394 350 406 331 406 c 0xcc
 299 406 265 360 229 285 c 1
 189 0 l 1
 14 0 l 1
 88 533 l 1
 240 533 l 1xac
 239 442 l 1
 282 508 349 551 419 551 c 0
EndSplineSet
Substitution2: "'smcp' Lowercase to Small Capitals lookup 28 subtable" ncaron.sc
Substitution2: "'aalt' Access All Alternates lookup 0 subtable" ncaron.sc
EndChar

StartChar: napostrophe
Encoding: 329 329 203
Width: 679
GlyphClass: 2
Flags: MW
HStem: 0 21G<14 189 14 14 306 481 306 306> 406 127<88 342> 513 20G<88 240 240 240> 531 20G<385 459> 741 20G<170 211>
VStem: 112 142 360.12 177.35
AnchorPoint: "Anchor-11" 245 0 basechar 0
AnchorPoint: "Anchor-10" 80 533 basechar 0
AnchorPoint: "Anchor-9" 324 533 basechar 0
AnchorPoint: "Anchor-8" 0 0 basechar 0
LayerCount: 2
Fore
SplineSet
190 761 m 0x9e
 232 761 260 729 254 686 c 1
 252 664 242 645 222 614 c 2
 170 534 l 1
 96 534 l 1
 134 631 l 1
 118 644 108 664 112 693 c 0
 116 729 150 761 190 761 c 0x9e
415 551 m 0
 503 551 549 491 535 390 c 2
 481 0 l 1
 306 0 l 1
 358 346 l 2
 366 395 352 406 332 406 c 0xce
 303 406 265 360 229 285 c 1
 189 0 l 1
 14 0 l 1
 88 533 l 1
 240 533 l 1xae
 239 442 l 1
 282 508 355 551 415 551 c 0
EndSplineSet
Substitution2: "'smcp' Lowercase to Small Capitals lookup 24 subtable" napostrophe.sc
Substitution2: "'aalt' Access All Alternates lookup 0 subtable" napostrophe.sc
EndChar
StartChar: Eng
Encoding: 330 330 165
Width: 646
GlyphClass: 2
Flags: MW
HStem: -224 132<293.5 324 293.5 377.5> 0 21G<17 176 17 17 326 374 326 326 556 556> 542 153<220 220> 675 20G<114 340 340 340 493 653 653 653>
VStem: 17 636
AnchorPoint: "Anchor-14" 0 0 basechar 0
AnchorPoint: "Anchor-13" 0 0 basechar 0
AnchorPoint: "Anchor-12" 386 695 basechar 0
AnchorPoint: "Anchor-11" 0 0 basechar 0
AnchorPoint: "Anchor-10" 287 0 basechar 0
LayerCount: 2
Back
Fore
SplineSet
653 695 m 1xd8
 556 0 l 1
 552 -26 l 2
 529 -160 440 -224 315 -224 c 0
 246 -224 202 -204 172 -179 c 1
 244 -73 l 1
 265 -85 280 -92 307 -92 c 0
 341 -92 363 -73 369 -34 c 2
 374 0 l 1
 326 0 l 1
 220 542 l 1xe8
 224 456 227 362 208 225 c 2
 176 0 l 1
 17 0 l 1
 114 695 l 1
 340 695 l 1
 449 152 l 1
 444 250 441 326 459 452 c 2
 493 695 l 1
 653 695 l 1xd8
EndSplineSet
Substitution2: "'ss01' Style Set 1 lookup 34 subtable" Eng.ss01
Substitution2: "'salt' Stylistic Alternatives lookup 33 subtable" Eng.ss01
Substitution2: "'c2sc' Capitals to Small Capitals lookup 27 subtable" eng.sc
AlternateSubs2: "'aalt' Access All Alternates lookup 1 subtable" eng.sc Eng.ss01
Position2: "'cpsp' Capital Spacing lookup 0 subtable" dx=5 dy=0 dh=10 dv=0
EndChar
StartChar: eng
Encoding: 331 331 545
Width: 564
GlyphClass: 2
Flags: MW
HStem: -224 127<223 254 223 306> 0 21G<14 189 14 14 306 306 481 481> 406 127<88 340.5> 513 20G<88 240 240 240> 531 20G<384 461>
VStem: 355 182.47
AnchorPoint: "Anchor-14" 0 0 basechar 0
AnchorPoint: "Anchor-13" 0 0 basechar 0
AnchorPoint: "Anchor-12" 323 533 basechar 0
AnchorPoint: "Anchor-11" 0 0 basechar 0
AnchorPoint: "Anchor-10" 223 -213 basechar 0
LayerCount: 2
Back
Fore
SplineSet
419 551 m 0xcc
 503 551 549 491 535 389 c 2
 481 0 l 1
 477 -26 l 2
 455 -159 367 -224 245 -224 c 0
 176 -224 132 -204 102 -179 c 1
 172 -77 l 1
 195 -90 210 -97 236 -97 c 0
 272 -97 295 -77 300 -38 c 2
 306 0 l 1
 355 346 l 2
 362 394 350 406 331 406 c 0xe4
 299 406 265 360 229 285 c 1
 189 0 l 1
 14 0 l 1
 88 533 l 1
 240 533 l 1xd4
 239 442 l 1
 282 508 349 551 419 551 c 0xcc
EndSplineSet
Substitution2: "'smcp' Lowercase to Small Capitals lookup 28 subtable" eng.sc
Substitution2: "'aalt' Access All Alternates lookup 0 subtable" eng.sc
EndChar
StartChar: Omacron
Encoding: 332 332 199
Width: 680
GlyphClass: 2
Flags: MW
HStem: -18 133<284 386 284 444> 580 133<317 419> 778 121<274 567 257 584>
VStem: 32 187<203 305.5 203 361> 483 188<389 492.5>
AnchorPoint: "Anchor-14" 0 0 basechar 0
AnchorPoint: "Anchor-13" 636 695 basechar 0
AnchorPoint: "Anchor-12" 422 899 basechar 0
AnchorPoint: "Anchor-11" 0 0 basechar 0
AnchorPoint: "Anchor-10" 303 0 basechar 0
LayerCount: 2
Back
Fore
SplineSet
567 778 m 1
 257 778 l 1
 274 899 l 1
 584 899 l 1
 567 778 l 1
400 713 m 0
 575 713 671 608 671 427 c 0
 671 241 586 -18 302 -18 c 0
 128 -18 32 88 32 267 c 0
 32 455 119 713 400 713 c 0
387 580 m 0
 247 580 219 358 219 253 c 0
 219 153 252 115 316 115 c 0
 456 115 483 335 483 443 c 0
 483 542 451 580 387 580 c 0
EndSplineSet
Substitution2: "'c2sc' Capitals to Small Capitals lookup 27 subtable" omacron.sc
Substitution2: "'aalt' Access All Alternates lookup 0 subtable" omacron.sc
Position2: "'cpsp' Capital Spacing lookup 0 subtable" dx=5 dy=0 dh=10 dv=0
EndChar

StartChar: Obreve
Encoding: 334 334 73
Width: 680
GlyphClass: 2
Flags: MW
HStem: -18 133<284 386 284 444> 580 133<317 419> 748 122<388 432.5 388 454.5>
VStem: 32 187<200.5 303 200.5 361> 247 92<924 937> 483 188<392 495.5>
AnchorPoint: "Anchor-11" 0 0 basechar 0
AnchorPoint: "Anchor-10" 1 534 basechar 0
AnchorPoint: "Anchor-9" 401 695 basechar 0
AnchorPoint: "Anchor-8" 0 0 basechar 0
LayerCount: 2
Fore
SplineSet
400 748 m 0
 288 748 242 835 247 924 c 1
 339 937 l 1
 344 900 366 870 410 870 c 0
 455 870 487 902 502 940 c 1
 597 921 l 1
 578 832 509 748 400 748 c 0
400 713 m 0
 575 713 671 608 671 427 c 0
 671 241 586 -18 302 -18 c 0
 128 -18 32 88 32 267 c 0xf4
 32 455 119 713 400 713 c 0
387 580 m 0xf4
 247 580 219 358 219 248 c 0
 219 153 252 115 316 115 c 0
 456 115 483 335 483 449 c 0
 483 542 451 580 387 580 c 0xf4
EndSplineSet
Substitution2: "'c2sc' Capitals to Small Capitals lookup 23 subtable" obreve.sc
Substitution2: "'aalt' Access All Alternates lookup 0 subtable" obreve.sc
Position2: "'cpsp' Capital Spacing lookup 0 subtable" dx=5 dy=0 dh=10 dv=0
EndChar
StartChar: obreve
Encoding: 335 335 554
Width: 573
GlyphClass: 2
Flags: MW
HStem: -18 129<240.5 309.5 240.5 362.5> 422 129<262.5 331.5> 629 122<314.5 359 314.5 379.5>
VStem: 20 179<168 237.5 168 287> 172 95<815 828> 373 179
AnchorPoint: "Anchor-14" 0 0 basechar 0
AnchorPoint: "Anchor-13" 537 533 basechar 0
AnchorPoint: "Anchor-12" 349 831 basechar 0
AnchorPoint: "Anchor-11" 0 0 basechar 0
AnchorPoint: "Anchor-10" 252 0 basechar 0
LayerCount: 2
Back
Fore
SplineSet
325 629 m 0xec
 213 629 167 716 172 815 c 1
 267 828 l 1
 270 781 293 751 336 751 c 0
 382 751 414 783 432 831 c 1
 523 812 l 1
 503 713 434 629 325 629 c 0xec
323 551 m 0
 468 551 553 463 552 323 c 0
 551 170 477 -18 248 -18 c 0
 104 -18 20 67 20 210 c 0xf4
 20 364 95 551 323 551 c 0
310 422 m 0xf4
 215 422 199 275 199 200 c 0
 199 136 219 111 262 111 c 0
 357 111 372 258 373 333 c 0
 374 396 353 422 310 422 c 0xf4
EndSplineSet
Substitution2: "'smcp' Lowercase to Small Capitals lookup 28 subtable" obreve.sc
Substitution2: "'aalt' Access All Alternates lookup 0 subtable" obreve.sc
EndChar

StartChar: OE
Encoding: 338 338 82
Width: 892
GlyphClass: 2
Flags: MW
HStem: -18 133<277 303> 0 115<277 825 277 387> 0 131<560 825> 289 127<646 820 634 836> 564 131<614 614 614 887> 580 133<312 401.5 251.5 403>
VStem: 32 186<199 318.5 199 358.5> 463 183<416 416 416 497.5>
LayerCount: 2
Fore
SplineSet
614 564 m 1x3b
 635 522 645 472 646 416 c 1
 836 416 l 1
 820 289 l 1
 634 289 l 1
 622 234 600 179 560 131 c 1
 843 131 l 1
 825 0 l 1
 387 0 l 1x3b
 355 -12 321 -18 285 -18 c 0
 125 -18 32 86 32 266 c 0
 32 451 120 713 383 713 c 0x97
 420 713 454 707 483 695 c 1
 924 695 l 1
 887 564 l 1
 614 564 l 1x3b
218 246 m 0x57
 218 152 249 115 305 115 c 0
 429 115 463 303 463 452 c 0
 463 543 431 580 375 580 c 0
 249 580 218 391 218 246 c 0x57
EndSplineSet
Substitution2: "'c2sc' Capitals to Small Capitals lookup 23 subtable" oe.sc
Substitution2: "'aalt' Access All Alternates lookup 0 subtable" oe.sc
Position2: "'cpsp' Capital Spacing lookup 0 subtable" dx=5 dy=0 dh=10 dv=0
EndChar

StartChar: oe
Encoding: 339 339 219
Width: 884
GlyphClass: 2
Flags: MW
HStem: -18 129<240.5 289.5> 422 129<262.5 331.5> 436 115<634 675.5>
VStem: 19 178<168 237.5 168 287> 705 176<375.5 403.5>
AnchorPoint: "Anchor-11" 0 0 basechar 0
AnchorPoint: "Anchor-10" 0 0 basechar 0
AnchorPoint: "Anchor-9" 489 533 basechar 0
AnchorPoint: "Anchor-8" 0 0 basechar 0
LayerCount: 2
Fore
SplineSet
881 402 m 0xd8
 881 253 702 207 541 192 c 1
 545 130 581 110 628 110 c 0
 673 110 712 126 762 159 c 1
 824 55 l 1
 765 13 692 -18 606 -18 c 0
 521 -18 466 10 430 55 c 1
 388 12 331 -18 248 -18 c 0
 104 -18 19 67 19 210 c 0
 19 364 95 551 323 551 c 0
 394 551 448 517 486 473 c 1
 531 519 592 551 676 551 c 0
 809 551 881 486 881 402 c 0xd8
548 296 m 1
 676 304 705 360 705 391 c 0
 705 416 694 436 657 436 c 0xb8
 593 436 562 366 548 296 c 1
262 111 m 0
 357 111 374 258 375 333 c 0
 376 396 353 422 310 422 c 0
 215 422 197 275 197 200 c 0
 197 136 219 111 262 111 c 0
EndSplineSet
Substitution2: "'smcp' Lowercase to Small Capitals lookup 24 subtable" oe.sc
Substitution2: "'aalt' Access All Alternates lookup 0 subtable" oe.sc
EndChar

StartChar: Racute
Encoding: 340 340 87
Width: 610
GlyphClass: 2
Flags: MW
HStem: 0 21G<17 198 17 17 386 584 386 386> 256 126<251 288 234 313> 566 129<277 329 277 277>
VStem: 422 187<477 523.5>
AnchorPoint: "Anchor-11" 270 0 basechar 0
AnchorPoint: "Anchor-10" 0 0 basechar 0
AnchorPoint: "Anchor-9" 365 695 basechar 0
AnchorPoint: "Anchor-8" 0 0 basechar 0
LayerCount: 2
Fore
SplineSet
287 744 m 1
 240 834 l 1
 467 971 l 1
 532 840 l 1
 287 744 l 1
609 517 m 0
 609 426 583 347 456 286 c 1
 584 0 l 1
 386 0 l 1
 288 256 l 1
 234 256 l 1
 198 0 l 1
 17 0 l 1
 114 695 l 1
 351 695 l 2
 522 695 609 638 609 517 c 0
251 382 m 1
 313 382 l 2
 403 382 422 453 422 501 c 0
 422 546 391 566 329 566 c 2
 277 566 l 1
 251 382 l 1
EndSplineSet
Substitution2: "'c2sc' Capitals to Small Capitals lookup 23 subtable" racute.sc
Substitution2: "'aalt' Access All Alternates lookup 0 subtable" racute.sc
Position2: "'cpsp' Capital Spacing lookup 0 subtable" dx=5 dy=0 dh=10 dv=0
EndChar

StartChar: racute
Encoding: 341 341 224
Width: 396
GlyphClass: 2
Flags: MW
HStem: 0 21G<14 189 14 14> 376 157<88 354> 513 20G<88 240 240 240> 520 20G<441 441> 529 20G<361 399>
VStem: 14 427
AnchorPoint: "Anchor-11" 101 0 basechar 0
AnchorPoint: "Anchor-10" 0 0 basechar 0
AnchorPoint: "Anchor-9" 265 533 basechar 0
AnchorPoint: "Anchor-8" 0 0 basechar 0
LayerCount: 2
Fore
SplineSet
424 714 m 1x8c
 172 618 l 1
 137 707 l 1
 375 846 l 1
 424 714 l 1x8c
388 549 m 0
 410 549 425 546 441 540 c 1x94
 392 368 l 1
 375 373 362 376 346 376 c 0xc4
 281 376 249 313 222 235 c 1
 189 0 l 1
 14 0 l 1
 88 533 l 1
 240 533 l 1xa4
 239 436 l 1
 274 506 334 549 388 549 c 0
EndSplineSet
Substitution2: "'smcp' Lowercase to Small Capitals lookup 24 subtable" racute.sc
Substitution2: "'aalt' Access All Alternates lookup 0 subtable" racute.sc
EndChar

StartChar: Rcommaaccent
Encoding: 342 342 89
Width: 610
GlyphClass: 2
Flags: MW
HStem: -217 21G<197 197> 0 21G<17 198 17 17 386 584 386 386> 256 126<251 288 234 313> 566 129<277 329 277 277>
VStem: 167 169<-156.5 -131> 422 187<477 523.5>
AnchorPoint: "Anchor-11" 270 0 basechar 0
AnchorPoint: "Anchor-10" 0 0 basechar 0
AnchorPoint: "Anchor-9" 365 695 basechar 0
AnchorPoint: "Anchor-8" 0 0 basechar 0
LayerCount: 2
Fore
SplineSet
609 517 m 0
 609 426 583 347 456 286 c 1
 584 0 l 1
 386 0 l 1
 288 256 l 1
 234 256 l 1
 198 0 l 1
 17 0 l 1
 114 695 l 1
 351 695 l 2
 522 695 609 638 609 517 c 0
251 382 m 1
 313 382 l 2
 403 382 422 453 422 501 c 0
 422 546 391 566 329 566 c 2
 277 566 l 1
 251 382 l 1
261 -65 m 0
 307 -65 336 -97 336 -140 c 0
 336 -173 324 -198 298 -238 c 2
 237 -333 l 1
 152 -333 l 1
 197 -217 l 1
 179 -204 167 -185 167 -160 c 0
 167 -102 210 -65 261 -65 c 0
EndSplineSet
Substitution2: "'c2sc' Capitals to Small Capitals lookup 23 subtable" rcommaaccent.sc
Substitution2: "'aalt' Access All Alternates lookup 0 subtable" rcommaaccent.sc
Position2: "'cpsp' Capital Spacing lookup 0 subtable" dx=5 dy=0 dh=10 dv=0
EndChar

StartChar: rcommaaccent
Encoding: 343 343 226
Width: 396
GlyphClass: 2
Flags: MW
HStem: -217 21G<26 26> 0 21G<14 189 14 14> 376 157<88 354> 513 20G<88 240 240 240> 520 20G<441 441> 529 20G<361 399>
VStem: -19 460 -4 169<-156.5 -131>
AnchorPoint: "Anchor-11" 101 0 basechar 0
AnchorPoint: "Anchor-10" 0 0 basechar 0
AnchorPoint: "Anchor-9" 265 533 basechar 0
AnchorPoint: "Anchor-8" 0 0 basechar 0
LayerCount: 2
Fore
SplineSet
388 549 m 0xc6
 410 549 425 546 441 540 c 1xca
 392 368 l 1
 375 373 362 376 346 376 c 0xe2
 281 376 249 313 222 235 c 1
 189 0 l 1
 14 0 l 1
 88 533 l 1
 240 533 l 1xd2
 239 436 l 1
 274 506 334 549 388 549 c 0xc6
90 -65 m 0xc5
 136 -65 165 -97 165 -140 c 0
 165 -173 153 -198 127 -238 c 2
 66 -333 l 1
 -19 -333 l 1
 26 -217 l 1
 8 -204 -4 -185 -4 -160 c 0
 -4 -102 39 -65 90 -65 c 0xc5
EndSplineSet
Substitution2: "'smcp' Lowercase to Small Capitals lookup 24 subtable" rcommaaccent.sc
Substitution2: "'aalt' Access All Alternates lookup 0 subtable" rcommaaccent.sc
EndChar

StartChar: Rcaron
Encoding: 344 344 88
Width: 610
GlyphClass: 2
Flags: MW
HStem: 0 21G<17 198 17 17 386 584 386 386> 256 126<251 288 234 313> 566 129<277 329 277 277>
VStem: 422 187<477 523.5>
AnchorPoint: "Anchor-11" 270 0 basechar 0
AnchorPoint: "Anchor-10" 0 0 basechar 0
AnchorPoint: "Anchor-9" 365 695 basechar 0
AnchorPoint: "Anchor-8" 0 0 basechar 0
LayerCount: 2
Fore
SplineSet
316 748 m 1
 194 883 l 1
 262 954 l 1
 382 869 l 1
 526 954 l 1
 580 883 l 1
 421 748 l 1
 316 748 l 1
609 517 m 0
 609 426 583 347 456 286 c 1
 584 0 l 1
 386 0 l 1
 288 256 l 1
 234 256 l 1
 198 0 l 1
 17 0 l 1
 114 695 l 1
 351 695 l 2
 522 695 609 638 609 517 c 0
251 382 m 1
 313 382 l 2
 403 382 422 453 422 501 c 0
 422 546 391 566 329 566 c 2
 277 566 l 1
 251 382 l 1
EndSplineSet
Substitution2: "'c2sc' Capitals to Small Capitals lookup 23 subtable" rcaron.sc
Substitution2: "'aalt' Access All Alternates lookup 0 subtable" rcaron.sc
Position2: "'cpsp' Capital Spacing lookup 0 subtable" dx=5 dy=0 dh=10 dv=0
EndChar
StartChar: rcaron
Encoding: 345 345 606
Width: 396
GlyphClass: 2
Flags: MW
HStem: 0 21G<14 189 14 14> 376 157<88 354> 513 20G<88 240 240 240> 520 20G<441 441> 529 20G<361 399> 731 20G<101 101 487 487>
VStem: 14 473
AnchorPoint: "Anchor-14" 0 0 basechar 0
AnchorPoint: "Anchor-13" 0 0 basechar 0
AnchorPoint: "Anchor-12" 296 822 basechar 0
AnchorPoint: "Anchor-11" 0 0 basechar 0
AnchorPoint: "Anchor-10" 101 0 basechar 0
LayerCount: 2
Back
Fore
SplineSet
432 822 m 1x8e
 487 751 l 1
 328 607 l 1
 222 607 l 1
 101 751 l 1
 167 822 l 1
 286 728 l 1
 432 822 l 1x8e
388 549 m 0
 410 549 425 546 441 540 c 1x96
 392 368 l 1
 375 373 362 376 346 376 c 0xc6
 281 376 249 313 222 235 c 1
 189 0 l 1
 14 0 l 1
 88 533 l 1
 240 533 l 1xa6
 239 436 l 1
 274 506 334 549 388 549 c 0
EndSplineSet
Substitution2: "'smcp' Lowercase to Small Capitals lookup 28 subtable" rcaron.sc
Substitution2: "'aalt' Access All Alternates lookup 0 subtable" rcaron.sc
EndChar
StartChar: Sacute
Encoding: 346 346 228
Width: 569
GlyphClass: 2
Flags: MW
HStem: -18 139<208 275 208 354.5> 580 133<320 375.5>
VStem: 63 191<495 533.5 495 545.5> 352 192<176 219>
AnchorPoint: "Anchor-14" 0 0 basechar 0
AnchorPoint: "Anchor-13" 0 0 basechar 0
AnchorPoint: "Anchor-12" 381 971 basechar 0
AnchorPoint: "Anchor-11" 0 0 basechar 0
AnchorPoint: "Anchor-10" 246 0 basechar 0
LayerCount: 2
Back
Fore
SplineSet
460 971 m 1
 525 840 l 1
 280 744 l 1
 233 834 l 1
 460 971 l 1
347 713 m 0
 449 713 525 679 581 620 c 1
 487 524 l 1
 446 562 402 580 349 580 c 0
 291 580 254 554 254 513 c 0
 254 477 281 463 367 432 c 0
 483 394 544 335 544 233 c 0
 544 119 469 -18 240 -18 c 0
 116 -18 33 30 -20 85 c 1
 83 189 l 1
 125 145 176 121 240 121 c 0
 310 121 352 151 352 198 c 0
 352 240 327 265 248 292 c 0
 113 336 63 401 63 492 c 0
 63 599 146 713 347 713 c 0
EndSplineSet
Substitution2: "'c2sc' Capitals to Small Capitals lookup 27 subtable" sacute.sc
Substitution2: "'locl' Localized Forms in Latin lookup 7 subtable" Sacute.loclPLK
AlternateSubs2: "'aalt' Access All Alternates lookup 1 subtable" Sacute.loclPLK sacute.sc
Position2: "'cpsp' Capital Spacing lookup 0 subtable" dx=5 dy=0 dh=10 dv=0
EndChar

StartChar: scircumflex
Encoding: 349 349 231
Width: 477
GlyphClass: 2
Flags: MW
HStem: -18 125<175.5 227 175.5 296.5> 426 125<253.5 294.5>
VStem: 40 174<379 402 379 422> 277 173<136 164>
AnchorPoint: "Anchor-11" 201 0 basechar 0
AnchorPoint: "Anchor-10" 0 0 basechar 0
AnchorPoint: "Anchor-9" 281 533 basechar 0
AnchorPoint: "Anchor-8" 0 0 basechar 0
LayerCount: 2
Fore
SplineSet
109 687 m 1
 269 831 l 1
 375 831 l 1
 495 687 l 1
 426 616 l 1
 308 710 l 1
 163 616 l 1
 109 687 l 1
275 551 m 0
 348 551 429 524 473 482 c 1
 397 385 l 1
 363 412 314 426 275 426 c 0
 232 426 214 413 214 391 c 0
 214 367 231 360 315 333 c 0
 402 304 450 255 450 170 c 0
 450 78 387 -18 206 -18 c 0
 111 -18 25 19 -22 72 c 1
 66 164 l 1
 99 133 147 107 204 107 c 0
 250 107 277 122 277 150 c 0
 277 178 258 187 174 216 c 0
 88 246 40 299 40 374 c 0
 40 470 123 551 275 551 c 0
EndSplineSet
Substitution2: "'smcp' Lowercase to Small Capitals lookup 24 subtable" scircumflex.sc
Substitution2: "'aalt' Access All Alternates lookup 0 subtable" scircumflex.sc
EndChar

StartChar: Scedilla
Encoding: 350 350 93
Width: 569
GlyphClass: 2
Flags: MW
HStem: -269 94<186.5 212.5 186.5 267.5> -16 21G<285 285> -15 21G<187 187> 580 133<320 375.5>
VStem: 63 191<495 533.5 495 545.5> 249 124 352 192<180 219>
AnchorPoint: "Anchor-11" 246 0 basechar 0
AnchorPoint: "Anchor-10" 0 0 basechar 0
AnchorPoint: "Anchor-9" 356 695 basechar 0
AnchorPoint: "Anchor-8" 0 0 basechar 0
LayerCount: 2
Fore
SplineSet
367 432 m 1xba
 483 394 544 335 544 233 c 0xda
 544 127 479 1 285 -16 c 1
 280 -45 l 1xd4
 342 -53 373 -87 373 -138 c 0
 373 -191 332 -269 203 -269 c 0
 154 -269 115 -253 90 -235 c 1
 139 -158 l 1
 157 -169 175 -175 198 -175 c 0
 227 -175 248 -166 249 -144 c 0
 250 -123 226 -116 162 -116 c 1
 187 -15 l 1xb4
 92 -4 25 38 -20 85 c 1
 83 189 l 1
 125 145 176 121 240 121 c 0
 310 121 352 151 352 198 c 0
 352 240 327 265 248 292 c 1
 113 336 63 401 63 492 c 0
 63 599 146 713 347 713 c 0
 449 713 525 679 581 620 c 1
 487 524 l 1
 446 562 402 580 349 580 c 0
 291 580 254 554 254 513 c 0
 254 477 281 463 367 432 c 1xba
EndSplineSet
Substitution2: "'c2sc' Capitals to Small Capitals lookup 23 subtable" scedilla.sc
Substitution2: "'locl' Localized Forms in Latin lookup 5 subtable" Scommaaccent
Substitution2: "'locl' Localized Forms in Latin lookup 4 subtable" Scommaaccent
AlternateSubs2: "'aalt' Access All Alternates lookup 1 subtable" Scommaaccent scedilla.sc
Position2: "'cpsp' Capital Spacing lookup 0 subtable" dx=5 dy=0 dh=10 dv=0
EndChar

StartChar: scedilla
Encoding: 351 351 230
Width: 477
GlyphClass: 2
Flags: MW
HStem: -269 94<149.5 175.5 149.5 230.5> -16 21G<248 248> -14 21G<151 151> 426 125<253.5 294.5>
VStem: 40 174<379 402 379 422> 212 124 277 173<136 164>
AnchorPoint: "Anchor-11" 201 0 basechar 0
AnchorPoint: "Anchor-10" 0 0 basechar 0
AnchorPoint: "Anchor-9" 281 533 basechar 0
AnchorPoint: "Anchor-8" 0 0 basechar 0
LayerCount: 2
Fore
SplineSet
315 333 m 0xba
 402 304 450 255 450 170 c 0xda
 450 85 397 -2 248 -16 c 1
 243 -45 l 1xd4
 305 -53 336 -87 336 -138 c 0
 336 -191 295 -269 166 -269 c 0
 117 -269 78 -253 53 -235 c 1
 102 -158 l 1
 120 -169 138 -175 161 -175 c 0
 190 -175 211 -166 212 -144 c 0
 213 -123 189 -116 125 -116 c 1
 151 -14 l 1xb4
 78 -3 16 30 -22 72 c 1
 66 164 l 1
 99 133 147 107 204 107 c 0
 250 107 277 122 277 150 c 0
 277 178 258 187 174 216 c 0
 88 246 40 299 40 374 c 0
 40 470 123 551 275 551 c 0
 348 551 429 524 473 482 c 1
 397 385 l 1
 363 412 314 426 275 426 c 0
 232 426 214 413 214 391 c 0
 214 367 231 360 315 333 c 0xba
EndSplineSet
Substitution2: "'smcp' Lowercase to Small Capitals lookup 24 subtable" scedilla.sc
Substitution2: "'locl' Localized Forms in Latin lookup 5 subtable" scommaaccent
Substitution2: "'locl' Localized Forms in Latin lookup 4 subtable" scommaaccent
AlternateSubs2: "'aalt' Access All Alternates lookup 1 subtable" scommaaccent scedilla.sc
EndChar

StartChar: scaron
Encoding: 353 353 229
Width: 477
GlyphClass: 2
Flags: MW
HStem: -18 125<175.5 227 175.5 296.5> 426 125<253.5 294.5> 731 20G<118 118 504 504>
VStem: 40 174<379 402 379 422> 277 173<136 164>
AnchorPoint: "Anchor-11" 201 0 basechar 0
AnchorPoint: "Anchor-10" 0 0 basechar 0
AnchorPoint: "Anchor-9" 281 533 basechar 0
AnchorPoint: "Anchor-8" 0 0 basechar 0
LayerCount: 2
Fore
SplineSet
504 751 m 1
 345 607 l 1
 239 607 l 1
 118 751 l 1
 184 822 l 1
 303 728 l 1
 449 822 l 1
 504 751 l 1
275 551 m 0
 348 551 429 524 473 482 c 1
 397 385 l 1
 363 412 314 426 275 426 c 0
 232 426 214 413 214 391 c 0
 214 367 231 360 315 333 c 0
 402 304 450 255 450 170 c 0
 450 78 387 -18 206 -18 c 0
 111 -18 25 19 -22 72 c 1
 66 164 l 1
 99 133 147 107 204 107 c 0
 250 107 277 122 277 150 c 0
 277 178 258 187 174 216 c 0
 88 246 40 299 40 374 c 0
 40 470 123 551 275 551 c 0
EndSplineSet
Substitution2: "'smcp' Lowercase to Small Capitals lookup 24 subtable" scaron.sc
Substitution2: "'aalt' Access All Alternates lookup 0 subtable" scaron.sc
EndChar
StartChar: uni0162
Encoding: 354 354 241
Width: 536
GlyphClass: 2
Flags: MW
HStem: -269 94<220.5 246.5 220.5 301.5> 0 21G<140 225 140 140 322 322> 554 141<66 218 47 599 399 561 399 399>
VStem: 283 124
AnchorPoint: "Anchor-14" 280 347 basechar 0
AnchorPoint: "Anchor-13" 0 0 basechar 0
AnchorPoint: "Anchor-12" 329 695 basechar 0
AnchorPoint: "Anchor-11" 0 0 basechar 0
AnchorPoint: "Anchor-10" 231 0 basechar 0
LayerCount: 2
Back
Fore
SplineSet
561 554 m 1
 399 554 l 1
 322 0 l 1
 315 -45 l 1
 376 -53 407 -86 407 -138 c 0
 407 -191 366 -269 237 -269 c 0
 188 -269 149 -253 124 -235 c 1
 173 -158 l 1
 191 -169 209 -175 232 -175 c 0
 261 -175 282 -166 283 -144 c 0
 284 -123 260 -116 196 -116 c 1
 225 0 l 1
 140 0 l 1
 218 554 l 1
 47 554 l 1
 66 695 l 1
 599 695 l 1
 561 554 l 1
EndSplineSet
Substitution2: "'c2sc' Capitals to Small Capitals lookup 27 subtable" uni0163.sc
Substitution2: "'locl' Localized Forms in Latin lookup 5 subtable" uni021A
Substitution2: "'locl' Localized Forms in Latin lookup 4 subtable" uni021A
AlternateSubs2: "'aalt' Access All Alternates lookup 1 subtable" uni021A uni0163.sc
Position2: "'cpsp' Capital Spacing lookup 0 subtable" dx=5 dy=0 dh=10 dv=0
EndChar
